<svg xmlns="http://www.w3.org/2000/svg" viewBox="0 0 336 138.98"><path fill="#1d4381" d="M138.83 62.26h-7.87l-.37.61 5.5 4.04 2.06.54 8.16-.41.35-.6-5.78-3.63zm-11.4 0h-7.87l-.42.68 5.14 4.52 2 .6 8.19-.42.41-.68-5.45-4.08zm-22.79 0h-7.88l-.54.83 4.34 5.54 1.89.75 8.24-.47.53-.83-4.7-5.06zm11.4 0h-7.88l-.48.75 4.75 5.02 1.95.68 8.22-.45.46-.75-5.08-4.56zm-22.8 0h-7.88l-.6.91 3.9 6.09 1.82.83 8.27-.49.59-.91-4.28-5.59zm-11.39 0h-7.89l-.66.99 3.42 6.66 1.76.92 8.3-.52.66-1-3.84-6.13zm91.79 20.15-9.23 1.82-.48.8 6.1 3.51 2.36.18 9.52-2.23.47-.79-6.4-3.09zm-13.39 2.65-9.35 1.93-.55.9 5.73 3.99 2.32.23 9.68-2.36.53-.88-6.05-3.55zm-27.28 5.78-9.59 2.14-.71 1.08 4.87 5.06 2.24.35 9.98-2.63.7-1.07-5.27-4.55zm13.73-2.97-9.47 2.04-.63.99 5.32 4.51 2.28.28 9.83-2.5.61-.97-5.67-4.03zm-27.64 6.09-9.7 2.24-.8 1.19 4.4 5.64 2.19.41 10.12-2.76.79-1.18-4.82-5.1zM105 97.22l-9.83 2.36-.9 1.29 3.89 6.25 2.13.48 10.28-2.89.88-1.28-4.34-5.69zm59.6-19.55-8.89 1.36-.45.76 5.96 3.64 2.28.26 9.18-1.77.44-.74-6.25-3.22zm-12.88 1.99-8.98 1.43-.52.85 5.59 4.12 2.24.33 9.3-1.88.5-.82-5.9-3.68zm-26.14 4.31-9.15 1.59-.67 1.02 4.74 5.18 2.15.45 9.53-2.08.66-1-5.13-4.68zm13.13-2.21-9.06 1.51-.59.93 5.18 4.64 2.19.38 9.42-1.97.58-.92-5.53-4.16zm-26.39 4.53-9.24 1.67-.75 1.12 4.28 5.75 2.09.52 9.65-2.18.74-1.11-4.69-5.22zm-13.38 2.43-9.33 1.75-.83 1.22 3.77 6.35 2.04.6 9.76-2.29.83-1.21-4.22-5.79zm56.85-15.99-8.55.9-.42.71 5.8 3.78 2.21.36 8.84-1.32.41-.69-6.09-3.36zm-12.39 1.32-8.6.96-.49.79 5.44 4.26 2.16.41 8.93-1.39.47-.77-5.75-3.82zm-25.01 2.87-8.72 1.05-.62.96 4.61 5.3 2.06.55 9.09-1.54.61-.94-4.98-4.81zm12.55-1.47-8.67 1-.55.88 5.04 4.76 2.12.48 9-1.46.54-.86-5.38-4.3zm-25.18 3-8.77 1.11-.7 1.05 4.15 5.86 2 .62 9.18-1.61.69-1.03-4.55-5.35zm-12.7 1.61-8.83 1.16-.78 1.14 3.66 6.45 1.94.71 9.26-1.69.77-1.13-4.09-5.91zm54.14-12.47-8.21.45-.39.66 5.65 3.92 2.13.44 8.5-.86.38-.65-5.94-3.49zm-11.89.66-8.24.48-.45.73 5.29 4.39 2.08.51 8.56-.9.44-.73-5.6-3.95zm-23.9 1.43-8.29.52-.58.9 4.47 5.42 1.98.65 8.66-1 .57-.89-4.84-4.93zm11.97-.73-8.27.5-.51.81 4.89 4.9 2.04.57 8.61-.95.5-.8-5.23-4.43zM99.4 70.44l-8.32.55-.64.98 4.02 5.98 1.91.72 8.72-1.04.64-.97-4.42-5.47zm-12.04.8-8.35.57-.72 1.07 3.54 6.56 1.85.81 8.77-1.1.72-1.06-3.96-6.02zm-18.14-8.98h-7.88l-.75 1.09 2.88 7.32 1.68 1 8.32-.53.75-1.1-3.32-6.76zm-11.4 0h-7.88l-.82 1.18 2.35 7.94 1.61 1.1 8.34-.56.83-1.19-2.82-7.36zm-22.8 0h-7.87l-.99 1.37 1.23 9.25 1.44 1.29 8.38-.6 1.01-1.39-1.75-8.63zm11.4 0h-7.87l-.91 1.27 1.81 8.58 1.52 1.2 8.36-.58.92-1.29-2.3-7.98zm-22.79 0h-7.88l-1.08 1.47.63 9.94 1.35 1.39 8.41-.62 1.1-1.5-1.17-9.29zm-11.4 0H4.35l-1.17 1.58v10.64l1.26 1.5 8.44-.64 1.18-1.6-.56-9.98zm76.98 38.77-9.96 2.47-1.01 1.41 3.28 6.96 2.07.57 10.44-3.04 1-1.41-3.77-6.36zm-14.44 3.59-10.08 2.58-1.1 1.53 2.69 7.63 2 .66 10.59-3.18 1.1-1.53-3.21-7.01zm-29.39 7.65-10.31 2.79-1.33 1.77 1.41 9.08 1.86.83 10.89-3.44 1.33-1.78-2-8.39zm14.78-3.9-10.19 2.68-1.22 1.65 2.07 8.34 1.93.74 10.74-3.31 1.22-1.65-2.62-7.68zm-29.73 7.96L20 119.22l-1.45 1.91.72 9.84 1.77.93 11.04-3.58 1.46-1.91-1.34-9.13zm-15.11 4.2-10.56 3-1.58 2.04v10.65l1.68 1.03 11.2-3.72 1.58-2.04-.65-9.91zm68.65-28.98-9.42 1.83-.94 1.34 3.18 7.05 1.97.68 9.89-2.4.93-1.33-3.65-6.46zm-13.65 2.67-9.5 1.91-1.04 1.44 2.61 7.71 1.9.77 10.01-2.5 1.03-1.44-3.12-7.1zm-27.66 5.67-9.68 2.06-1.24 1.68 1.37 9.12 1.75.94 10.23-2.7 1.25-1.68-1.94-8.45zM56.55 97l-9.59 1.98-1.13 1.56 2 8.4 1.83.86 10.12-2.61 1.13-1.55-2.54-7.76zm-27.91 5.89-9.76 2.14-1.36 1.8.71 9.86 1.66 1.05 10.35-2.81 1.36-1.8-1.3-9.17zM14.5 106l-9.85 2.22-1.47 1.92v10.65l1.57 1.15 10.47-2.92 1.48-1.93-.63-9.92zm64.39-24.07L70 83.14l-.87 1.25 3.08 7.14 1.87.79 9.35-1.76.87-1.25-3.55-6.56zm-12.87 1.76-8.95 1.26-.96 1.36 2.52 7.78 1.8.88 9.43-1.84.97-1.35-3.02-7.19zm-26 3.73-9.05 1.36-1.16 1.58 1.33 9.16 1.64 1.06 9.59-1.98 1.17-1.58-1.88-8.51zm13.04-1.9-9 1.31L43 88.29l1.94 8.46 1.72.97 9.52-1.91 1.06-1.46-2.46-7.84zM26.91 89.4l-9.11 1.4-1.26 1.7.67 9.89 1.56 1.16 9.68-2.06 1.27-1.7-1.26-9.21zm-13.19 2.04L4.55 92.9l-1.37 1.81v10.65l1.47 1.26 9.76-2.13 1.38-1.82-.61-9.94zm60.25-19.28-8.37.6-.81 1.18 2.98 7.22 1.77.9 8.83-1.14.8-1.17-3.42-6.66zm-12.12.87-8.4.63-.9 1.27 2.44 7.86 1.7.99 8.88-1.19.9-1.27-2.92-7.27zm-24.37 1.85-8.46.67-1.07 1.48 1.28 9.2 1.54 1.18 8.98-1.29 1.08-1.48-1.81-8.56zm12.2-.94-8.43.65-.98 1.37 1.88 8.52 1.62 1.08 8.93-1.24.98-1.37-2.37-7.91zm-24.44 1.91-8.49.7-1.16 1.58.65 9.92 1.45 1.27 9.04-1.33 1.18-1.59-1.21-9.25zm-12.28 1.01-8.51.72-1.27 1.7v10.64l1.36 1.39 9.09-1.38 1.28-1.71-.59-9.96zm265.1-14.6h-7.88l-.02.02 7.78.15 2.35-.01 7.88-.14.02-.02zm-11.4 0h-7.88l-.02.05 7.74.33 2.35.02 7.9-.17.02-.04-7.76-.17zm-22.8 0h-7.87l-.05.12 7.58.78 2.33.07 7.96-.21.03-.11-7.64-.57zm11.4 0h-7.88l-.03.08 7.68.54 2.34.05 7.93-.19.02-.08-7.71-.35zm-22.8 0h-7.87l-.07.15 7.47 1.04 2.32.12 7.97-.23.06-.16-7.56-.8zm-11.39 0h-7.88l-.09.2 7.32 1.32 2.3.15 8.01-.25.07-.2-7.43-1.06zm102.19.07-7.78.52.01.1 7.87.07 2.33-.09 7.7-.59-.02-.08h-7.77zm-11.28.78-7.9.63-.01.13 7.92.18 2.37-.09 7.85-.73-.01-.11-7.86-.08zm-23.09 2.03-8.14.84-.04.21 7.92.49 2.41-.09 8.15-1 .02-.19-7.91-.33zm11.63-1.09-8.02.74-.02.16 7.94.32 2.39-.1 8-.86v-.14l-7.9-.19zm-23.43 2.33-8.26.95-.07.26 7.87.68 2.43-.08 8.29-1.13.05-.23-7.89-.5zm-11.97 1.4-8.38 1.05-.1.31 7.78.92 2.44-.07 8.45-1.26.07-.29-7.83-.7zm46.83-5.47-7.84.43v.08l7.85.09 2.34-.07 7.78-.51v-.07h-7.78zm-11.36.64-7.93.5-.01.12 7.87.21 2.37-.06 7.89-.62.01-.11-7.83-.1zm-23.11 1.6-8.1.66-.04.19 7.83.56 2.4-.05 8.12-.83.04-.17-7.85-.39zm11.62-.86-8.02.58-.02.15 7.87.38 2.38-.06 8.01-.72.02-.14-7.85-.23zm-23.35 1.83-8.19.73-.07.24 7.76.77 2.41-.04 8.24-.92.05-.22-7.8-.58zm-11.86 1.08-8.28.81-.1.28 7.66 1.02 2.41-.02 8.36-1.03.08-.26-7.73-.8zm46.76-4.3-7.88.3-.01.07 7.83.11 2.35-.05 7.83-.42.01-.05h-7.77zm-11.41.45-7.93.36-.02.09 7.83.26 2.36-.04 7.92-.49.02-.09-7.81-.12zm-23.06 1.12-8.05.46-.04.17 7.75.63 2.37-.01 8.09-.64.04-.15-7.78-.45zm11.57-.59-7.99.4-.03.13 7.81.43 2.37-.02 8-.57.03-.12-7.81-.27zm-23.22 1.26-8.1.51-.07.21 7.66.86 2.38.01 8.17-.71.06-.2-7.72-.65zm-11.73.74-8.16.55-.09.26 7.54 1.12 2.38.04 8.25-.78.08-.25-7.63-.88zm46.55-3-7.89.16-.01.05 7.8.13 2.35-.03 7.87-.29.02-.04h-7.78zm-11.42.24-7.92.19-.02.07 7.79.3 2.35-.01 7.93-.34.02-.07-7.78-.14zm-22.96.59-7.97.23-.05.15 7.67.71 2.36.03 8.02-.43.05-.14-7.72-.5zm11.5-.31-7.94.21-.03.11 7.74.49 2.35.01 7.98-.39.03-.1-7.77-.31zm-23.04.65-7.99.26-.07.19 7.57.95 2.34.06 8.08-.48.07-.17-7.65-.73zm-11.57.38-8.02.29-.1.23 7.44 1.22 2.34.09 8.13-.52.08-.22-7.53-.97zm-23.42-1.57h-7.87l-.12.25 7.13 1.66 2.28.2 8.02-.28.11-.24-7.27-1.38zm-11.39 0h-7.88l-.15.3 6.93 1.99 2.26.24 8.04-.29.14-.3-7.1-1.68zm-22.8 0h-7.88l-.22.41 6.45 2.72 2.19.35 8.1-.34.2-.4-6.66-2.38zm11.4 0h-7.88l-.18.35 6.7 2.34 2.23.3 8.07-.32.17-.35-6.9-2.01zm-22.8 0h-7.88l-.26.47 6.17 3.12 2.16.41 8.12-.36.24-.47-6.41-2.75zm-11.39 0h-7.88l-.31.53 5.86 3.55 2.11.47 8.15-.39.29-.52-6.13-3.16zm100.2 7.25-8.51 1.17-.14.37 7.64 1.21 2.44-.05 8.61-1.41.12-.35-7.73-.96zm-12.34 1.72-8.62 1.28-.19.42 7.48 1.51 2.44-.02 8.76-1.54.16-.41-7.6-1.24zm-25.19 3.9-8.86 1.49-.28.56 7.04 2.2 2.43.04 9.06-1.82.26-.54-7.23-1.86zm12.68-2.03-8.74 1.38-.23.5 7.28 1.83 2.44.01 8.91-1.68.21-.47-7.44-1.53zm-25.53 4.21-8.98 1.6-.34.63 6.78 2.59 2.41.07 9.21-1.94.32-.62-7-2.22zm-13.01 2.33-9.11 1.7-.4.72 6.48 3 2.38.13 9.37-2.08.38-.7-6.74-2.61zm52.33-11.72-8.37.89-.13.35 7.51 1.32 2.4.01 8.48-1.14.13-.32-7.62-1.07zm-12.13 1.31-8.45.97-.17.4 7.34 1.63 2.39.04 8.6-1.24.16-.38-7.48-1.35zm-24.62 2.96-8.62 1.12-.27.53 6.9 2.33 2.36.11 8.83-1.45.25-.5-7.09-2zm12.37-1.53-8.53 1.04-.22.47 7.13 1.96 2.39.07 8.71-1.34.2-.44-7.3-1.66zm-24.87 3.17-8.71 1.21-.32.59 6.63 2.72 2.34.16 8.95-1.55.3-.58-6.85-2.36zm-12.62 1.76-8.8 1.28-.38.67 6.33 3.14 2.32.21 9.06-1.66.36-.65-6.59-2.75zm50.98-9.41-8.21.61-.13.31 7.38 1.44 2.36.07 8.34-.86.12-.3-7.5-1.17zm-11.9.89-8.27.66-.16.37 7.2 1.74 2.35.11 8.42-.93.16-.36-7.35-1.46zm-24.03 1.99-8.39.76-.25.49 6.75 2.46 2.31.19 8.59-1.09.24-.47-6.96-2.12zm12.05-1.03-8.32.71-.21.43 6.99 2.08 2.33.15 8.51-1.01.19-.41-7.16-1.78zm-24.2 2.14-8.43.8-.3.56 6.48 2.85 2.28.24 8.66-1.16.29-.54-6.7-2.49zm-12.21 1.17-8.49.86-.36.62 6.18 3.28 2.24.29 8.76-1.23.34-.61-6.43-2.89zm49.57-7.05-8.05.31-.12.29 7.26 1.54 2.32.14 8.18-.58.12-.27-7.39-1.27zm-11.65.46-8.08.33-.16.34 7.07 1.86 2.3.18 8.24-.62.15-.32-7.22-1.58zm-23.43 1-8.13.38-.24.45 6.6 2.59 2.25.27 8.34-.71.23-.44-6.81-2.25zm11.73-.52-8.1.36-.2.39 6.85 2.22 2.28.22 8.29-.67.18-.38-7.03-1.9zm-23.5 1.08-8.16.4-.28.52 6.32 2.99 2.22.32 8.39-.76.27-.5-6.56-2.63zm-11.81.59-8.19.42-.33.59 6.02 3.41 2.18.38 8.45-.81.32-.57-6.28-3.02z"/><path fill="#1c447f" d="m5.44 52.32.45.06h.66q4.45 0 4.52-12.54c0-2.1 0-3.74.07-4.93l.13-9.15c0-2 0-3.88.05-5.74s0-3.87 0-6c0-1.93-.36-3.26-1.07-4S8.28 8.9 6.45 8.9h-.27V6.55c1.43.11 2.83.19 4.21.24s2.76.06 4.17.06c1.56 0 3.49 0 5.77-.15s3.76-.15 4.46-.15q6.9 0 10.91 3.07a9.87 9.87 0 0 1 4 8.27 10.37 10.37 0 0 1-2 6.32 19.73 19.73 0 0 1-6.49 5.14q5.89 1.14 8.82 4A10.24 10.24 0 0 1 43 41a11.87 11.87 0 0 1-4.87 9.89q-4.86 3.76-13 3.76c-1 0-2.83-.06-5.54-.17s-4.94-.17-6.7-.17c-.74 0-1.76 0-3.07.07s-2.78.11-4.41.2zm11.87-2.17a29.26 29.26 0 0 0 3.82.85 24.36 24.36 0 0 0 3.66.29q5.49 0 8.52-2.69a9.49 9.49 0 0 0 3-7.48q0-5.09-3.38-7.56T22.54 31.1h-2.3c-.77 0-1.77.05-3 .12v12.55q0 2.32.07 6.38zm-.07-22c.52.05 1.07.08 1.66.09h2.67q1.91 0 3.54-.06c1.08 0 2.13-.13 3.13-.24A12.33 12.33 0 0 0 31.93 24a9.64 9.64 0 0 0 1.24-4.84 8.65 8.65 0 0 0-2.71-6.73A10.71 10.71 0 0 0 23 9.94c-.69 0-1.49 0-2.4.13s-1.93.23-3.07.4q-.09 4.5-.18 10.43t-.11 7.21zM49.53 54.5v-2.38h1.31A3.11 3.11 0 0 0 53.68 51q.72-1.16.72-5.55V27.58c0-2.78-.24-4.54-.72-5.3a3.12 3.12 0 0 0-2.84-1.14h-.64v-2.42a166.114 166.114 0 0 0 7.35.2c1.01 0 2.15 0 3.37-.05s2.52-.08 3.91-.15v2.42H64c-1.52 0-2.54.41-3.07 1.22s-.79 2.62-.79 5.42v5.1l.14 17.43q1.8.21 3.9.3c1.4.07 2.89.11 4.48.11 3.13 0 5.31-.45 6.55-1.33s2.25-2.59 3-5.11l2.11.8a41.57 41.57 0 0 0-1.33 4.44c-.36 1.54-.67 3.19-.92 4.95-2.43-.13-4.81-.24-7.12-.32s-4.51-.15-6.8-.15c-3 0-5.65 0-8 .12s-4.49.23-6.62.38zm34.11-33.36v-2.42c.26 0 .67.05 1.2.07 2.78.13 4.72.2 5.84.2s3.08-.07 6-.2c.58 0 1 0 1.34-.07v2.42h-.71c-1.43 0-2.38.36-2.85 1.09s-.7 2.49-.7 5.28v8.32q0 9.12 2.43 12.19t8.54 3.06c4 0 6.88-.93 8.5-2.81s2.43-5.89 2.43-12v-8.89c0-2.66-.25-4.37-.77-5.12s-1.52-1.12-3-1.12h-.81v-2.42c1.63.14 2.85.23 3.64.27s1.44.07 1.93.07c.8 0 1.71 0 2.73-.08s2.25-.14 3.71-.26v2.42h-.27q-3.36 0-3.42 4.69v.94l-.1 4.26v5.84a37.41 37.41 0 0 1-.7 8.51 11.61 11.61 0 0 1-2.44 4.62 13 13 0 0 1-5.29 3.69 19.91 19.91 0 0 1-7.28 1.31q-8.15 0-12-3.65t-3.85-11.5c0-.56 0-2.29.06-5.18s.07-5.52.07-7.87c0-2.64-.26-4.23-.79-4.79s-1.58-.84-3.17-.84zm48.48 33.36v-2.41h.51a3.76 3.76 0 0 0 .47 0 3.13 3.13 0 0 0 3-1.36c.53-.91.79-3 .79-6.26V27c0-2.7-.23-4.36-.7-5s-1.42-.92-2.85-.92h-.5v-2.35c1.81.11 3.87.2 6.19.25s5.12.09 8.43.09c2.7 0 5.16 0 7.36-.1s4.16-.17 5.89-.31a36.37 36.37 0 0 0 .23 4c.16 1.44.4 3.08.74 4.91l-2.22.44c-.49-2.39-1.22-4-2.19-4.69s-3.43-1.11-7.36-1.11h-4c-1 0-2 .09-3 .18 0 1.32-.08 2.79-.1 4.4s0 4.08 0 7.41l2.58.15c.81 0 1.56.05 2.28.05h1.11q4.78 0 6-.76a3.66 3.66 0 0 0 1.46-2.9l2.24.37c-.18 1.54-.3 2.72-.37 3.54s-.1 1.54-.1 2.16.06 1.52.17 3.09c0 .69.08 1.24.1 1.64l-2.18.2c-.07-1.83-.51-3-1.32-3.64s-3-.88-6.46-.88l-3.49.06-2.08.07v13.34c1.14.16 2.43.27 3.86.34s3 .1 4.66.1q4.93 0 6.91-1.33c1.32-.88 2.33-2.55 3.05-5l2.21.84c-.49 1.27-.94 2.63-1.34 4.06s-.78 3-1.14 4.79q-3.18-.2-7.61-.3t-10.1-.1c-2.37 0-4.39 0-6.08.08s-3.32.22-5.05.33zm37.29-2.18.52.06h.79c1.79 0 3-.61 3.64-1.83s.95-3.92.95-8.13V13.91c0-1.92-.35-3.24-1-4s-2-1.07-3.79-1.07h-.27V6.55c1.52.11 3 .19 4.54.24s3 .06 4.48.06c1.65 0 3.63 0 5.92-.15s3.77-.15 4.44-.15q7.35 0 11.74 3.66a11.88 11.88 0 0 1 4.39 9.62q0 7.08-4.81 11t-13.6 3.94c-.58 0-1.37 0-2.36-.1s-2.18-.17-3.54-.31v10.1q0 5.16 1.06 6.49c.7.88 2.11 1.32 4.24 1.32h1.14v2.21c-1.63-.08-3.27-.15-4.93-.2s-3.28-.06-4.89-.06c-.79 0-1.93 0-3.44.06l-5.15.2zm11.94-21q1.41.19 2.55.3c.76.07 1.51.1 2.25.1q6.3 0 9.57-2.8T199 20.7a9.86 9.86 0 0 0-3.23-7.7c-2.15-1.93-5.05-2.89-8.72-2.89-1 0-2 0-2.87.12s-1.79.2-2.66.35c-.07 3-.11 6.07-.14 9.14s-.03 6.91-.03 11.58zm21.39 20.77a3.47 3.47 0 0 0 .42 0h.66q3.21 0 6.94-8.55c.47-1.08.84-1.9 1.1-2.49l4.8-10.93.91-2q3.08-6.94 3.92-9.63h5.7a58.06 58.06 0 0 0 2.81 8.42l.26.67 5.64 15.12c.13.38.33.93.6 1.64q2.93 7.81 6.17 7.82a2.73 2.73 0 0 0 .44 0h.4v2.38c-1.54-.13-3-.24-4.26-.32s-2.44-.12-3.42-.12-2.05 0-3.34.12-2.71.2-4.27.35v-2.41h.48a2.82 2.82 0 0 0 .42 0 3.74 3.74 0 0 0 2.16-.52A1.85 1.85 0 0 0 232 50a8.94 8.94 0 0 0-.36-1.89c-.25-.91-.59-2-1-3.27l-.77-2.38-4.44-.17c-1.31 0-2.41-.07-3.31-.07-.65 0-1.56 0-2.73.07l-4.21.17-.87 2.38a32.37 32.37 0 0 0-1.15 3.16 8.3 8.3 0 0 0-.42 1.95 1.8 1.8 0 0 0 .72 1.62 4.39 4.39 0 0 0 2.4.49h.8v2.44c-1.88-.13-3.38-.22-4.51-.26s-2.1-.07-2.9-.07-1.8 0-2.92.08-2.31.14-3.59.25zm13.65-12.91 2.82.12c1.36.05 2.39.08 3.08.08.88 0 1.84 0 2.9-.05s2.2-.08 3.41-.15l-5.67-15.66zm30.21-20.46a7.76 7.76 0 0 0 1.73.64 8.12 8.12 0 0 0 1.93.2h23.34a18.37 18.37 0 0 0 3-.2 12.5 12.5 0 0 0 2.4-.64v1.45c0 1.45.05 2.84.14 4.15s.22 2.6.4 3.83l-2.18.4a6.82 6.82 0 0 0-1.61-4.31 5.94 5.94 0 0 0-4.2-1.24h-5.77v23.76q0 3.56.78 4.47c.51.62 1.53.93 3.05.93h1.51v2.34c-2.37-.13-4.22-.22-5.54-.26s-2.4-.07-3.25-.07c-.67 0-1.59 0-2.75.07s-3 .13-5.57.26v-2.41h1.82a7 7 0 0 0 2.34-.27 2.15 2.15 0 0 0 1.08-1 11.87 11.87 0 0 0 .53-3.59q.17-2.88.17-10.9v-5.75c0-2.03-.07-4.56-.14-7.63H254a6.39 6.39 0 0 0-4.37 1.23 8.35 8.35 0 0 0-2.06 4.47l-2.35-.47c.42-1.67.75-3.3 1-4.88a35.07 35.07 0 0 0 .38-4.58zm41.89 0c.38 0 .9.05 1.57.07 2.89.13 4.81.2 5.77.2.8 0 2.41 0 4.83-.17l2.11-.1v2.52H302a2.89 2.89 0 0 0-2.7 1.12c-.46.75-.69 2.6-.69 5.57v6.39l5.1.15c1.56 0 3 .05 4.43.05s3 0 4.64-.05 3.44-.1 5.38-.19v-6.35c0-3-.22-4.83-.67-5.6a2.69 2.69 0 0 0-2.55-1.16 3.5 3.5 0 0 0-.48 0h-.49v-2.45l2.11.1c2.42.12 4 .17 4.83.17s2.75 0 5.44-.17l1.91-.1v2.52h-.47a3.15 3.15 0 0 0-.44 0 2.77 2.77 0 0 0-2.66 1.21Q324 23.58 324 28v17.46q0 4.35.72 5.53a3 3 0 0 0 2.8 1.17h1.27v2.34c-1.52-.08-2.93-.15-4.22-.2s-2.43-.06-3.39-.06-2.11 0-3.44.06-2.76.12-4.31.2v-2.38h1.25a3 3 0 0 0 2.78-1.12q.71-1.16.7-5.75V37.8h-.4q-6.3-.25-9.36-.26t-9.59.26h-.23v7.78q0 4.39.72 5.49a3.14 3.14 0 0 0 2.8 1.09h1.24v2.34c-1.54-.08-3-.15-4.32-.2s-2.5-.06-3.46-.06-2.06 0-3.37.06-2.72.12-4.24.2v-2.38h1.31A2.92 2.92 0 0 0 292 51c.47-.77.71-2.5.71-5.21V27.94q0-4.39-.69-5.58a3.26 3.26 0 0 0-3.05-1.15h-.45z"/></svg>