<svg xmlns="http://www.w3.org/2000/svg" viewBox="0 0 186.33 79.1"><defs><style>.cls-1{fill:#004085;}.cls-2{isolation:isolate;font-size:38.52px;fill:#004181;font-family:IowanOldStyle-Roman, Iowan Old Style;letter-spacing:-0.02em;}.cls-3{letter-spacing:-0.06em;}.cls-4{letter-spacing:-0.08em;}.cls-5{letter-spacing:-0.04em;}</style></defs><g id="Layer_2" data-name="Layer 2"><g id="ELEMENTS"><polygon class="cls-1" points="77.19 37.03 72.78 37.03 72.57 37.38 75.66 39.65 76.81 39.95 81.39 39.72 81.59 39.38 78.34 37.35 77.19 37.03"/><polygon class="cls-1" points="70.8 37.03 66.38 37.03 66.15 37.42 69.03 39.95 70.15 40.29 74.75 40.05 74.98 39.68 71.92 37.38 70.8 37.03"/><polygon class="cls-1" points="58.01 37.03 53.59 37.03 53.29 37.5 55.73 40.61 56.79 41.03 61.41 40.77 61.7 40.3 59.07 37.47 58.01 37.03"/><polygon class="cls-1" points="64.41 37.03 59.99 37.03 59.72 37.46 62.38 40.27 63.48 40.66 68.09 40.4 68.35 39.98 65.5 37.42 64.41 37.03"/><polygon class="cls-1" points="51.62 37.03 47.2 37.03 46.86 37.55 49.05 40.96 50.07 41.43 54.71 41.15 55.04 40.64 52.64 37.51 51.62 37.03"/><polygon class="cls-1" points="45.23 37.03 40.81 37.03 40.43 37.59 42.35 41.33 43.34 41.84 47.99 41.55 48.36 40.99 46.21 37.56 45.23 37.03"/><polygon class="cls-1" points="96.72 48.34 91.54 49.36 91.27 49.81 94.7 51.78 96.02 51.88 101.36 50.63 101.62 50.19 98.03 48.45 96.72 48.34"/><polygon class="cls-1" points="89.21 49.83 83.97 50.91 83.66 51.41 86.87 53.65 88.17 53.78 93.6 52.46 93.9 51.96 90.5 49.98 89.21 49.83"/><polygon class="cls-1" points="73.9 53.07 68.53 54.27 68.13 54.88 70.86 57.72 72.12 57.91 77.71 56.44 78.11 55.84 75.15 53.28 73.9 53.07"/><polygon class="cls-1" points="81.61 51.41 76.29 52.55 75.94 53.1 78.93 55.63 80.21 55.79 85.72 54.39 86.06 53.85 82.88 51.58 81.61 51.41"/><polygon class="cls-1" points="66.11 54.82 60.66 56.08 60.21 56.74 62.68 59.91 63.91 60.14 69.59 58.59 70.03 57.93 67.33 55.07 66.11 54.82"/><polygon class="cls-1" points="58.22 56.65 52.7 57.97 52.2 58.7 54.38 62.2 55.58 62.47 61.34 60.85 61.84 60.13 59.4 56.94 58.22 56.65"/><polygon class="cls-1" points="91.65 45.68 86.66 46.44 86.41 46.87 89.75 48.91 91.03 49.06 96.18 48.07 96.42 47.65 92.92 45.84 91.65 45.68"/><polygon class="cls-1" points="84.42 46.8 79.39 47.6 79.1 48.08 82.23 50.39 83.49 50.57 88.7 49.52 88.98 49.06 85.67 46.99 84.42 46.8"/><polygon class="cls-1" points="69.76 49.22 64.63 50.11 64.25 50.68 66.91 53.59 68.12 53.84 73.46 52.67 73.83 52.11 70.96 49.48 69.76 49.22"/><polygon class="cls-1" points="77.13 47.98 72.04 48.83 71.71 49.35 74.62 51.95 75.85 52.16 81.13 51.05 81.45 50.54 78.35 48.21 77.13 47.98"/><polygon class="cls-1" points="62.32 50.52 57.14 51.46 56.72 52.08 59.12 55.31 60.29 55.6 65.7 54.38 66.12 53.76 63.49 50.83 62.32 50.52"/><polygon class="cls-1" points="54.82 51.88 49.58 52.86 49.12 53.55 51.23 57.11 52.38 57.44 57.85 56.16 58.31 55.48 55.95 52.23 54.82 51.88"/><polygon class="cls-1" points="86.71 42.91 81.91 43.42 81.67 43.82 84.93 45.94 86.17 46.13 91.13 45.4 91.36 45.01 87.94 43.12 86.71 42.91"/><polygon class="cls-1" points="79.76 43.65 74.93 44.19 74.66 44.63 77.71 47.02 78.92 47.25 83.93 46.48 84.19 46.04 80.97 43.9 79.76 43.65"/><polygon class="cls-1" points="65.73 45.26 60.84 45.85 60.49 46.39 63.07 49.36 64.23 49.67 69.33 48.81 69.67 48.28 66.88 45.58 65.73 45.26"/><polygon class="cls-1" points="72.77 44.44 67.91 45 67.6 45.49 70.42 48.16 71.61 48.43 76.66 47.61 76.97 47.13 73.95 44.72 72.77 44.44"/><polygon class="cls-1" points="58.64 46.12 53.72 46.74 53.33 47.33 55.66 50.62 56.78 50.97 61.93 50.07 62.32 49.48 59.77 46.49 58.64 46.12"/><polygon class="cls-1" points="51.52 47.02 46.56 47.67 46.13 48.31 48.18 51.93 49.27 52.33 54.47 51.38 54.9 50.75 52.6 47.43 51.52 47.02"/><polygon class="cls-1" points="81.89 40.03 77.28 40.28 77.06 40.65 80.23 42.85 81.43 43.1 86.2 42.62 86.41 42.25 83.08 40.29 81.89 40.03"/><polygon class="cls-1" points="75.22 40.4 70.59 40.67 70.34 41.08 73.31 43.54 74.48 43.83 79.28 43.32 79.52 42.91 76.38 40.7 75.22 40.4"/><polygon class="cls-1" points="61.81 41.2 57.16 41.49 56.84 42 59.34 45.04 60.45 45.4 65.31 44.84 65.63 44.34 62.92 41.58 61.81 41.2"/><polygon class="cls-1" points="68.53 40.79 63.89 41.07 63.6 41.53 66.35 44.27 67.49 44.6 72.32 44.06 72.6 43.61 69.66 41.13 68.53 40.79"/><polygon class="cls-1" points="55.08 41.63 50.41 41.94 50.05 42.49 52.3 45.84 53.38 46.25 58.27 45.66 58.63 45.11 56.15 42.05 55.08 41.63"/><polygon class="cls-1" points="48.32 42.08 43.64 42.4 43.23 43 45.22 46.67 46.26 47.13 51.18 46.51 51.58 45.92 49.36 42.54 48.32 42.08"/><polygon class="cls-1" points="38.15 37.03 33.73 37.03 33.31 37.65 34.92 41.75 35.87 42.32 40.53 42.02 40.95 41.4 39.09 37.61 38.15 37.03"/><polygon class="cls-1" points="31.75 37.03 27.33 37.03 26.87 37.7 28.19 42.15 29.09 42.77 33.77 42.46 34.23 41.79 32.65 37.66 31.75 37.03"/><polygon class="cls-1" points="18.96 37.03 14.55 37.03 13.99 37.81 14.68 42.99 15.49 43.72 20.19 43.38 20.75 42.6 19.77 37.77 18.96 37.03"/><polygon class="cls-1" points="25.36 37.03 20.94 37.03 20.43 37.75 21.44 42.56 22.3 43.23 26.99 42.91 27.5 42.19 26.21 37.71 25.36 37.03"/><polygon class="cls-1" points="12.57 37.03 8.15 37.03 7.55 37.87 7.9 43.44 8.66 44.22 13.38 43.87 13.99 43.03 13.33 37.82 12.57 37.03"/><polygon class="cls-1" points="6.18 37.03 1.76 37.03 1.1 37.92 1.1 43.9 1.81 44.74 6.54 44.38 7.21 43.48 6.89 37.88 6.18 37.03"/><polygon class="cls-1" points="49.36 58.78 43.77 60.17 43.21 60.96 45.05 64.87 46.21 65.19 52.06 63.48 52.62 62.69 50.51 59.12 49.36 58.78"/><polygon class="cls-1" points="41.26 60.8 35.61 62.24 34.98 63.1 36.49 67.39 37.62 67.75 43.56 65.97 44.18 65.11 42.38 61.18 41.26 60.8"/><polygon class="cls-1" points="24.77 65.09 18.99 66.65 18.24 67.65 19.04 72.74 20.07 73.21 26.18 71.28 26.93 70.28 25.81 65.57 24.77 65.09"/><polygon class="cls-1" points="33.07 62.9 27.35 64.41 26.66 65.33 27.82 70.01 28.91 70.43 34.93 68.57 35.62 67.64 34.14 63.33 33.07 62.9"/><polygon class="cls-1" points="16.39 67.36 10.54 68.99 9.72 70.06 10.13 75.58 11.12 76.1 17.31 74.09 18.13 73.02 17.38 67.9 16.39 67.36"/><polygon class="cls-1" points="7.91 69.72 1.99 71.41 1.1 72.55 1.1 78.53 2.04 79.1 8.33 77.02 9.21 75.87 8.85 70.31 7.91 69.72"/><polygon class="cls-1" points="46.42 53.47 41.14 54.5 40.61 55.24 42.39 59.2 43.5 59.58 49.04 58.24 49.57 57.49 47.52 53.87 46.42 53.47"/><polygon class="cls-1" points="38.76 54.97 33.43 56.04 32.85 56.85 34.32 61.17 35.38 61.6 40.99 60.2 41.57 59.39 39.83 55.41 38.76 54.97"/><polygon class="cls-1" points="23.25 58.15 17.82 59.3 17.12 60.24 17.89 65.36 18.87 65.89 24.61 64.37 25.31 63.43 24.22 58.69 23.25 58.15"/><polygon class="cls-1" points="31.04 56.52 25.66 57.64 25.02 58.51 26.15 63.22 27.17 63.7 32.85 62.24 33.49 61.37 32.06 57.02 31.04 56.52"/><polygon class="cls-1" points="15.38 59.83 9.91 61.03 9.15 62.04 9.54 67.57 10.47 68.16 16.28 66.58 17.04 65.57 16.31 60.43 15.38 59.83"/><polygon class="cls-1" points="7.45 61.57 1.93 62.82 1.1 63.9 1.1 69.87 1.98 70.51 7.86 68.88 8.69 67.8 8.33 62.23 7.45 61.57"/><polygon class="cls-1" points="43.57 48.07 38.58 48.75 38.09 49.45 39.82 53.46 40.87 53.9 46.12 52.91 46.6 52.21 44.62 48.53 43.57 48.07"/><polygon class="cls-1" points="36.35 49.06 31.33 49.77 30.79 50.53 32.21 54.89 33.22 55.39 38.51 54.35 39.05 53.6 37.35 49.57 36.35 49.06"/><polygon class="cls-1" points="21.77 51.15 16.69 51.91 16.04 52.8 16.78 57.94 17.7 58.53 23.09 57.42 23.74 56.54 22.69 51.76 21.77 51.15"/><polygon class="cls-1" points="29.08 50.09 24.03 50.82 23.44 51.64 24.53 56.39 25.49 56.93 30.83 55.86 31.43 55.04 30.05 50.64 29.08 50.09"/><polygon class="cls-1" points="14.41 52.26 9.3 53.05 8.59 54 8.97 59.55 9.85 60.2 15.28 59.04 15.99 58.09 15.29 52.93 14.41 52.26"/><polygon class="cls-1" points="7.01 53.41 1.87 54.23 1.1 55.24 1.1 61.21 1.92 61.92 7.4 60.73 8.17 59.71 7.83 54.13 7.01 53.41"/><polygon class="cls-1" points="40.81 42.59 36.11 42.93 35.66 43.59 37.33 47.64 38.33 48.15 43.28 47.51 43.73 46.85 41.81 43.11 40.81 42.59"/><polygon class="cls-1" points="34.01 43.08 29.3 43.43 28.8 44.15 30.16 48.55 31.12 49.11 36.1 48.44 36.6 47.73 34.96 43.65 34.01 43.08"/><polygon class="cls-1" points="20.34 44.12 15.6 44.49 15 45.32 15.71 50.48 16.58 51.14 21.61 50.42 22.22 49.59 21.21 44.79 20.34 44.12"/><polygon class="cls-1" points="27.19 43.59 22.46 43.95 21.91 44.72 22.96 49.5 23.87 50.11 28.88 49.41 29.43 48.64 28.1 44.21 27.19 43.59"/><polygon class="cls-1" points="13.47 44.66 8.72 45.05 8.06 45.94 8.43 51.5 9.24 52.22 14.31 51.47 14.97 50.58 14.29 45.39 13.47 44.66"/><polygon class="cls-1" points="6.59 45.23 1.81 45.63 1.1 46.58 1.1 52.56 1.86 53.33 6.96 52.56 7.68 51.6 7.35 46.01 6.59 45.23"/><polygon class="cls-1" points="155.29 37.03 150.87 37.03 150.86 37.05 155.23 37.13 156.54 37.13 160.97 37.05 160.97 37.03 156.61 37.03 155.29 37.03"/><polygon class="cls-1" points="148.9 37.03 144.48 37.03 144.47 37.06 148.81 37.25 150.13 37.27 154.56 37.17 154.57 37.14 150.22 37.05 148.9 37.03"/><polygon class="cls-1" points="136.11 37.03 131.69 37.03 131.66 37.1 135.92 37.54 137.23 37.59 141.69 37.47 141.71 37.4 137.42 37.09 136.11 37.03"/><polygon class="cls-1" points="142.5 37.03 138.09 37.03 138.07 37.08 142.37 37.39 143.69 37.42 148.13 37.31 148.15 37.27 143.82 37.07 142.5 37.03"/><polygon class="cls-1" points="129.72 37.03 125.3 37.03 125.26 37.13 129.45 37.71 130.75 37.77 135.22 37.64 135.25 37.56 131.02 37.11 129.72 37.03"/><polygon class="cls-1" points="123.33 37.03 118.9 37.03 118.85 37.15 122.96 37.89 124.25 37.98 128.74 37.83 128.78 37.72 124.61 37.13 123.33 37.03"/><polygon class="cls-1" points="180.65 37.08 176.28 37.37 176.29 37.42 180.7 37.46 182.01 37.41 186.33 37.08 186.32 37.03 181.96 37.03 180.65 37.08"/><polygon class="cls-1" points="174.32 37.52 169.89 37.87 169.88 37.94 174.33 38.04 175.66 37.99 180.06 37.58 180.05 37.52 175.65 37.47 174.32 37.52"/><polygon class="cls-1" points="161.37 38.65 156.8 39.13 156.78 39.24 161.22 39.52 162.57 39.47 167.14 38.91 167.16 38.8 162.72 38.62 161.37 38.65"/><polygon class="cls-1" points="167.89 38.04 163.39 38.45 163.38 38.55 167.83 38.73 169.18 38.67 173.66 38.19 173.66 38.11 169.23 38 167.89 38.04"/><polygon class="cls-1" points="154.75 39.35 150.12 39.88 150.08 40.03 154.49 40.41 155.85 40.37 160.51 39.73 160.53 39.6 156.11 39.32 154.75 39.35"/><polygon class="cls-1" points="148.03 40.13 143.33 40.73 143.28 40.9 147.64 41.41 149.01 41.38 153.75 40.67 153.79 40.51 149.4 40.11 148.03 40.13"/><polygon class="cls-1" points="174.31 37.07 169.91 37.31 169.91 37.35 174.31 37.41 175.62 37.37 179.99 37.08 179.98 37.03 175.62 37.03 174.31 37.07"/><polygon class="cls-1" points="167.93 37.42 163.48 37.71 163.48 37.77 167.89 37.89 169.22 37.85 173.65 37.51 173.65 37.45 169.26 37.39 167.93 37.42"/><polygon class="cls-1" points="154.97 38.32 150.43 38.69 150.4 38.8 154.79 39.11 156.14 39.08 160.7 38.62 160.72 38.52 156.31 38.3 154.97 38.32"/><polygon class="cls-1" points="161.49 37.84 156.99 38.17 156.97 38.25 161.39 38.46 162.73 38.43 167.22 38.02 167.23 37.95 162.82 37.82 161.49 37.84"/><polygon class="cls-1" points="148.38 38.87 143.79 39.28 143.75 39.41 148.11 39.84 149.46 39.82 154.08 39.3 154.11 39.18 149.73 38.86 148.38 38.87"/><polygon class="cls-1" points="141.73 39.47 137.09 39.92 137.04 40.08 141.33 40.66 142.68 40.65 147.37 40.07 147.42 39.92 143.08 39.48 141.73 39.47"/><polygon class="cls-1" points="167.97 37.06 163.55 37.23 163.54 37.27 167.93 37.33 169.25 37.3 173.64 37.07 173.65 37.03 169.29 37.03 167.97 37.06"/><polygon class="cls-1" points="161.56 37.31 157.11 37.51 157.1 37.57 161.5 37.71 162.82 37.69 167.26 37.41 167.27 37.37 162.89 37.3 161.56 37.31"/><polygon class="cls-1" points="148.63 37.94 144.12 38.2 144.09 38.29 148.44 38.65 149.77 38.64 154.31 38.29 154.33 38.2 149.96 37.95 148.63 37.94"/><polygon class="cls-1" points="155.12 37.61 150.64 37.84 150.62 37.91 155 38.15 156.33 38.13 160.82 37.82 160.83 37.75 156.45 37.6 155.12 37.61"/><polygon class="cls-1" points="142.09 38.32 137.55 38.6 137.51 38.72 141.81 39.2 143.14 39.21 147.72 38.81 147.76 38.7 143.43 38.34 142.09 38.32"/><polygon class="cls-1" points="135.51 38.73 130.94 39.04 130.88 39.19 135.12 39.81 136.45 39.84 141.08 39.4 141.13 39.26 136.84 38.77 135.51 38.73"/><polygon class="cls-1" points="161.63 37.05 157.2 37.14 157.19 37.17 161.57 37.24 162.89 37.22 167.3 37.06 167.31 37.03 162.95 37.03 161.63 37.05"/><polygon class="cls-1" points="155.22 37.19 150.78 37.29 150.77 37.33 155.14 37.5 156.46 37.49 160.9 37.3 160.91 37.26 156.55 37.18 155.22 37.19"/><polygon class="cls-1" points="142.34 37.51 137.87 37.65 137.84 37.73 142.15 38.12 143.47 38.14 147.97 37.9 147.99 37.83 143.66 37.54 142.34 37.51"/><polygon class="cls-1" points="148.79 37.34 144.34 37.46 144.32 37.52 148.66 37.79 149.98 37.8 154.46 37.58 154.47 37.53 150.12 37.35 148.79 37.34"/><polygon class="cls-1" points="135.87 37.71 131.38 37.85 131.35 37.96 135.59 38.49 136.91 38.53 141.44 38.26 141.47 38.16 137.19 37.75 135.87 37.71"/><polygon class="cls-1" points="129.38 37.92 124.88 38.08 124.83 38.21 129 38.89 130.31 38.95 134.87 38.65 134.91 38.53 130.69 37.98 129.38 37.92"/><polygon class="cls-1" points="116.24 37.03 111.82 37.03 111.76 37.18 115.76 38.11 117.04 38.22 121.54 38.06 121.6 37.93 117.52 37.16 116.24 37.03"/><polygon class="cls-1" points="109.85 37.03 105.43 37.03 105.35 37.2 109.23 38.32 110.5 38.46 115.01 38.29 115.09 38.13 111.11 37.18 109.85 37.03"/><polygon class="cls-1" points="97.06 37.03 92.64 37.03 92.52 37.27 96.14 38.79 97.37 38.99 101.91 38.8 102.02 38.57 98.28 37.24 97.06 37.03"/><polygon class="cls-1" points="103.45 37.03 99.04 37.03 98.93 37.23 102.69 38.55 103.94 38.72 108.47 38.54 108.56 38.34 104.7 37.21 103.45 37.03"/><polygon class="cls-1" points="90.67 37.03 86.25 37.03 86.1 37.3 89.56 39.05 90.77 39.28 95.33 39.08 95.46 38.82 91.87 37.27 90.67 37.03"/><polygon class="cls-1" points="84.28 37.03 79.86 37.03 79.68 37.34 82.97 39.33 84.16 39.59 88.73 39.37 88.89 39.08 85.45 37.31 84.28 37.03"/><polygon class="cls-1" points="140.48 41.1 135.71 41.76 135.63 41.97 139.91 42.65 141.29 42.62 146.12 41.83 146.19 41.63 141.85 41.09 140.48 41.1"/><polygon class="cls-1" points="133.56 42.07 128.72 42.78 128.62 43.03 132.81 43.87 134.19 43.86 139.1 42.99 139.19 42.77 134.93 42.07 133.56 42.07"/><polygon class="cls-1" points="119.44 44.26 114.46 45.09 114.31 45.41 118.26 46.64 119.62 46.66 124.7 45.65 124.85 45.34 120.79 44.3 119.44 44.26"/><polygon class="cls-1" points="126.55 43.12 121.64 43.9 121.51 44.17 125.59 45.2 126.96 45.21 131.96 44.27 132.08 44 127.91 43.14 126.55 43.12"/><polygon class="cls-1" points="112.23 45.48 107.19 46.38 107 46.73 110.8 48.18 112.15 48.23 117.32 47.13 117.5 46.79 113.57 45.54 112.23 45.48"/><polygon class="cls-1" points="104.92 46.79 99.82 47.74 99.59 48.15 103.22 49.83 104.56 49.9 109.82 48.73 110.03 48.34 106.25 46.88 104.92 46.79"/><polygon class="cls-1" points="134.28 40.21 129.59 40.72 129.51 40.91 133.72 41.65 135.07 41.66 139.83 41.02 139.9 40.83 135.63 40.23 134.28 40.21"/><polygon class="cls-1" points="127.48 40.95 122.74 41.49 122.64 41.72 126.75 42.63 128.1 42.66 132.92 41.96 133.01 41.74 128.82 40.99 127.48 40.95"/><polygon class="cls-1" points="113.67 42.61 108.83 43.24 108.68 43.53 112.55 44.84 113.88 44.9 118.83 44.09 118.97 43.81 114.99 42.69 113.67 42.61"/><polygon class="cls-1" points="120.61 41.75 115.82 42.34 115.69 42.59 119.7 43.7 121.03 43.74 125.92 42.98 126.03 42.73 121.94 41.81 120.61 41.75"/><polygon class="cls-1" points="106.66 43.53 101.77 44.2 101.59 44.54 105.31 46.06 106.62 46.15 111.64 45.28 111.81 44.96 107.96 43.64 106.66 43.53"/><polygon class="cls-1" points="99.58 44.52 94.64 45.23 94.43 45.61 97.98 47.37 99.28 47.49 104.36 46.56 104.56 46.19 100.87 44.65 99.58 44.52"/><polygon class="cls-1" points="128.17 39.24 123.56 39.58 123.49 39.76 127.63 40.56 128.96 40.6 133.64 40.12 133.7 39.95 129.5 39.29 128.17 39.24"/><polygon class="cls-1" points="121.5 39.74 116.86 40.11 116.77 40.31 120.81 41.29 122.12 41.35 126.85 40.83 126.94 40.63 122.81 39.81 121.5 39.74"/><polygon class="cls-1" points="108.01 40.85 103.31 41.28 103.17 41.55 106.96 42.93 108.25 43.04 113.07 42.43 113.2 42.17 109.3 40.98 108.01 40.85"/><polygon class="cls-1" points="114.78 40.28 110.11 40.67 109.99 40.91 113.91 42.08 115.22 42.17 119.99 41.6 120.1 41.37 116.08 40.37 114.78 40.28"/><polygon class="cls-1" points="101.2 41.47 96.47 41.92 96.3 42.24 99.94 43.84 101.22 43.97 106.08 43.32 106.24 43.02 102.48 41.62 101.2 41.47"/><polygon class="cls-1" points="94.35 42.13 89.59 42.61 89.39 42.96 92.85 44.8 94.11 44.97 99.03 44.27 99.21 43.93 95.61 42.31 94.35 42.13"/><polygon class="cls-1" points="122.16 38.18 117.64 38.35 117.57 38.51 121.64 39.38 122.95 39.45 127.54 39.13 127.61 38.98 123.46 38.27 122.16 38.18"/><polygon class="cls-1" points="115.62 38.43 111.09 38.62 111 38.81 114.97 39.86 116.26 39.95 120.88 39.61 120.96 39.42 116.91 38.54 115.62 38.43"/><polygon class="cls-1" points="102.48 39 97.92 39.21 97.79 39.47 101.49 40.92 102.75 41.07 107.43 40.67 107.56 40.42 103.74 39.16 102.48 39"/><polygon class="cls-1" points="109.06 38.71 104.51 38.91 104.41 39.13 108.25 40.37 109.52 40.49 114.17 40.12 114.28 39.91 110.34 38.84 109.06 38.71"/><polygon class="cls-1" points="95.88 39.31 91.3 39.53 91.14 39.83 94.69 41.5 95.93 41.68 100.64 41.25 100.79 40.97 97.11 39.5 95.88 39.31"/><polygon class="cls-1" points="89.25 39.64 84.66 39.88 84.47 40.21 87.85 42.12 89.07 42.33 93.81 41.88 93.99 41.56 90.47 39.87 89.25 39.64"/><text class="cls-2" transform="translate(0 32.69)">B<tspan class="cls-3" x="23.12" y="0">L</tspan><tspan x="42.47" y="0">UE</tspan><tspan class="cls-4" x="91.98" y="0">P</tspan><tspan class="cls-5" x="111.71" y="0">A</tspan><tspan x="134.09" y="0">TH</tspan></text></g></g></svg>