<svg xmlns="http://www.w3.org/2000/svg" viewBox="0 0 219.78 349.11"><defs><style>.goverment-cls-1{opacity:0.9;}.goverment-cls-2{fill:#606060;}.goverment-cls-3,.goverment-cls-5,.goverment-cls-7,.goverment-cls-8{fill:#fff;}.goverment-cls-11,.goverment-cls-4{fill:#004181;}.goverment-cls-5,.goverment-cls-6,.goverment-cls-7,.goverment-cls-8,.goverment-cls-9{stroke:#004181;}.goverment-cls-10,.goverment-cls-5,.goverment-cls-6,.goverment-cls-7,.goverment-cls-8,.goverment-cls-9{stroke-miterlimit:10;}.goverment-cls-5{stroke-width:0.21px;}.goverment-cls-10,.goverment-cls-6,.goverment-cls-9{fill:none;}.goverment-cls-7{stroke-width:0.13px;}.goverment-cls-8{stroke-width:0.13px;}.goverment-cls-9{stroke-width:0.96px;}.goverment-cls-10{stroke:#fff;stroke-width:0.62px;}.goverment-cls-11{font-size:22px;font-family:Graphik-Medium, Graphik;font-weight:500;}.goverment-cls-12{letter-spacing:-0.03em;}</style></defs><g id="Layer_2" data-name="Layer 2"><g id="Layer_1-2" data-name="Layer 1"><g class="goverment-cls-1"><rect class="goverment-cls-2" width="219.78" height="251.78" rx="16.59"/></g><rect class="goverment-cls-3" x="34.29" y="74.67" width="151.19" height="147.63"/><path class="goverment-cls-4" d="M184.83,75.32V221.65H35V75.32H184.83M186.14,74H33.64V223h152.5V74Z"/><rect class="goverment-cls-5" x="27.7" y="66.87" width="164.38" height="4.92"/><rect class="goverment-cls-6" x="42.86" y="134.42" width="23.07" height="26.29"/><line class="goverment-cls-6" x1="42.86" y1="142.6" x2="65.93" y2="142.6"/><line class="goverment-cls-6" x1="58.46" y1="160.52" x2="58.46" y2="134.77"/><line class="goverment-cls-6" x1="51.06" y1="160.52" x2="51.06" y2="134.56"/><rect class="goverment-cls-6" x="42.86" y="96.16" width="23.07" height="26.29"/><line class="goverment-cls-6" x1="58.46" y1="122.26" x2="58.46" y2="86.72"/><line class="goverment-cls-6" x1="51.06" y1="122.26" x2="51.06" y2="86.51"/><path class="goverment-cls-6" d="M42.9,95.67c0-5.46,5.14-9.89,11.49-9.89s11.49,4.43,11.49,9.89"/><rect class="goverment-cls-6" x="42.86" y="187.62" width="23.07" height="26.29"/><line class="goverment-cls-6" x1="58.46" y1="213.72" x2="58.46" y2="178.19"/><line class="goverment-cls-6" x1="51.06" y1="213.72" x2="51.06" y2="177.98"/><line class="goverment-cls-6" x1="42.86" y1="196.63" x2="65.93" y2="196.63"/><line class="goverment-cls-6" x1="42.86" y1="205.13" x2="65.93" y2="205.13"/><path class="goverment-cls-6" d="M42.9,187.14c0-5.47,5.14-9.89,11.49-9.89s11.49,4.42,11.49,9.89"/><rect class="goverment-cls-6" x="79.86" y="134.42" width="23.07" height="26.29"/><line class="goverment-cls-6" x1="79.86" y1="142.6" x2="102.93" y2="142.6"/><line class="goverment-cls-6" x1="95.46" y1="160.52" x2="95.46" y2="134.77"/><line class="goverment-cls-6" x1="88.05" y1="160.52" x2="88.05" y2="134.56"/><rect class="goverment-cls-6" x="79.86" y="96.16" width="23.07" height="26.29"/><line class="goverment-cls-6" x1="95.46" y1="122.26" x2="95.46" y2="86.72"/><line class="goverment-cls-6" x1="88.05" y1="122.26" x2="88.05" y2="86.51"/><path class="goverment-cls-6" d="M79.89,95.67c0-5.46,5.15-9.89,11.49-9.89s11.49,4.43,11.49,9.89"/><rect class="goverment-cls-6" x="116.85" y="134.42" width="23.07" height="26.29"/><line class="goverment-cls-6" x1="116.85" y1="142.6" x2="139.92" y2="142.6"/><line class="goverment-cls-6" x1="132.45" y1="160.52" x2="132.45" y2="134.77"/><line class="goverment-cls-6" x1="125.05" y1="160.52" x2="125.05" y2="134.56"/><rect class="goverment-cls-6" x="116.85" y="96.16" width="23.07" height="26.29"/><line class="goverment-cls-6" x1="132.45" y1="122.26" x2="132.45" y2="86.72"/><line class="goverment-cls-6" x1="125.05" y1="122.26" x2="125.05" y2="86.51"/><path class="goverment-cls-6" d="M116.89,95.67c0-5.46,5.14-9.89,11.49-9.89s11.49,4.43,11.49,9.89"/><rect class="goverment-cls-6" x="153.85" y="187.62" width="23.07" height="26.29"/><line class="goverment-cls-6" x1="169.45" y1="213.72" x2="169.45" y2="178.19"/><line class="goverment-cls-6" x1="162.04" y1="213.72" x2="162.04" y2="177.98"/><line class="goverment-cls-6" x1="153.85" y1="196.63" x2="176.92" y2="196.63"/><line class="goverment-cls-6" x1="153.85" y1="205.13" x2="176.92" y2="205.13"/><path class="goverment-cls-6" d="M153.88,187.14c0-5.47,5.15-9.89,11.49-9.89s11.49,4.42,11.49,9.89"/><rect class="goverment-cls-6" x="153.85" y="134.42" width="23.07" height="26.29"/><line class="goverment-cls-6" x1="153.85" y1="142.6" x2="176.92" y2="142.6"/><line class="goverment-cls-6" x1="169.45" y1="160.52" x2="169.45" y2="134.77"/><line class="goverment-cls-6" x1="162.04" y1="160.52" x2="162.04" y2="134.56"/><rect class="goverment-cls-6" x="153.85" y="96.16" width="23.07" height="26.29"/><line class="goverment-cls-6" x1="169.45" y1="122.26" x2="169.45" y2="86.72"/><line class="goverment-cls-6" x1="162.04" y1="122.26" x2="162.04" y2="86.51"/><path class="goverment-cls-6" d="M153.88,95.67c0-5.46,5.15-9.89,11.49-9.89s11.49,4.43,11.49,9.89"/><rect class="goverment-cls-7" x="73.99" y="229.44" width="71.8" height="4.45"/><rect class="goverment-cls-8" x="76.07" y="223.68" width="67.65" height="4.38"/><rect class="goverment-cls-9" x="76.18" y="176.26" width="67.42" height="46.6"/><rect class="goverment-cls-4" x="74.11" y="198.07" width="46.46" height="2.28" transform="translate(296.55 101.87) rotate(90)"/><rect class="goverment-cls-4" x="98.29" y="198.07" width="46.46" height="2.28" transform="translate(320.73 77.7) rotate(90)"/><line class="goverment-cls-10" x1="109.89" y1="13.59" x2="109.89" y2="36.55"/><rect class="goverment-cls-3" x="81.87" y="57.45" width="7.62" height="7.15"/><rect class="goverment-cls-3" x="91.42" y="57.45" width="7.62" height="7.15"/><rect class="goverment-cls-3" x="129.61" y="57.45" width="7.62" height="7.15"/><rect class="goverment-cls-3" x="120.07" y="57.45" width="7.62" height="7.15"/><rect class="goverment-cls-3" x="100.97" y="57.45" width="7.62" height="7.15"/><rect class="goverment-cls-3" x="110.52" y="57.45" width="7.62" height="7.15"/><path class="goverment-cls-3" d="M81.9,53.71c0-13.83,12.54-25,28-25s28,11.21,28,25"/><polyline class="goverment-cls-3" points="110.05 13.93 124.3 13.93 124.3 20.68 110.08 20.68"/><text class="goverment-cls-11" transform="translate(32.58 291.69)">G<tspan class="goverment-cls-12" x="17.05" y="0">O</tspan><tspan x="34.3" y="0">VERNMENT</tspan></text></g></g></svg>