<svg xmlns="http://www.w3.org/2000/svg" viewBox="0 0 164.59 220.37"><defs><style>.g-cls-1,.g-cls-3,.g-cls-5,.g-cls-6{fill:#fff;}.g-cls-2{fill:#004181;}.g-cls-3,.g-cls-4,.g-cls-5,.g-cls-6,.g-cls-7{stroke:#004181;}.g-cls-3,.g-cls-4,.g-cls-5,.g-cls-6,.g-cls-7,.g-cls-8{stroke-miterlimit:10;}.g-cls-3{stroke-width:0.21px;}.g-cls-4,.g-cls-7,.g-cls-8{fill:none;}.g-cls-5{stroke-width:0.13px;}.g-cls-6{stroke-width:0.13px;}.g-cls-7{stroke-width:0.96px;}.g-cls-8{stroke:#fff;stroke-width:0.62px;}</style></defs><g id="Layer_2" data-name="Layer 2"><g id="Layer_1-2" data-name="Layer 1"><rect class="g-cls-1" x="6.7" y="61.07" width="151.19" height="147.64"/><path class="g-cls-2" d="M157.24,61.73V208.05H7.36V61.73H157.24m1.31-1.31H6.05V209.36h152.5V60.42Z"/><rect class="g-cls-3" x="0.11" y="53.28" width="164.38" height="4.92"/><rect class="g-cls-4" x="15.27" y="120.83" width="23.07" height="26.29"/><line class="g-cls-4" x1="15.27" y1="129.01" x2="38.34" y2="129.01"/><line class="g-cls-4" x1="30.87" y1="146.93" x2="30.87" y2="121.18"/><line class="g-cls-4" x1="23.46" y1="146.93" x2="23.46" y2="120.97"/><rect class="g-cls-4" x="15.27" y="82.57" width="23.07" height="26.29"/><line class="g-cls-4" x1="30.87" y1="108.67" x2="30.87" y2="73.13"/><line class="g-cls-4" x1="23.46" y1="108.67" x2="23.46" y2="72.92"/><path class="g-cls-4" d="M15.3,82.08c0-5.46,5.15-9.89,11.49-9.89s11.49,4.43,11.49,9.89"/><rect class="g-cls-4" x="15.27" y="174.03" width="23.07" height="26.29"/><line class="g-cls-4" x1="30.87" y1="200.13" x2="30.87" y2="164.6"/><line class="g-cls-4" x1="23.46" y1="200.13" x2="23.46" y2="164.39"/><line class="g-cls-4" x1="15.27" y1="183.04" x2="38.34" y2="183.04"/><line class="g-cls-4" x1="15.27" y1="191.53" x2="38.34" y2="191.53"/><path class="g-cls-4" d="M15.3,173.54c0-5.46,5.15-9.88,11.49-9.88s11.49,4.42,11.49,9.88"/><rect class="g-cls-4" x="52.26" y="120.83" width="23.07" height="26.29"/><line class="g-cls-4" x1="52.26" y1="129.01" x2="75.33" y2="129.01"/><line class="g-cls-4" x1="67.86" y1="146.93" x2="67.86" y2="121.18"/><line class="g-cls-4" x1="60.46" y1="146.93" x2="60.46" y2="120.97"/><rect class="g-cls-4" x="52.26" y="82.57" width="23.07" height="26.29"/><line class="g-cls-4" x1="67.86" y1="108.67" x2="67.86" y2="73.13"/><line class="g-cls-4" x1="60.46" y1="108.67" x2="60.46" y2="72.92"/><path class="g-cls-4" d="M52.3,82.08c0-5.46,5.14-9.89,11.49-9.89s11.49,4.43,11.49,9.89"/><rect class="g-cls-4" x="89.26" y="120.83" width="23.07" height="26.29"/><line class="g-cls-4" x1="89.26" y1="129.01" x2="112.33" y2="129.01"/><line class="g-cls-4" x1="104.86" y1="146.93" x2="104.86" y2="121.18"/><line class="g-cls-4" x1="97.45" y1="146.93" x2="97.45" y2="120.97"/><rect class="g-cls-4" x="89.26" y="82.57" width="23.07" height="26.29"/><line class="g-cls-4" x1="104.86" y1="108.67" x2="104.86" y2="73.13"/><line class="g-cls-4" x1="97.45" y1="108.67" x2="97.45" y2="72.92"/><path class="g-cls-4" d="M89.29,82.08c0-5.46,5.15-9.89,11.49-9.89s11.49,4.43,11.49,9.89"/><rect class="g-cls-4" x="126.25" y="174.03" width="23.07" height="26.29"/><line class="g-cls-4" x1="141.85" y1="200.13" x2="141.85" y2="164.6"/><line class="g-cls-4" x1="134.45" y1="200.13" x2="134.45" y2="164.39"/><line class="g-cls-4" x1="126.25" y1="183.04" x2="149.33" y2="183.04"/><line class="g-cls-4" x1="126.25" y1="191.53" x2="149.33" y2="191.53"/><path class="g-cls-4" d="M126.29,173.54c0-5.46,5.14-9.88,11.49-9.88s11.49,4.42,11.49,9.88"/><rect class="g-cls-4" x="126.25" y="120.83" width="23.07" height="26.29"/><line class="g-cls-4" x1="126.25" y1="129.01" x2="149.33" y2="129.01"/><line class="g-cls-4" x1="141.85" y1="146.93" x2="141.85" y2="121.18"/><line class="g-cls-4" x1="134.45" y1="146.93" x2="134.45" y2="120.97"/><rect class="g-cls-4" x="126.25" y="82.57" width="23.07" height="26.29"/><line class="g-cls-4" x1="141.85" y1="108.67" x2="141.85" y2="73.13"/><line class="g-cls-4" x1="134.45" y1="108.67" x2="134.45" y2="72.92"/><path class="g-cls-4" d="M126.29,82.08c0-5.46,5.14-9.89,11.49-9.89s11.49,4.43,11.49,9.89"/><rect class="g-cls-5" x="46.4" y="215.85" width="71.8" height="4.45"/><rect class="g-cls-6" x="48.47" y="210.09" width="67.65" height="4.38"/><rect class="g-cls-7" x="48.59" y="162.67" width="67.42" height="46.6"/><rect class="g-cls-2" x="46.52" y="184.48" width="46.46" height="2.28" transform="translate(255.37 115.88) rotate(90)"/><rect class="g-cls-2" x="70.7" y="184.48" width="46.46" height="2.28" transform="translate(279.55 91.7) rotate(90)"/><line class="g-cls-8" x1="82.3" x2="82.3" y2="22.96"/><rect class="g-cls-1" x="54.28" y="43.86" width="7.62" height="7.15"/><rect class="g-cls-1" x="63.83" y="43.86" width="7.62" height="7.15"/><rect class="g-cls-1" x="102.02" y="43.86" width="7.62" height="7.15"/><rect class="g-cls-1" x="92.47" y="43.86" width="7.62" height="7.15"/><rect class="g-cls-1" x="73.38" y="43.86" width="7.62" height="7.15"/><rect class="g-cls-1" x="82.92" y="43.86" width="7.62" height="7.15"/><path class="g-cls-1" d="M54.3,40.12c0-13.83,12.54-25,28-25s28,11.21,28,25"/><polyline class="g-cls-1" points="82.45 0.34 96.7 0.34 96.7 7.09 82.48 7.09"/></g></g></svg>