<svg xmlns="http://www.w3.org/2000/svg" width="59" height="79" fill="none"><path fill="#fff" d="M56.05 22.54H2.69v52.11h53.36V22.54Z" style="fill:#fff;fill-opacity:1"/><path fill="#033E80" d="M55.82 22.77v51.65H2.92V22.77h52.9Zm.46-.47H2.46v52.57h53.82V22.3Z" style="fill:#033e80;fill:color(display-p3 .0118 .2431 .502);fill-opacity:1"/><path fill="#fff" d="M58.46 19.7H.27v1.91h58.19V19.7Z" style="fill:#fff;fill-opacity:1"/><path fill="#033E80" d="M58.38 19.78v1.73H.36v-1.73h58.02Zm.18-.17H.19v2.09h58.37v-2.09ZM14.03 53.08h-8.5v-9.63h8.5v9.63Zm-8.14-.35h7.79V43.8H5.89v8.93Z" style="fill:#033e80;fill:color(display-p3 .0118 .2431 .502);fill-opacity:1"/><path fill="#033E80" d="M13.85 46.34H5.71v.35h8.14v-.35Z" style="fill:#033e80;fill:color(display-p3 .0118 .2431 .502);fill-opacity:1"/><path fill="#033E80" d="M11.39 43.75h-.35v9.09h.35v-9.09ZM8.78 43.67h-.35v9.16h.35v-9.16ZM14.03 39.58h-8.5v-9.63h8.5v9.63Zm-8.14-.36h7.79v-8.93H5.89v8.93Z" style="fill:#033e80;fill:color(display-p3 .0118 .2431 .502);fill-opacity:1"/><path fill="#033E80" d="M11.39 26.79h-.35v12.54h.35V26.79ZM8.78 26.72h-.35v12.62h.35V26.72Z" style="fill:#033e80;fill:color(display-p3 .0118 .2431 .502);fill-opacity:1"/><path fill="#033E80" d="M14.01 29.95h-.35c0-1.83-1.74-3.31-3.88-3.31-2.14 0-3.88 1.49-3.88 3.31h-.35c0-2.02 1.9-3.67 4.23-3.67 2.33 0 4.23 1.64 4.23 3.67ZM14.03 71.86h-8.5v-9.63h8.5v9.63Zm-8.14-.35h7.79v-8.93H5.89v8.93Z" style="fill:#033e80;fill:color(display-p3 .0118 .2431 .502);fill-opacity:1"/><path fill="#033E80" d="M11.39 59.07h-.35v12.54h.35V59.07ZM8.78 59h-.35v12.62h.35V59Z" style="fill:#033e80;fill:color(display-p3 .0118 .2431 .502);fill-opacity:1"/><path fill="#033E80" d="M13.85 65.41H5.71v.35h8.14v-.35ZM13.85 68.4H5.71v.35h8.14v-.35ZM14.01 62.23h-.35c0-1.83-1.74-3.31-3.88-3.31-2.14 0-3.88 1.49-3.88 3.31h-.35c0-2.02 1.9-3.67 4.23-3.67 2.33 0 4.23 1.64 4.23 3.67ZM27.09 53.08h-8.5v-9.63h8.5v9.63Zm-8.14-.35h7.79V43.8h-7.79v8.93Z" style="fill:#033e80;fill:color(display-p3 .0118 .2431 .502);fill-opacity:1"/><path fill="#033E80" d="M26.91 46.34h-8.14v.35h8.14v-.35Z" style="fill:#033e80;fill:color(display-p3 .0118 .2431 .502);fill-opacity:1"/><path fill="#033E80" d="M24.45 43.75h-.35v9.09h.35v-9.09ZM21.84 43.67h-.35v9.16h.35v-9.16ZM27.09 39.58h-8.5v-9.63h8.5v9.63Zm-8.14-.36h7.79v-8.93h-7.79v8.93Z" style="fill:#033e80;fill:color(display-p3 .0118 .2431 .502);fill-opacity:1"/><path fill="#033E80" d="M24.45 26.79h-.35v12.54h.35V26.79ZM21.84 26.72h-.35v12.62h.35V26.72Z" style="fill:#033e80;fill:color(display-p3 .0118 .2431 .502);fill-opacity:1"/><path fill="#033E80" d="M27.07 29.95h-.35c0-1.83-1.74-3.31-3.88-3.31-2.14 0-3.88 1.49-3.88 3.31h-.35c0-2.02 1.9-3.67 4.23-3.67 2.33 0 4.23 1.64 4.23 3.67ZM40.15 53.08h-8.5v-9.63h8.5v9.63ZM32 52.73h7.79V43.8H32v8.93Z" style="fill:#033e80;fill:color(display-p3 .0118 .2431 .502);fill-opacity:1"/><path fill="#033E80" d="M39.97 46.34h-8.14v.35h8.14v-.35Z" style="fill:#033e80;fill:color(display-p3 .0118 .2431 .502);fill-opacity:1"/><path fill="#033E80" d="M37.51 43.75h-.35v9.09h.35v-9.09ZM34.89 43.67h-.35v9.16h.35v-9.16ZM40.15 39.58h-8.5v-9.63h8.5v9.63ZM32 39.22h7.79v-8.93H32v8.93Z" style="fill:#033e80;fill:color(display-p3 .0118 .2431 .502);fill-opacity:1"/><path fill="#033E80" d="M37.51 26.79h-.35v12.54h.35V26.79ZM34.89 26.72h-.35v12.62h.35V26.72Z" style="fill:#033e80;fill:color(display-p3 .0118 .2431 .502);fill-opacity:1"/><path fill="#033E80" d="M40.13 29.95h-.35c0-1.83-1.74-3.31-3.88-3.31-2.14 0-3.88 1.49-3.88 3.31h-.35c0-2.02 1.9-3.67 4.23-3.67 2.33 0 4.23 1.64 4.23 3.67ZM53.21 71.86h-8.5v-9.63h8.5v9.63Zm-8.15-.35h7.79v-8.93h-7.79v8.93Z" style="fill:#033e80;fill:color(display-p3 .0118 .2431 .502);fill-opacity:1"/><path fill="#033E80" d="M50.57 59.07h-.35v12.54h.35V59.07ZM47.95 59h-.35v12.62h.35V59Z" style="fill:#033e80;fill:color(display-p3 .0118 .2431 .502);fill-opacity:1"/><path fill="#033E80" d="M53.03 65.41h-8.14v.35h8.14v-.35ZM53.03 68.4h-8.14v.35h8.14v-.35ZM53.19 62.23h-.35c0-1.83-1.74-3.31-3.88-3.31-2.14 0-3.88 1.49-3.88 3.31h-.35c0-2.02 1.9-3.67 4.23-3.67 2.33 0 4.23 1.64 4.23 3.67ZM53.21 53.08h-8.5v-9.63h8.5v9.63Zm-8.15-.35h7.79V43.8h-7.79v8.93Z" style="fill:#033e80;fill:color(display-p3 .0118 .2431 .502);fill-opacity:1"/><path fill="#033E80" d="M53.03 46.34h-8.14v.35h8.14v-.35Z" style="fill:#033e80;fill:color(display-p3 .0118 .2431 .502);fill-opacity:1"/><path fill="#033E80" d="M50.57 43.75h-.35v9.09h.35v-9.09ZM47.95 43.67h-.35v9.16h.35v-9.16ZM53.21 39.58h-8.5v-9.63h8.5v9.63Zm-8.15-.36h7.79v-8.93h-7.79v8.93Z" style="fill:#033e80;fill:color(display-p3 .0118 .2431 .502);fill-opacity:1"/><path fill="#033E80" d="M50.57 26.79h-.35v12.54h.35V26.79ZM47.95 26.72h-.35v12.62h.35V26.72Z" style="fill:#033e80;fill:color(display-p3 .0118 .2431 .502);fill-opacity:1"/><path fill="#033E80" d="M53.19 29.95h-.35c0-1.83-1.74-3.31-3.88-3.31-2.14 0-3.88 1.49-3.88 3.31h-.35c0-2.02 1.9-3.67 4.23-3.67 2.33 0 4.23 1.64 4.23 3.67Z" style="fill:#033e80;fill:color(display-p3 .0118 .2431 .502);fill-opacity:1"/><path fill="#fff" d="M42.04 77.16H16.7v1.57h25.34v-1.57Z" style="fill:#fff;fill-opacity:1"/><path fill="#033E80" d="M42.06 78.76H16.67v-1.62h25.39v1.62Zm-25.33-.05h25.29v-1.52H16.73v1.52Z" style="fill:#033e80;fill:color(display-p3 .0118 .2431 .502);fill-opacity:1"/><path fill="#fff" d="M41.31 75.13H17.43v1.55h23.88v-1.55Z" style="fill:#fff;fill-opacity:1"/><path fill="#033E80" d="M41.33 76.7H17.41v-1.59h23.92v1.59Zm-23.87-.05h23.83v-1.5H17.46v1.5ZM41.44 75.01H17.31V58.22h24.13v16.79Zm-23.8-.34H41.1V58.56H17.64v16.11Z" style="fill:#033e80;fill:color(display-p3 .0118 .2431 .502);fill-opacity:1"/><path fill="#033E80" d="M25.35 74.69v-16.4h-.8v16.4h.8ZM33.88 74.7V58.3h-.8v16.4h.8Z" style="fill:#033e80;fill:color(display-p3 .0118 .2431 .502);fill-opacity:1"/><path fill="#fff" d="M22.25 16.37h-2.86v2.7h2.86v-2.7Z" style="fill:#fff;fill-opacity:1"/><path fill="#033E80" d="M22.17 16.46v2.52h-2.69v-2.52h2.69Zm.18-.18h-3.04v2.87h3.04v-2.87Z" style="fill:#033e80;fill:color(display-p3 .0118 .2431 .502);fill-opacity:1"/><path fill="#fff" d="M25.62 16.37h-2.86v2.7h2.86v-2.7Z" style="fill:#fff;fill-opacity:1"/><path fill="#033E80" d="M25.54 16.46v2.52h-2.69v-2.52h2.69Zm.18-.18h-3.04v2.87h3.04v-2.87Z" style="fill:#033e80;fill:color(display-p3 .0118 .2431 .502);fill-opacity:1"/><path fill="#fff" d="M39.1 16.37h-2.86v2.7h2.86v-2.7Z" style="fill:#fff;fill-opacity:1"/><path fill="#033E80" d="M39.02 16.46v2.52h-2.69v-2.52h2.69Zm.18-.18h-3.04v2.87h3.04v-2.87Z" style="fill:#033e80;fill:color(display-p3 .0118 .2431 .502);fill-opacity:1"/><path fill="#fff" d="M35.73 16.37h-2.86v2.7h2.86v-2.7Z" style="fill:#fff;fill-opacity:1"/><path fill="#033E80" d="M35.65 16.46v2.52h-2.69v-2.52h2.69Zm.18-.18h-3.04v2.87h3.04v-2.87Z" style="fill:#033e80;fill:color(display-p3 .0118 .2431 .502);fill-opacity:1"/><path fill="#fff" d="M28.99 16.37h-2.86v2.7h2.86v-2.7Z" style="fill:#fff;fill-opacity:1"/><path fill="#033E80" d="M28.91 16.46v2.52h-2.69v-2.52h2.69Zm.18-.18h-3.04v2.87h3.04v-2.87Z" style="fill:#033e80;fill:color(display-p3 .0118 .2431 .502);fill-opacity:1"/><path fill="#fff" d="M32.36 16.37H29.5v2.7h2.86v-2.7Z" style="fill:#fff;fill-opacity:1"/><path fill="#033E80" d="M32.28 16.46v2.52h-2.69v-2.52h2.69Zm.18-.18h-3.04v2.87h3.04v-2.87Z" style="fill:#033e80;fill:color(display-p3 .0118 .2431 .502);fill-opacity:1"/><path fill="#fff" d="M19.49 15.14c0-4.88 4.43-8.84 9.88-8.84 5.45 0 9.88 3.96 9.88 8.84H19.48h.01Z" style="fill:#fff;fill-opacity:1"/><path fill="#033E80" d="M39.35 15.23H19.41v-.09c0-4.92 4.47-8.93 9.97-8.93 5.5 0 9.97 4 9.97 8.93v.09Zm-19.77-.18h19.59c-.05-4.78-4.43-8.66-9.8-8.66-5.37 0-9.74 3.88-9.8 8.66h.01Z" style="fill:#033e80;fill:color(display-p3 .0118 .2431 .502);fill-opacity:1"/><path fill="#033E80" d="M29.48 6.39V3.48h4.98V1.1h-4.98V.98h-.22v5.41" style="fill:#033e80;fill:color(display-p3 .0118 .2431 .502);fill-opacity:1"/></svg>
