<svg xmlns="http://www.w3.org/2000/svg" viewBox="0 0 152.5 196"><defs><style>.ho-cls-1,.ho-cls-3{fill:#fff;}.ho-cls-1,.ho-cls-2{stroke:#004181;stroke-miterlimit:10;}.ho-cls-2{fill:none;}.ho-cls-4{fill:#004181;}</style></defs><g id="Layer_2" data-name="Layer 2"><g id="Layer_1-2" data-name="Layer 1"><rect class="ho-cls-1" x="11.19" y="0.5" width="130" height="135.5"/><rect class="ho-cls-2" x="20.7" y="7.5" width="14.69" height="14.68"/><rect class="ho-cls-2" x="44.78" y="7.5" width="14.69" height="14.68"/><rect class="ho-cls-2" x="68.85" y="7.5" width="14.69" height="14.68"/><rect class="ho-cls-2" x="92.92" y="7.5" width="14.69" height="14.68"/><rect class="ho-cls-2" x="117" y="7.5" width="14.69" height="14.68"/><rect class="ho-cls-2" x="20.7" y="33.71" width="14.69" height="14.68"/><rect class="ho-cls-2" x="44.78" y="33.71" width="14.69" height="14.68"/><rect class="ho-cls-2" x="68.85" y="33.71" width="14.69" height="14.68"/><rect class="ho-cls-2" x="92.92" y="33.71" width="14.69" height="14.68"/><rect class="ho-cls-2" x="117" y="33.71" width="14.69" height="14.68"/><rect class="ho-cls-2" x="20.7" y="59.91" width="14.69" height="14.68"/><rect class="ho-cls-2" x="44.78" y="59.91" width="14.69" height="14.68"/><rect class="ho-cls-2" x="68.85" y="59.91" width="14.69" height="14.68"/><rect class="ho-cls-2" x="92.92" y="59.91" width="14.69" height="14.68"/><rect class="ho-cls-2" x="117" y="59.91" width="14.69" height="14.68"/><rect class="ho-cls-2" x="20.7" y="86.12" width="14.69" height="14.68"/><rect class="ho-cls-2" x="59.22" y="86.12" width="14.69" height="14.68"/><rect class="ho-cls-2" x="78.48" y="86.12" width="14.69" height="14.68"/><rect class="ho-cls-2" x="117" y="86.12" width="14.69" height="14.68"/><rect class="ho-cls-2" x="20.7" y="112.32" width="14.69" height="14.68"/><rect class="ho-cls-2" x="59.22" y="112.32" width="14.69" height="14.68"/><rect class="ho-cls-2" x="78.48" y="112.32" width="14.69" height="14.68"/><rect class="ho-cls-2" x="117" y="112.32" width="14.69" height="14.68"/><rect class="ho-cls-3" x="44.09" y="83.88" width="64.22" height="62.23" rx="3.16"/><path class="ho-cls-4" d="M105.14,84.27a2.79,2.79,0,0,1,2.78,2.78V143a2.79,2.79,0,0,1-2.78,2.78H47.25A2.79,2.79,0,0,1,44.47,143V87.05a2.79,2.79,0,0,1,2.78-2.78h57.89m0-.77H47.25a3.55,3.55,0,0,0-3.55,3.55V143a3.55,3.55,0,0,0,3.55,3.55h57.89a3.55,3.55,0,0,0,3.55-3.55V87.05a3.55,3.55,0,0,0-3.55-3.55Z"/><circle class="ho-cls-3" cx="76.19" cy="109.75" r="17.85"/><path class="ho-cls-4" d="M76.19,92.3a17.45,17.45,0,1,1-17.45,17.45A17.47,17.47,0,0,1,76.19,92.3m0-.8a18.25,18.25,0,1,0,18.25,18.25A18.26,18.26,0,0,0,76.19,91.5Z"/><polygon class="ho-cls-3" points="73.8 121.73 73.8 112.15 64.21 112.15 64.21 107.35 73.8 107.35 73.8 97.77 78.59 97.77 78.59 107.35 88.18 107.35 88.18 112.15 78.59 112.15 78.59 121.73 73.8 121.73"/><path class="ho-cls-4" d="M78.19,98.17v9.58h9.59v4H78.19v9.58h-4v-9.58H64.61v-4H74.2V98.17h4m.8-.8H73.4V107H63.81v5.6H73.4v9.58H79v-9.58h9.59V107H79V97.37Z"/><rect class="ho-cls-3" x="0.5" y="132.5" width="151.5" height="63"/><path class="ho-cls-4" d="M151.5,133v62H1V133H151.5m1-1H0v64H152.5V132Z"/><rect class="ho-cls-1" x="20.25" y="162" width="29" height="25"/><rect class="ho-cls-1" x="103.25" y="162" width="29" height="25"/><rect class="ho-cls-3" x="4.69" y="143.5" width="140" height="5"/><path class="ho-cls-4" d="M144.19,144v4H5.19v-4h139m1-1H4.19v6h141v-6Z"/><line class="ho-cls-2" x1="10.19" y1="149" x2="10.19" y2="196"/><line class="ho-cls-2" x1="140.19" y1="149" x2="140.19" y2="196"/><polyline class="ho-cls-2" points="58.75 195.5 58.75 160 93.75 160 93.75 195.5"/><line class="ho-cls-2" x1="75.75" y1="160" x2="75.75" y2="195.5"/></g></g></svg>