<svg xmlns="http://www.w3.org/2000/svg" viewBox="0 0 164.59 168.8"><defs><style>.housing-o-cls-1,.housing-o-cls-4{fill:#fff;}.housing-o-cls-2{fill:#004181;}.housing-o-cls-3{fill:none;}.housing-o-cls-3,.housing-o-cls-4{stroke:#004181;stroke-miterlimit:10;}.housing-o-cls-4{stroke-width:0.21px;}</style></defs><g id="Layer_2" data-name="Layer 2"><g id="Layer_1-2" data-name="Layer 1"><rect class="housing-o-cls-1" x="6.81" y="7.43" width="151.16" height="154.96"/><path class="housing-o-cls-2" d="M157.29,8.1V161.72H7.48V8.1H157.29m1.34-1.34H6.13v156.3h152.5V6.76Z"/><polyline class="housing-o-cls-3" points="64.8 162.56 64.8 129.26 99.8 129.26 99.8 162.56"/><line class="housing-o-cls-3" x1="81.8" y1="129.26" x2="81.8" y2="162.56"/><path class="housing-o-cls-3" d="M152.83,107.62h0Z"/><line class="housing-o-cls-3" x1="143.65" y1="97.92" x2="143.65" y2="117.84"/><rect class="housing-o-cls-3" x="134.65" y="97.95" width="18" height="19.98"/><path class="housing-o-cls-3" d="M131.44,107.62h0Z"/><line class="housing-o-cls-3" x1="122.26" y1="97.92" x2="122.26" y2="117.84"/><rect class="housing-o-cls-3" x="113.26" y="97.95" width="18" height="19.98"/><path class="housing-o-cls-3" d="M102.7,107.62h0Z"/><line class="housing-o-cls-3" x1="93.51" y1="97.92" x2="93.51" y2="117.84"/><rect class="housing-o-cls-3" x="84.51" y="97.95" width="18" height="19.98"/><path class="housing-o-cls-3" d="M81.31,107.62h0Z"/><line class="housing-o-cls-3" x1="72.12" y1="97.92" x2="72.12" y2="117.84"/><rect class="housing-o-cls-3" x="63.12" y="97.95" width="18" height="19.98"/><path class="housing-o-cls-3" d="M52.56,107.62h0Z"/><line class="housing-o-cls-3" x1="43.38" y1="97.92" x2="43.38" y2="117.84"/><rect class="housing-o-cls-3" x="34.38" y="97.95" width="18" height="19.98"/><path class="housing-o-cls-3" d="M31.17,107.62h0Z"/><line class="housing-o-cls-3" x1="21.99" y1="97.92" x2="21.99" y2="117.84"/><rect class="housing-o-cls-3" x="12.99" y="97.95" width="18" height="19.98"/><path class="housing-o-cls-3" d="M152.83,78.68h0Z"/><line class="housing-o-cls-3" x1="143.65" y1="68.98" x2="143.65" y2="88.9"/><rect class="housing-o-cls-3" x="134.65" y="69.01" width="18" height="19.98"/><path class="housing-o-cls-3" d="M131.44,78.68h0Z"/><line class="housing-o-cls-3" x1="122.26" y1="68.98" x2="122.26" y2="88.9"/><rect class="housing-o-cls-3" x="113.26" y="69.01" width="18" height="19.98"/><path class="housing-o-cls-3" d="M102.7,78.68h0Z"/><line class="housing-o-cls-3" x1="93.51" y1="68.98" x2="93.51" y2="88.9"/><rect class="housing-o-cls-3" x="84.51" y="69.01" width="18" height="19.98"/><path class="housing-o-cls-3" d="M81.31,78.68h0Z"/><line class="housing-o-cls-3" x1="72.12" y1="68.98" x2="72.12" y2="88.9"/><rect class="housing-o-cls-3" x="63.12" y="69.01" width="18" height="19.98"/><path class="housing-o-cls-3" d="M52.56,78.68h0Z"/><line class="housing-o-cls-3" x1="43.38" y1="68.98" x2="43.38" y2="88.9"/><rect class="housing-o-cls-3" x="34.38" y="69.01" width="18" height="19.98"/><path class="housing-o-cls-3" d="M31.17,78.68h0Z"/><line class="housing-o-cls-3" x1="21.99" y1="68.98" x2="21.99" y2="88.9"/><rect class="housing-o-cls-3" x="12.99" y="69.01" width="18" height="19.98"/><path class="housing-o-cls-3" d="M152.83,49.9h0Z"/><line class="housing-o-cls-3" x1="143.65" y1="40.2" x2="143.65" y2="60.13"/><rect class="housing-o-cls-3" x="134.65" y="40.23" width="18" height="19.98"/><path class="housing-o-cls-3" d="M131.44,49.9h0Z"/><line class="housing-o-cls-3" x1="122.26" y1="40.2" x2="122.26" y2="60.13"/><rect class="housing-o-cls-3" x="113.26" y="40.23" width="18" height="19.98"/><path class="housing-o-cls-3" d="M102.7,49.9h0Z"/><line class="housing-o-cls-3" x1="93.51" y1="40.2" x2="93.51" y2="60.13"/><rect class="housing-o-cls-3" x="84.51" y="40.23" width="18" height="19.98"/><path class="housing-o-cls-3" d="M81.31,49.9h0Z"/><line class="housing-o-cls-3" x1="72.12" y1="40.2" x2="72.12" y2="60.13"/><rect class="housing-o-cls-3" x="63.12" y="40.23" width="18" height="19.98"/><path class="housing-o-cls-3" d="M52.56,49.9h0Z"/><line class="housing-o-cls-3" x1="43.38" y1="40.2" x2="43.38" y2="60.13"/><rect class="housing-o-cls-3" x="34.38" y="40.23" width="18" height="19.98"/><path class="housing-o-cls-3" d="M31.17,49.9h0Z"/><line class="housing-o-cls-3" x1="21.99" y1="40.2" x2="21.99" y2="60.13"/><rect class="housing-o-cls-3" x="12.99" y="40.23" width="18" height="19.98"/><path class="housing-o-cls-3" d="M152.83,21h0Z"/><line class="housing-o-cls-3" x1="143.65" y1="11.26" x2="143.65" y2="31.18"/><rect class="housing-o-cls-3" x="134.65" y="11.29" width="18" height="19.98"/><path class="housing-o-cls-3" d="M131.44,21h0Z"/><line class="housing-o-cls-3" x1="122.26" y1="11.26" x2="122.26" y2="31.18"/><rect class="housing-o-cls-3" x="113.26" y="11.29" width="18" height="19.98"/><path class="housing-o-cls-3" d="M102.7,21h0Z"/><line class="housing-o-cls-3" x1="93.51" y1="11.26" x2="93.51" y2="31.18"/><rect class="housing-o-cls-3" x="84.51" y="11.29" width="18" height="19.98"/><path class="housing-o-cls-3" d="M81.31,21h0Z"/><line class="housing-o-cls-3" x1="72.12" y1="11.26" x2="72.12" y2="31.18"/><rect class="housing-o-cls-3" x="63.12" y="11.29" width="18" height="19.98"/><path class="housing-o-cls-3" d="M52.56,21h0Z"/><line class="housing-o-cls-3" x1="43.38" y1="11.26" x2="43.38" y2="31.18"/><rect class="housing-o-cls-3" x="34.38" y="11.29" width="18" height="19.98"/><path class="housing-o-cls-3" d="M31.17,21h0Z"/><line class="housing-o-cls-3" x1="21.99" y1="11.26" x2="21.99" y2="31.18"/><rect class="housing-o-cls-3" x="12.99" y="11.29" width="18" height="19.98"/><rect class="housing-o-cls-4" x="0.11" y="0.11" width="164.38" height="4.92"/><rect class="housing-o-cls-4" x="0.11" y="163.78" width="164.38" height="4.92"/></g></g></svg>