<svg xmlns="http://www.w3.org/2000/svg" viewBox="0 0 219.78 347.77"><defs><style>.housing-cls-1{opacity:0.9;}.housing-cls-2{fill:#606060;}.housing-cls-3,.housing-cls-5{fill:#fff;}.housing-cls-3,.housing-cls-4{stroke:#004181;stroke-miterlimit:10;}.housing-cls-4{fill:none;}.housing-cls-6,.housing-cls-7{fill:#004181;}.housing-cls-7{font-size:22px;font-family:Graphik-Medium, Graphik;font-weight:500;}.housing-cls-8{letter-spacing:-0.08em;}.housing-cls-9{letter-spacing:-0.05em;}.housing-cls-10{letter-spacing:-0.08em;}</style></defs><g id="Layer_2" data-name="Layer 2"><g id="Layer_1-2" data-name="Layer 1"><g class="housing-cls-1"><rect class="housing-cls-2" width="219.78" height="251.78" rx="16.59"/></g><rect class="housing-cls-3" x="45.21" y="28.04" width="130" height="135.5"/><rect class="housing-cls-4" x="54.72" y="35.04" width="14.69" height="14.68"/><rect class="housing-cls-4" x="78.79" y="35.04" width="14.69" height="14.68"/><rect class="housing-cls-4" x="102.87" y="35.04" width="14.69" height="14.68"/><rect class="housing-cls-4" x="126.94" y="35.04" width="14.69" height="14.68"/><rect class="housing-cls-4" x="151.01" y="35.04" width="14.69" height="14.68"/><rect class="housing-cls-4" x="54.72" y="61.25" width="14.69" height="14.68"/><rect class="housing-cls-4" x="78.79" y="61.25" width="14.69" height="14.68"/><rect class="housing-cls-4" x="102.87" y="61.25" width="14.69" height="14.68"/><rect class="housing-cls-4" x="126.94" y="61.25" width="14.69" height="14.68"/><rect class="housing-cls-4" x="151.01" y="61.25" width="14.69" height="14.68"/><rect class="housing-cls-4" x="54.72" y="87.45" width="14.69" height="14.68"/><rect class="housing-cls-4" x="78.79" y="87.45" width="14.69" height="14.68"/><rect class="housing-cls-4" x="102.87" y="87.45" width="14.69" height="14.68"/><rect class="housing-cls-4" x="126.94" y="87.45" width="14.69" height="14.68"/><rect class="housing-cls-4" x="151.01" y="87.45" width="14.69" height="14.68"/><rect class="housing-cls-4" x="54.72" y="113.66" width="14.69" height="14.68"/><rect class="housing-cls-4" x="93.24" y="113.66" width="14.69" height="14.68"/><rect class="housing-cls-4" x="112.5" y="113.66" width="14.69" height="14.68"/><rect class="housing-cls-4" x="151.01" y="113.66" width="14.69" height="14.68"/><rect class="housing-cls-4" x="54.72" y="139.87" width="14.69" height="14.68"/><rect class="housing-cls-4" x="93.24" y="139.87" width="14.69" height="14.68"/><rect class="housing-cls-4" x="112.5" y="139.87" width="14.69" height="14.68"/><rect class="housing-cls-4" x="151.01" y="139.87" width="14.69" height="14.68"/><rect class="housing-cls-5" x="78.1" y="111.43" width="64.22" height="62.23" rx="3.16"/><path class="housing-cls-6" d="M139.15,111.81a2.78,2.78,0,0,1,2.78,2.78v55.9a2.77,2.77,0,0,1-2.78,2.78H81.27a2.77,2.77,0,0,1-2.78-2.78v-55.9a2.78,2.78,0,0,1,2.78-2.78h57.88m0-.77H81.27a3.55,3.55,0,0,0-3.55,3.55v55.9A3.55,3.55,0,0,0,81.27,174h57.88a3.55,3.55,0,0,0,3.55-3.55v-55.9a3.55,3.55,0,0,0-3.55-3.55Z"/><circle class="housing-cls-5" cx="110.21" cy="137.29" r="17.85"/><path class="housing-cls-6" d="M110.21,119.84a17.45,17.45,0,1,1-17.45,17.45,17.47,17.47,0,0,1,17.45-17.45m0-.8a18.25,18.25,0,1,0,18.25,18.25A18.25,18.25,0,0,0,110.21,119Z"/><polygon class="housing-cls-5" points="107.81 149.28 107.81 139.69 98.23 139.69 98.23 134.89 107.81 134.89 107.81 125.31 112.61 125.31 112.61 134.89 122.19 134.89 122.19 139.69 112.61 139.69 112.61 149.28 107.81 149.28"/><path class="housing-cls-6" d="M112.21,125.71v9.58h9.59v4h-9.59v9.59h-4v-9.59H98.63v-4h9.58v-9.58h4m.8-.8h-5.6v9.58H97.83v5.6h9.58v9.58H113v-9.58h9.58v-5.6H113v-9.58Z"/><rect class="housing-cls-5" x="34.52" y="160.04" width="151.5" height="63"/><path class="housing-cls-6" d="M185.52,160.54v62H35v-62h150.5m1-1H34v64h152.5v-64Z"/><rect class="housing-cls-3" x="54.27" y="189.54" width="29" height="25"/><rect class="housing-cls-3" x="137.27" y="189.54" width="29" height="25"/><rect class="housing-cls-5" x="38.7" y="171.04" width="140" height="5"/><path class="housing-cls-6" d="M178.2,171.54v4H39.2v-4h139m1-1H38.2v6h141v-6Z"/><line class="housing-cls-4" x1="44.2" y1="176.54" x2="44.2" y2="223.54"/><line class="housing-cls-4" x1="174.2" y1="176.54" x2="174.2" y2="223.54"/><polyline class="housing-cls-4" points="92.77 223.04 92.77 187.54 127.77 187.54 127.77 223.04"/><line class="housing-cls-4" x1="109.77" y1="187.54" x2="109.77" y2="223.04"/><text class="housing-cls-7" transform="translate(32.54 290.35)">MU<tspan class="housing-cls-8" x="35.49" y="0">L</tspan><tspan x="45.85" y="0">TI-</tspan><tspan class="housing-cls-9" x="73.79" y="0">F</tspan><tspan x="84.88" y="0">AMI</tspan><tspan class="housing-cls-10" x="126.68" y="0">L</tspan><tspan x="136.93" y="0">Y </tspan><tspan x="23.13" y="26.4">HOUSING</tspan></text></g></g></svg>