<svg xmlns="http://www.w3.org/2000/svg" viewBox="0 0 182.85 159.97"><defs><style>.ind-cls-1,.ind-cls-3,.ind-cls-4{fill:#fff;}.ind-cls-2{fill:#004181;}.ind-cls-3,.ind-cls-4,.ind-cls-5{stroke:#004181;stroke-miterlimit:10;}.ind-cls-3{stroke-width:0.23px;}.ind-cls-4{stroke-width:0.86px;}.ind-cls-5{fill:none;}</style></defs><g id="Layer_2" data-name="Layer 2"><g id="Layer_1-2" data-name="Layer 1"><polygon class="ind-cls-1" points="15.83 158.73 15.83 35.68 91.43 11.13 167.02 35.68 167.02 158.73 15.83 158.73"/><path class="ind-cls-2" d="M91.43,11.82l74.94,24.33V158.07H16.48V36.15l75-24.33m0-1.38L15.18,35.2V159.38h152.5V35.2L91.43,10.44Z"/><polygon class="ind-cls-3" points="182.74 37.1 91.42 5.04 0.11 37.1 0.11 34.64 0.11 32.18 91.42 0.12 182.74 32.18 182.74 34.64 182.74 37.1"/><rect class="ind-cls-4" x="49.85" y="145.26" width="11.42" height="10.59"/><rect class="ind-cls-4" x="61.22" y="145.26" width="11.42" height="10.59"/><rect class="ind-cls-4" x="72.59" y="145.26" width="11.42" height="10.59"/><rect class="ind-cls-4" x="83.96" y="145.26" width="11.42" height="10.59"/><rect class="ind-cls-4" x="49.85" y="134.6" width="11.42" height="10.59"/><rect class="ind-cls-4" x="61.22" y="134.6" width="11.42" height="10.59"/><rect class="ind-cls-4" x="72.59" y="134.6" width="11.42" height="10.59"/><rect class="ind-cls-4" x="83.96" y="134.6" width="11.42" height="10.59"/><rect class="ind-cls-4" x="49.85" y="123.94" width="11.42" height="10.59"/><rect class="ind-cls-4" x="61.22" y="123.94" width="11.42" height="10.59"/><rect class="ind-cls-4" x="72.59" y="123.94" width="11.42" height="10.59"/><rect class="ind-cls-4" x="49.85" y="113.29" width="11.42" height="10.59"/><rect class="ind-cls-4" x="61.22" y="113.29" width="11.42" height="10.59"/><rect class="ind-cls-4" x="49.85" y="102.65" width="11.42" height="10.59"/><rect class="ind-cls-4" x="61.22" y="102.65" width="11.42" height="10.59"/><rect class="ind-cls-5" x="41.53" y="86.08" width="99.79" height="73.39"/><line class="ind-cls-5" x1="91.06" y1="46.01" x2="91.06" y2="67.14"/><line class="ind-cls-5" x1="42" y1="56.11" x2="91.57" y2="56.11"/><line class="ind-cls-5" x1="42" y1="45.66" x2="91.57" y2="45.66"/><line class="ind-cls-5" x1="42" y1="67.31" x2="91.57" y2="67.31"/><line class="ind-cls-5" x1="78.93" y1="46.36" x2="78.93" y2="67.49"/><line class="ind-cls-5" x1="66.79" y1="46.36" x2="66.79" y2="67.49"/><line class="ind-cls-5" x1="54.66" y1="46.36" x2="54.66" y2="67.49"/><line class="ind-cls-5" x1="42.52" y1="46.01" x2="42.52" y2="67.14"/><line class="ind-cls-5" x1="140.35" y1="46.01" x2="140.35" y2="67.14"/><line class="ind-cls-5" x1="91.28" y1="56.11" x2="140.85" y2="56.11"/><line class="ind-cls-5" x1="91.28" y1="45.66" x2="140.85" y2="45.66"/><line class="ind-cls-5" x1="91.28" y1="67.31" x2="140.85" y2="67.31"/><line class="ind-cls-5" x1="128.21" y1="46.36" x2="128.21" y2="67.49"/><line class="ind-cls-5" x1="116.08" y1="46.36" x2="116.08" y2="67.49"/><line class="ind-cls-5" x1="103.94" y1="46.36" x2="103.94" y2="67.49"/><line class="ind-cls-5" x1="91.8" y1="46.01" x2="91.8" y2="67.14"/></g></g></svg>