<svg xmlns="http://www.w3.org/2000/svg" viewBox="0 0 219.78 349.11"><defs><style>.indu-cls-1{opacity:0.9;}.indu-cls-2{fill:#606060;}.indu-cls-3,.indu-cls-5,.indu-cls-6{fill:#fff;}.indu-cls-4,.indu-cls-8{fill:#004181;}.indu-cls-5,.indu-cls-6,.indu-cls-7{stroke:#004181;stroke-miterlimit:10;}.indu-cls-5{stroke-width:0.23px;}.indu-cls-6{stroke-width:0.86px;}.indu-cls-7{fill:none;}.indu-cls-8{font-size:22px;font-family:Graphik-Medium, Graphik;font-weight:500;}.indu-cls-9{letter-spacing:-0.02em;}</style></defs><g id="Layer_2" data-name="Layer 2"><g id="Layer_1-2" data-name="Layer 1"><g class="indu-cls-1"><rect class="indu-cls-2" width="219.78" height="251.78" rx="16.59"/></g><polygon class="indu-cls-3" points="34.3 227.14 34.3 104.09 109.89 79.54 185.49 104.09 185.49 227.14 34.3 227.14"/><path class="indu-cls-4" d="M109.89,80.23l74.94,24.33V226.48H35V104.56l74.94-24.33m0-1.38L33.64,103.61V227.79h152.5V103.61L109.89,78.85Z"/><polygon class="indu-cls-5" points="201.2 105.51 109.89 73.44 18.58 105.51 18.58 103.05 18.58 100.59 109.89 68.53 201.2 100.59 201.2 103.05 201.2 105.51"/><rect class="indu-cls-6" x="68.32" y="213.67" width="11.42" height="10.59"/><rect class="indu-cls-6" x="79.69" y="213.67" width="11.42" height="10.59"/><rect class="indu-cls-6" x="91.06" y="213.67" width="11.42" height="10.59"/><rect class="indu-cls-6" x="102.42" y="213.67" width="11.42" height="10.59"/><rect class="indu-cls-6" x="68.32" y="203.01" width="11.42" height="10.59"/><rect class="indu-cls-6" x="79.69" y="203.01" width="11.42" height="10.59"/><rect class="indu-cls-6" x="91.06" y="203.01" width="11.42" height="10.59"/><rect class="indu-cls-6" x="102.42" y="203.01" width="11.42" height="10.59"/><rect class="indu-cls-6" x="68.32" y="192.35" width="11.42" height="10.59"/><rect class="indu-cls-6" x="79.69" y="192.35" width="11.42" height="10.59"/><rect class="indu-cls-6" x="91.06" y="192.35" width="11.42" height="10.59"/><rect class="indu-cls-6" x="68.32" y="181.7" width="11.42" height="10.59"/><rect class="indu-cls-6" x="79.69" y="181.7" width="11.42" height="10.59"/><rect class="indu-cls-6" x="68.32" y="171.06" width="11.42" height="10.59"/><rect class="indu-cls-6" x="79.69" y="171.06" width="11.42" height="10.59"/><rect class="indu-cls-7" x="59.99" y="154.49" width="99.79" height="73.39"/><line class="indu-cls-7" x1="109.53" y1="114.42" x2="109.53" y2="135.55"/><line class="indu-cls-7" x1="60.46" y1="124.52" x2="110.03" y2="124.52"/><line class="indu-cls-7" x1="60.46" y1="114.07" x2="110.03" y2="114.07"/><line class="indu-cls-7" x1="60.46" y1="135.72" x2="110.03" y2="135.72"/><line class="indu-cls-7" x1="97.39" y1="114.77" x2="97.39" y2="135.9"/><line class="indu-cls-7" x1="85.26" y1="114.77" x2="85.26" y2="135.9"/><line class="indu-cls-7" x1="73.12" y1="114.77" x2="73.12" y2="135.9"/><line class="indu-cls-7" x1="60.98" y1="114.42" x2="60.98" y2="135.55"/><line class="indu-cls-7" x1="158.81" y1="114.42" x2="158.81" y2="135.55"/><line class="indu-cls-7" x1="109.75" y1="124.52" x2="159.32" y2="124.52"/><line class="indu-cls-7" x1="109.75" y1="114.07" x2="159.32" y2="114.07"/><line class="indu-cls-7" x1="109.75" y1="135.72" x2="159.32" y2="135.72"/><line class="indu-cls-7" x1="146.68" y1="114.77" x2="146.68" y2="135.9"/><line class="indu-cls-7" x1="134.54" y1="114.77" x2="134.54" y2="135.9"/><line class="indu-cls-7" x1="122.4" y1="114.77" x2="122.4" y2="135.9"/><line class="indu-cls-7" x1="110.27" y1="114.42" x2="110.27" y2="135.55"/><text class="indu-cls-8" transform="translate(44.96 291.69)">INDU<tspan class="indu-cls-9" x="54.76" y="0">S</tspan><tspan x="68.29" y="0">TRIAL</tspan></text></g></g></svg>