<svg xmlns="http://www.w3.org/2000/svg" viewBox="0 0 339.65 144.19"><defs><style>.ligh-logo-cls-1,.ligh-logo-cls-2{fill:#fff;}.ligh-logo-cls-2{isolation:isolate;font-size:70.22px;font-family:IowanOldStyle-Roman, Iowan Old Style;letter-spacing:-0.02em;}.ligh-logo-cls-3{letter-spacing:-0.06em;}.ligh-logo-cls-4{letter-spacing:-0.08em;}.ligh-logo-cls-5{letter-spacing:-0.04em;}</style></defs><g id="Layer_2" data-name="Layer 2"><g id="TYPE"><polygon class="ligh-logo-cls-1" points="140.71 67.51 132.66 67.51 132.28 68.13 137.91 72.27 140.01 72.82 148.36 72.41 148.72 71.79 142.81 68.08 140.71 67.51"/><polygon class="ligh-logo-cls-1" points="129.06 67.51 121 67.51 120.58 68.2 125.83 72.83 127.88 73.45 136.26 73.01 136.67 72.32 131.1 68.14 129.06 67.51"/><polygon class="ligh-logo-cls-1" points="105.75 67.51 97.69 67.51 97.14 68.36 101.58 74.03 103.51 74.8 111.94 74.32 112.48 73.47 107.67 68.29 105.75 67.51"/><polygon class="ligh-logo-cls-1" points="117.4 67.51 109.35 67.51 108.86 68.28 113.72 73.41 115.71 74.11 124.11 73.65 124.59 72.88 119.39 68.22 117.4 67.51"/><polygon class="ligh-logo-cls-1" points="94.09 67.51 86.04 67.51 85.42 68.44 89.41 74.67 91.28 75.52 99.72 75.02 100.33 74.08 95.96 68.37 94.09 67.51"/><polygon class="ligh-logo-cls-1" points="82.44 67.51 74.38 67.51 73.7 68.53 77.2 75.33 79 76.27 87.48 75.75 88.16 74.73 84.23 68.46 82.44 67.51"/><polygon class="ligh-logo-cls-1" points="176.3 88.11 166.86 89.97 166.37 90.8 172.62 94.39 175.02 94.56 184.76 92.29 185.23 91.48 178.69 88.32 176.3 88.11"/><polygon class="ligh-logo-cls-1" points="162.62 90.83 153.05 92.8 152.49 93.72 158.35 97.8 160.72 98.03 170.62 95.62 171.16 94.72 164.97 91.09 162.62 90.83"/><polygon class="ligh-logo-cls-1" points="134.71 96.73 124.91 98.92 124.18 100.03 129.17 105.2 131.46 105.56 141.66 102.87 142.37 101.78 136.99 97.12 134.71 96.73"/><polygon class="ligh-logo-cls-1" points="148.75 93.7 139.07 95.78 138.43 96.79 143.87 101.4 146.2 101.69 156.25 99.14 156.88 98.15 151.07 94.03 148.75 93.7"/><polygon class="ligh-logo-cls-1" points="120.5 99.92 110.57 102.22 109.75 103.43 114.25 109.2 116.49 109.62 126.84 106.8 127.65 105.59 122.72 100.38 120.5 99.92"/><polygon class="ligh-logo-cls-1" points="106.12 103.27 96.06 105.67 95.15 106.99 99.12 113.38 101.3 113.88 111.82 110.92 112.72 109.61 108.28 103.8 106.12 103.27"/><polygon class="ligh-logo-cls-1" points="167.06 83.27 157.97 84.66 157.51 85.44 163.6 89.16 165.93 89.43 175.32 87.62 175.77 86.86 169.38 83.57 167.06 83.27"/><polygon class="ligh-logo-cls-1" points="153.89 85.3 144.71 86.77 144.18 87.63 149.89 91.85 152.18 92.18 161.69 90.27 162.2 89.42 156.17 85.66 153.89 85.3"/><polygon class="ligh-logo-cls-1" points="127.16 89.71 117.8 91.34 117.12 92.39 121.97 97.68 124.17 98.14 133.91 96.01 134.58 94.98 129.34 90.2 127.16 89.71"/><polygon class="ligh-logo-cls-1" points="140.59 87.45 131.32 89 130.72 89.95 136.01 94.69 138.26 95.08 147.89 93.06 148.48 92.13 142.82 87.87 140.59 87.45"/><polygon class="ligh-logo-cls-1" points="113.6 92.08 104.16 93.79 103.39 94.94 107.76 100.82 109.9 101.35 119.77 99.12 120.52 97.99 115.73 92.65 113.6 92.08"/><polygon class="ligh-logo-cls-1" points="99.92 94.57 90.38 96.36 89.53 97.61 93.39 104.1 95.47 104.71 105.46 102.37 106.3 101.14 101.99 95.21 99.92 94.57"/><polygon class="ligh-logo-cls-1" points="158.05 78.22 149.31 79.14 148.88 79.87 154.81 83.73 157.07 84.09 166.11 82.75 166.53 82.04 160.3 78.61 158.05 78.22"/><polygon class="ligh-logo-cls-1" points="145.39 79.57 136.59 80.55 136.09 81.36 141.65 85.71 143.86 86.13 152.99 84.71 153.47 83.92 147.59 80.02 145.39 79.57"/><polygon class="ligh-logo-cls-1" points="119.81 82.5 110.89 83.58 110.26 84.56 114.97 89.98 117.08 90.54 126.38 88.97 127 88 121.91 83.09 119.81 82.5"/><polygon class="ligh-logo-cls-1" points="132.64 81 123.78 82.03 123.22 82.92 128.37 87.79 130.53 88.28 139.74 86.79 140.29 85.91 134.79 81.52 132.64 81"/><polygon class="ligh-logo-cls-1" points="106.9 84.07 97.93 85.2 97.21 86.27 101.45 92.27 103.5 92.91 112.89 91.26 113.59 90.2 108.94 84.74 106.9 84.07"/><polygon class="ligh-logo-cls-1" points="93.91 85.72 84.88 86.9 84.08 88.07 87.82 94.67 89.81 95.38 99.28 93.66 100.06 92.5 95.89 86.46 93.91 85.72"/><polygon class="ligh-logo-cls-1" points="149.27 72.96 140.87 73.43 140.47 74.1 146.25 78.1 148.43 78.56 157.12 77.68 157.51 77.02 151.44 73.44 149.27 72.96"/><polygon class="ligh-logo-cls-1" points="137.11 73.64 128.68 74.13 128.23 74.88 133.63 79.37 135.76 79.89 144.51 78.96 144.96 78.22 139.23 74.19 137.11 73.64"/><polygon class="ligh-logo-cls-1" points="112.67 75.1 104.19 75.63 103.6 76.55 108.17 82.09 110.19 82.76 119.05 81.74 119.64 80.83 114.69 75.79 112.67 75.1"/><polygon class="ligh-logo-cls-1" points="124.91 74.35 116.46 74.86 115.94 75.69 120.94 80.7 123.02 81.29 131.82 80.31 132.33 79.5 126.98 74.97 124.91 74.35"/><polygon class="ligh-logo-cls-1" points="100.39 75.88 91.89 76.44 91.23 77.44 95.34 83.55 97.3 84.3 106.21 83.23 106.86 82.23 102.35 76.65 100.39 75.88"/><polygon class="ligh-logo-cls-1" points="88.08 76.69 79.54 77.28 78.81 78.38 82.43 85.08 84.32 85.9 93.29 84.79 94.02 83.7 89.97 77.54 88.08 76.69"/><polygon class="ligh-logo-cls-1" points="69.53 67.51 61.48 67.51 60.71 68.63 63.65 76.11 65.37 77.14 73.88 76.59 74.64 75.47 71.25 68.55 69.53 67.51"/><polygon class="ligh-logo-cls-1" points="57.88 67.51 49.82 67.51 48.98 68.72 51.38 76.83 53.03 77.96 61.55 77.39 62.4 76.17 59.52 68.64 57.88 67.51"/><polygon class="ligh-logo-cls-1" points="34.57 67.51 26.51 67.51 25.5 68.92 26.76 78.37 28.23 79.69 36.81 79.08 37.83 77.65 36.05 68.84 34.57 67.51"/><polygon class="ligh-logo-cls-1" points="46.22 67.51 38.17 67.51 37.24 68.82 39.09 77.59 40.65 78.81 49.2 78.22 50.13 76.9 47.78 68.74 46.22 67.51"/><polygon class="ligh-logo-cls-1" points="22.91 67.51 14.86 67.51 13.75 69.02 14.4 79.18 15.78 80.6 24.38 79.97 25.5 78.44 24.3 68.94 22.91 67.51"/><polygon class="ligh-logo-cls-1" points="11.26 67.51 3.2 67.51 2 69.13 2 80.01 3.3 81.55 11.92 80.89 13.13 79.25 12.56 69.04 11.26 67.51"/><polygon class="ligh-logo-cls-1" points="89.97 107.15 79.79 109.68 78.76 111.13 82.11 118.24 84.23 118.83 94.9 115.71 95.92 114.27 92.07 107.77 89.97 107.15"/><polygon class="ligh-logo-cls-1" points="75.21 110.83 64.91 113.46 63.77 115.03 66.52 122.83 68.57 123.5 79.4 120.25 80.53 118.69 77.24 111.53 75.21 110.83"/><polygon class="ligh-logo-cls-1" points="45.16 118.65 34.61 121.5 33.25 123.32 34.7 132.6 36.59 133.45 47.73 129.93 49.09 128.11 47.05 119.53 45.16 118.65"/><polygon class="ligh-logo-cls-1" points="60.27 114.66 49.85 117.4 48.6 119.09 50.72 127.62 52.69 128.38 63.67 124.99 64.92 123.3 62.24 115.44 60.27 114.66"/><polygon class="ligh-logo-cls-1" points="29.87 122.8 19.2 125.75 17.72 127.7 18.46 137.77 20.27 138.72 31.56 135.06 33.05 133.11 31.68 123.77 29.87 122.8"/><polygon class="ligh-logo-cls-1" points="14.41 127.09 3.62 130.16 2 132.25 2 143.14 3.73 144.19 15.18 140.39 16.79 138.3 16.13 128.17 14.41 127.09"/><polygon class="ligh-logo-cls-1" points="84.61 97.46 74.98 99.34 74.02 100.7 77.28 107.91 79.29 108.61 89.4 106.15 90.35 104.8 86.61 98.19 84.61 97.46"/><polygon class="ligh-logo-cls-1" points="70.66 100.19 60.94 102.14 59.88 103.62 62.55 111.5 64.49 112.29 74.72 109.73 75.78 108.26 72.59 101 70.66 100.19"/><polygon class="ligh-logo-cls-1" points="42.37 105.99 32.48 108.1 31.21 109.81 32.61 119.14 34.4 120.11 44.86 117.34 46.13 115.62 44.15 106.98 42.37 105.99"/><polygon class="ligh-logo-cls-1" points="56.58 103.03 46.77 105.06 45.61 106.66 47.66 115.25 49.53 116.12 59.88 113.46 61.04 111.87 58.44 103.93 56.58 103.03"/><polygon class="ligh-logo-cls-1" points="28.04 109.06 18.06 111.24 16.67 113.08 17.39 123.17 19.09 124.24 29.67 121.37 31.07 119.53 29.74 110.15 28.04 109.06"/><polygon class="ligh-logo-cls-1" points="13.58 112.24 3.51 114.5 2 116.47 2 127.36 3.61 128.53 14.32 125.55 15.83 123.58 15.19 113.44 13.58 112.24"/><polygon class="ligh-logo-cls-1" points="79.42 87.63 70.33 88.86 69.44 90.14 72.59 97.44 74.5 98.25 84.06 96.45 84.95 95.17 81.33 88.46 79.42 87.63"/><polygon class="ligh-logo-cls-1" points="66.25 89.42 57.11 90.71 56.12 92.1 58.7 100.06 60.54 100.96 70.19 99.08 71.17 97.69 68.09 90.35 66.25 89.42"/><polygon class="ligh-logo-cls-1" points="39.68 93.24 30.42 94.63 29.24 96.24 30.59 105.61 32.27 106.7 42.08 104.67 43.27 103.05 41.36 94.36 39.68 93.24"/><polygon class="ligh-logo-cls-1" points="53.01 91.3 43.8 92.64 42.72 94.13 44.71 102.78 46.47 103.77 56.2 101.82 57.28 100.32 54.77 92.31 53.01 91.3"/><polygon class="ligh-logo-cls-1" points="26.27 95.26 16.95 96.7 15.66 98.43 16.36 108.54 17.95 109.73 27.85 107.63 29.14 105.89 27.86 96.47 26.27 95.26"/><polygon class="ligh-logo-cls-1" points="12.78 97.35 3.4 98.84 2 100.69 2 111.58 3.5 112.87 13.49 110.69 14.9 108.83 14.28 98.67 12.78 97.35"/><polygon class="ligh-logo-cls-1" points="74.39 77.64 65.83 78.25 65 79.45 68.05 86.84 69.86 87.76 78.88 86.59 79.71 85.4 76.2 78.58 74.39 77.64"/><polygon class="ligh-logo-cls-1" points="61.99 78.53 53.4 79.17 52.49 80.47 54.98 88.5 56.72 89.52 65.8 88.3 66.72 87 63.73 79.56 61.99 78.53"/><polygon class="ligh-logo-cls-1" points="37.08 80.42 28.43 81.1 27.33 82.61 28.64 92.02 30.21 93.23 39.4 91.91 40.5 90.4 38.65 81.64 37.08 80.42"/><polygon class="ligh-logo-cls-1" points="49.55 79.46 40.94 80.12 39.93 81.52 41.85 90.23 43.51 91.34 52.64 90.07 53.65 88.67 51.22 80.58 49.55 79.46"/><polygon class="ligh-logo-cls-1" points="24.56 81.41 15.89 82.12 14.69 83.74 15.36 93.88 16.85 95.18 26.08 93.83 27.29 92.2 26.05 82.74 24.56 81.41"/><polygon class="ligh-logo-cls-1" points="12.01 82.44 3.3 83.18 2 84.91 2 95.8 3.4 97.21 12.69 95.8 14 94.06 13.4 83.87 12.01 82.44"/><polygon class="ligh-logo-cls-1" points="283.07 67.51 275.01 67.51 275 67.53 282.95 67.68 285.36 67.68 293.41 67.53 293.43 67.51 285.48 67.51 283.07 67.51"/><polygon class="ligh-logo-cls-1" points="271.42 67.51 263.36 67.51 263.34 67.56 271.25 67.9 273.65 67.93 281.73 67.75 281.75 67.7 273.82 67.53 271.42 67.51"/><polygon class="ligh-logo-cls-1" points="248.11 67.51 240.05 67.51 240 67.63 247.76 68.43 250.14 68.51 258.27 68.29 258.31 68.18 250.49 67.6 248.11 67.51"/><polygon class="ligh-logo-cls-1" points="259.76 67.51 251.71 67.51 251.67 67.59 259.52 68.15 261.92 68.2 270.02 68.01 270.05 67.93 262.16 67.56 259.76 67.51"/><polygon class="ligh-logo-cls-1" points="236.45 67.51 228.4 67.51 228.33 67.67 235.96 68.73 238.34 68.85 246.49 68.61 246.55 68.46 238.82 67.64 236.45 67.51"/><polygon class="ligh-logo-cls-1" points="224.8 67.51 216.74 67.51 216.65 67.72 224.14 69.06 226.49 69.22 234.68 68.96 234.75 68.76 227.15 67.68 224.8 67.51"/><polygon class="ligh-logo-cls-1" points="329.29 67.58 321.33 68.12 321.34 68.22 329.39 68.29 331.78 68.2 339.65 67.59 339.63 67.51 331.68 67.51 329.29 67.58"/><polygon class="ligh-logo-cls-1" points="317.75 68.38 309.68 69.03 309.67 69.16 317.77 69.34 320.19 69.25 328.21 68.5 328.2 68.39 320.17 68.31 317.75 68.38"/><polygon class="ligh-logo-cls-1" points="294.15 70.46 285.83 71.32 285.79 71.53 293.88 72.03 296.35 71.94 304.68 70.92 304.7 70.73 296.61 70.39 294.15 70.46"/><polygon class="ligh-logo-cls-1" points="306.04 69.34 297.84 70.1 297.82 70.27 305.93 70.59 308.38 70.49 316.56 69.61 316.56 69.46 308.48 69.27 306.04 69.34"/><polygon class="ligh-logo-cls-1" points="282.08 71.73 273.64 72.7 273.57 72.96 281.61 73.66 284.09 73.58 292.57 72.42 292.63 72.19 284.56 71.67 282.08 71.73"/><polygon class="ligh-logo-cls-1" points="269.84 73.16 261.27 74.24 261.17 74.55 269.12 75.49 271.62 75.42 280.26 74.13 280.34 73.84 272.32 73.12 269.84 73.16"/><polygon class="ligh-logo-cls-1" points="317.73 67.57 309.71 68 309.71 68.09 317.73 68.18 320.13 68.11 328.08 67.58 328.08 67.51 320.13 67.51 317.73 67.57"/><polygon class="ligh-logo-cls-1" points="306.11 68.22 298 68.73 297.99 68.85 306.04 69.07 308.46 69 316.53 68.37 316.54 68.27 308.53 68.16 306.11 68.22"/><polygon class="ligh-logo-cls-1" points="282.48 69.86 274.2 70.53 274.16 70.72 282.17 71.29 284.62 71.24 292.92 70.4 292.96 70.22 284.94 69.82 282.48 69.86"/><polygon class="ligh-logo-cls-1" points="294.36 68.98 286.17 69.57 286.14 69.73 294.19 70.11 296.63 70.05 304.81 69.31 304.83 69.17 296.8 68.93 294.36 68.98"/><polygon class="ligh-logo-cls-1" points="270.48 70.84 262.11 71.59 262.04 71.83 269.98 72.63 272.44 72.59 280.86 71.64 280.92 71.42 272.94 70.83 270.48 70.84"/><polygon class="ligh-logo-cls-1" points="258.36 71.95 249.89 72.78 249.79 73.06 257.63 74.11 260.09 74.09 268.64 73.04 268.72 72.77 260.81 71.95 258.36 71.95"/><polygon class="ligh-logo-cls-1" points="306.17 67.55 298.12 67.86 298.11 67.93 306.11 68.04 308.51 67.99 316.52 67.57 316.53 67.51 308.58 67.51 306.17 67.55"/><polygon class="ligh-logo-cls-1" points="294.5 68.02 286.39 68.38 286.38 68.48 294.38 68.74 296.8 68.7 304.89 68.2 304.91 68.11 296.93 67.98 294.5 68.02"/><polygon class="ligh-logo-cls-1" points="270.92 69.16 262.7 69.63 262.65 69.8 270.57 70.45 273.01 70.44 281.27 69.79 281.31 69.63 273.36 69.17 270.92 69.16"/><polygon class="ligh-logo-cls-1" points="282.75 68.55 274.59 68.97 274.56 69.1 282.54 69.54 284.96 69.51 293.14 68.94 293.17 68.82 285.19 68.54 282.75 68.55"/><polygon class="ligh-logo-cls-1" points="259.01 69.85 250.73 70.36 250.66 70.58 258.5 71.46 260.93 71.47 269.28 70.75 269.34 70.55 261.44 69.88 259.01 69.85"/><polygon class="ligh-logo-cls-1" points="247.02 70.6 238.68 71.17 238.58 71.43 246.3 72.57 248.72 72.61 257.17 71.81 257.25 71.57 249.44 70.66 247.02 70.6"/><polygon class="ligh-logo-cls-1" points="294.62 67.53 286.55 67.7 286.54 67.75 294.52 67.88 296.92 67.85 304.97 67.55 304.98 67.51 297.03 67.51 294.62 67.53"/><polygon class="ligh-logo-cls-1" points="282.94 67.78 274.85 67.97 274.83 68.05 282.79 68.35 285.19 68.34 293.3 67.99 293.32 67.92 285.36 67.78 282.94 67.78"/><polygon class="ligh-logo-cls-1" points="259.46 68.38 251.31 68.62 251.27 68.77 259.11 69.49 261.51 69.53 269.72 69.09 269.77 68.95 261.88 68.43 259.46 68.38"/><polygon class="ligh-logo-cls-1" points="271.22 68.06 263.1 68.28 263.07 68.39 270.98 68.89 273.39 68.9 281.55 68.5 281.58 68.4 273.64 68.08 271.22 68.06"/><polygon class="ligh-logo-cls-1" points="247.67 68.73 239.49 69 239.42 69.19 247.16 70.16 249.56 70.22 257.82 69.74 257.88 69.56 250.07 68.81 247.67 68.73"/><polygon class="ligh-logo-cls-1" points="235.84 69.12 227.63 69.41 227.53 69.65 235.14 70.89 237.53 70.99 245.84 70.45 245.93 70.23 238.22 69.24 235.84 69.12"/><polygon class="ligh-logo-cls-1" points="211.89 67.51 203.84 67.51 203.71 67.77 211.01 69.46 213.34 69.67 221.54 69.38 221.65 69.14 214.22 67.73 211.89 67.51"/><polygon class="ligh-logo-cls-1" points="200.24 67.51 192.18 67.51 192.03 67.82 199.12 69.85 201.42 70.1 209.65 69.8 209.79 69.5 202.53 67.77 200.24 67.51"/><polygon class="ligh-logo-cls-1" points="176.93 67.51 168.87 67.51 168.65 67.93 175.24 70.71 177.48 71.07 185.76 70.72 185.97 70.31 179.16 67.88 176.93 67.51"/><polygon class="ligh-logo-cls-1" points="188.58 67.51 180.53 67.51 180.34 67.87 187.19 70.27 189.47 70.57 197.72 70.24 197.89 69.89 190.85 67.83 188.58 67.51"/><polygon class="ligh-logo-cls-1" points="165.27 67.51 157.22 67.51 156.95 67.99 163.26 71.19 165.46 71.6 173.76 71.23 174.01 70.76 167.46 67.94 165.27 67.51"/><polygon class="ligh-logo-cls-1" points="153.62 67.51 145.56 67.51 145.25 68.06 151.25 71.69 153.4 72.16 161.73 71.77 162.03 71.23 155.76 68 153.62 67.51"/><polygon class="ligh-logo-cls-1" points="256.07 74.92 247.38 76.12 247.23 76.5 255.04 77.73 257.54 77.69 266.35 76.25 266.47 75.89 258.57 74.9 256.07 74.92"/><polygon class="ligh-logo-cls-1" points="243.46 76.68 234.64 77.99 234.46 78.43 242.1 79.97 244.6 79.95 253.56 78.37 253.72 77.95 245.95 76.69 243.46 76.68"/><polygon class="ligh-logo-cls-1" points="217.71 80.67 208.65 82.19 208.36 82.77 215.56 85.01 218.04 85.06 227.31 83.2 227.58 82.65 220.18 80.74 217.71 80.67"/><polygon class="ligh-logo-cls-1" points="230.67 78.6 221.73 80.01 221.5 80.52 228.94 82.39 231.43 82.4 240.54 80.69 240.76 80.2 233.15 78.64 230.67 78.6"/><polygon class="ligh-logo-cls-1" points="204.57 82.9 195.38 84.53 195.04 85.19 201.97 87.83 204.43 87.91 213.85 85.92 214.18 85.29 207.02 83.01 204.57 82.9"/><polygon class="ligh-logo-cls-1" points="191.26 85.29 181.95 87.03 181.54 87.76 188.16 90.83 190.6 90.96 200.18 88.83 200.56 88.12 193.68 85.44 191.26 85.29"/><polygon class="ligh-logo-cls-1" points="244.77 73.3 236.22 74.22 236.08 74.56 243.75 75.92 246.21 75.93 254.89 74.76 255.01 74.43 247.22 73.34 244.77 73.3"/><polygon class="ligh-logo-cls-1" points="232.37 74.64 223.73 75.64 223.55 76.04 231.05 77.71 233.5 77.75 242.29 76.48 242.46 76.09 234.81 74.71 232.37 74.64"/><polygon class="ligh-logo-cls-1" points="207.19 77.67 198.37 78.82 198.1 79.36 205.15 81.73 207.57 81.85 216.6 80.37 216.86 79.85 209.6 77.81 207.19 77.67"/><polygon class="ligh-logo-cls-1" points="219.85 76.1 211.12 77.17 210.89 77.64 218.19 79.65 220.62 79.73 229.53 78.35 229.74 77.9 222.28 76.2 219.85 76.1"/><polygon class="ligh-logo-cls-1" points="194.41 79.35 185.51 80.58 185.18 81.19 191.96 83.97 194.35 84.13 203.5 82.54 203.81 81.95 196.8 79.54 194.41 79.35"/><polygon class="ligh-logo-cls-1" points="181.51 81.14 172.51 82.45 172.12 83.14 178.59 86.35 180.96 86.56 190.23 84.86 190.59 84.2 183.86 81.39 181.51 81.14"/><polygon class="ligh-logo-cls-1" points="233.64 71.52 225.24 72.14 225.1 72.47 232.65 73.93 235.07 74.01 243.6 73.12 243.72 72.82 236.05 71.62 233.64 71.52"/><polygon class="ligh-logo-cls-1" points="221.47 72.43 213.01 73.1 212.84 73.48 220.21 75.27 222.61 75.38 231.22 74.42 231.38 74.06 223.87 72.57 221.47 72.43"/><polygon class="ligh-logo-cls-1" points="196.89 74.47 188.32 75.24 188.06 75.74 194.97 78.26 197.32 78.45 206.11 77.34 206.35 76.86 199.24 74.69 196.89 74.47"/><polygon class="ligh-logo-cls-1" points="209.22 73.42 200.71 74.14 200.5 74.57 207.65 76.71 210.03 76.86 218.73 75.83 218.92 75.41 211.6 73.59 209.22 73.42"/><polygon class="ligh-logo-cls-1" points="184.48 75.6 175.85 76.42 175.54 76.99 182.17 79.91 184.5 80.15 193.36 78.97 193.66 78.42 186.8 75.87 184.48 75.6"/><polygon class="ligh-logo-cls-1" points="171.99 76.8 163.3 77.67 162.94 78.31 169.25 81.66 171.55 81.96 180.5 80.7 180.85 80.08 174.27 77.13 171.99 76.8"/><polygon class="ligh-logo-cls-1" points="222.68 69.59 214.44 69.91 214.32 70.2 221.74 71.78 224.11 71.92 232.48 71.33 232.6 71.05 225.05 69.75 222.68 69.59"/><polygon class="ligh-logo-cls-1" points="210.76 70.06 202.5 70.39 202.34 70.74 209.56 72.65 211.92 72.83 220.34 72.19 220.49 71.86 213.11 70.25 210.76 70.06"/><polygon class="ligh-logo-cls-1" points="186.8 71.08 178.49 71.47 178.25 71.94 185 74.58 187.29 74.86 195.83 74.13 196.06 73.68 189.1 71.38 186.8 71.08"/><polygon class="ligh-logo-cls-1" points="198.8 70.55 190.51 70.92 190.31 71.32 197.32 73.58 199.64 73.81 208.12 73.13 208.31 72.74 201.12 70.8 198.8 70.55"/><polygon class="ligh-logo-cls-1" points="174.76 71.65 166.42 72.06 166.14 72.59 172.6 75.65 174.87 75.98 183.45 75.2 183.73 74.69 177.02 72 174.76 71.65"/><polygon class="ligh-logo-cls-1" points="162.69 72.25 154.32 72.69 153.98 73.29 160.14 76.78 162.36 77.16 171.01 76.34 171.33 75.76 164.91 72.67 162.69 72.25"/><text class="ligh-logo-cls-2" transform="translate(0 59.58)">B<tspan class="ligh-logo-cls-3" x="42.14" y="0">L</tspan><tspan x="77.42" y="0">UE</tspan><tspan class="ligh-logo-cls-4" x="167.66" y="0">P</tspan><tspan class="ligh-logo-cls-5" x="203.63" y="0">A</tspan><tspan x="244.43" y="0">TH</tspan></text></g></g></svg>