<svg id="Layer_1" data-name="Layer 1" xmlns="http://www.w3.org/2000/svg" viewBox="0 0 336 138.98"><defs><style>.light-logo-cls-1{fill:#fff;}.light-logo-cls-2{isolation:isolate;}</style></defs><polygon class="light-logo-cls-1" points="138.83 62.26 130.96 62.26 130.59 62.87 136.09 66.91 138.15 67.45 146.31 67.04 146.66 66.44 140.88 62.81 138.83 62.26"/><polygon class="light-logo-cls-1" points="127.43 62.26 119.56 62.26 119.14 62.94 124.28 67.46 126.28 68.06 134.47 67.64 134.88 66.96 129.43 62.88 127.43 62.26"/><polygon class="light-logo-cls-1" points="104.64 62.26 96.76 62.26 96.22 63.09 100.56 68.63 102.45 69.38 110.69 68.91 111.22 68.08 106.52 63.02 104.64 62.26"/><polygon class="light-logo-cls-1" points="116.04 62.26 108.16 62.26 107.68 63.01 112.43 68.03 114.38 68.71 122.6 68.26 123.06 67.51 117.98 62.95 116.04 62.26"/><polygon class="light-logo-cls-1" points="93.24 62.26 85.36 62.26 84.76 63.17 88.66 69.26 90.48 70.09 98.75 69.6 99.34 68.69 95.06 63.1 93.24 62.26"/><polygon class="light-logo-cls-1" points="81.85 62.26 73.96 62.26 73.3 63.25 76.72 69.91 78.48 70.83 86.78 70.31 87.44 69.31 83.6 63.18 81.85 62.26"/><polygon class="light-logo-cls-1" points="173.64 82.41 164.41 84.23 163.93 85.03 170.03 88.54 172.39 88.72 181.91 86.49 182.38 85.7 175.98 82.61 173.64 82.41"/><polygon class="light-logo-cls-1" points="160.25 85.06 150.9 86.99 150.35 87.89 156.08 91.88 158.4 92.11 168.08 89.75 168.61 88.87 162.56 85.32 160.25 85.06"/><polygon class="light-logo-cls-1" points="132.97 90.84 123.38 92.98 122.67 94.06 127.54 99.12 129.78 99.47 139.76 96.84 140.46 95.77 135.19 91.22 132.97 90.84"/><polygon class="light-logo-cls-1" points="146.7 87.87 137.23 89.91 136.6 90.9 141.92 95.41 144.2 95.69 154.03 93.19 154.64 92.22 148.97 88.19 146.7 87.87"/><polygon class="light-logo-cls-1" points="119.06 93.96 109.36 96.2 108.56 97.39 112.96 103.03 115.15 103.44 125.27 100.68 126.06 99.5 121.24 94.4 119.06 93.96"/><polygon class="light-logo-cls-1" points="105 97.22 95.17 99.58 94.27 100.87 98.16 107.12 100.29 107.6 110.57 104.71 111.45 103.43 107.11 97.74 105 97.22"/><polygon class="light-logo-cls-1" points="164.6 77.67 155.71 79.03 155.26 79.79 161.22 83.43 163.5 83.69 172.68 81.92 173.12 81.18 166.87 77.96 164.6 77.67"/><polygon class="light-logo-cls-1" points="151.72 79.66 142.74 81.09 142.22 81.94 147.81 86.06 150.05 86.39 159.35 84.51 159.85 83.69 153.95 80.01 151.72 79.66"/><polygon class="light-logo-cls-1" points="125.58 83.97 116.43 85.56 115.76 86.58 120.5 91.76 122.65 92.21 132.18 90.13 132.84 89.13 127.71 84.45 125.58 83.97"/><polygon class="light-logo-cls-1" points="138.71 81.76 129.65 83.27 129.06 84.2 134.24 88.84 136.43 89.22 145.85 87.25 146.43 86.33 140.9 82.17 138.71 81.76"/><polygon class="light-logo-cls-1" points="112.32 86.29 103.08 87.96 102.33 89.08 106.61 94.83 108.7 95.35 118.35 93.17 119.09 92.06 114.4 86.84 112.32 86.29"/><polygon class="light-logo-cls-1" points="98.94 88.72 89.61 90.47 88.78 91.69 92.55 98.04 94.59 98.64 104.35 96.35 105.18 95.14 100.96 89.35 98.94 88.72"/><polygon class="light-logo-cls-1" points="155.79 72.73 147.24 73.63 146.82 74.34 152.62 78.12 154.83 78.48 163.67 77.16 164.08 76.47 157.99 73.11 155.79 72.73"/><polygon class="light-logo-cls-1" points="143.4 74.05 134.8 75.01 134.31 75.8 139.75 80.06 141.91 80.47 150.84 79.08 151.31 78.31 145.56 74.49 143.4 74.05"/><polygon class="light-logo-cls-1" points="118.39 76.92 109.67 77.97 109.05 78.93 113.66 84.23 115.72 84.78 124.81 83.24 125.42 82.3 120.44 77.49 118.39 76.92"/><polygon class="light-logo-cls-1" points="130.94 75.45 122.27 76.45 121.72 77.33 126.76 82.09 128.88 82.57 137.88 81.11 138.42 80.25 133.04 75.95 130.94 75.45"/><polygon class="light-logo-cls-1" points="105.76 78.45 96.99 79.56 96.29 80.61 100.44 86.47 102.44 87.09 111.62 85.48 112.31 84.45 107.76 79.1 105.76 78.45"/><polygon class="light-logo-cls-1" points="93.06 80.06 84.23 81.22 83.45 82.36 87.11 88.81 89.05 89.52 98.31 87.83 99.08 86.7 94.99 80.79 93.06 80.06"/><polygon class="light-logo-cls-1" points="147.2 67.59 138.99 68.04 138.6 68.7 144.25 72.62 146.38 73.06 154.88 72.2 155.26 71.55 149.32 68.06 147.2 67.59"/><polygon class="light-logo-cls-1" points="135.31 68.25 127.07 68.73 126.62 69.46 131.91 73.85 133.99 74.36 142.55 73.46 142.99 72.73 137.39 68.78 135.31 68.25"/><polygon class="light-logo-cls-1" points="111.41 69.68 103.12 70.2 102.54 71.1 107.01 76.52 108.99 77.17 117.65 76.17 118.22 75.28 113.38 70.35 111.41 69.68"/><polygon class="light-logo-cls-1" points="123.38 68.95 115.11 69.45 114.6 70.26 119.49 75.16 121.53 75.73 130.14 74.78 130.64 73.98 125.41 69.55 123.38 68.95"/><polygon class="light-logo-cls-1" points="99.4 70.44 91.08 70.99 90.44 71.97 94.46 77.95 96.37 78.67 105.09 77.63 105.73 76.66 101.31 71.19 99.4 70.44"/><polygon class="light-logo-cls-1" points="87.36 71.24 79.01 71.81 78.29 72.88 81.83 79.44 83.68 80.25 92.45 79.15 93.17 78.09 89.21 72.07 87.36 71.24"/><polygon class="light-logo-cls-1" points="69.22 62.26 61.34 62.26 60.59 63.35 63.47 70.67 65.15 71.67 73.47 71.14 74.22 70.04 70.9 63.28 69.22 62.26"/><polygon class="light-logo-cls-1" points="57.82 62.26 49.94 62.26 49.12 63.44 51.47 71.38 53.08 72.48 61.42 71.92 62.25 70.73 59.43 63.37 57.82 62.26"/><polygon class="light-logo-cls-1" points="35.02 62.26 27.15 62.26 26.16 63.63 27.39 72.88 28.83 74.17 37.21 73.57 38.22 72.18 36.47 63.55 35.02 62.26"/><polygon class="light-logo-cls-1" points="46.42 62.26 38.55 62.26 37.64 63.53 39.45 72.11 40.97 73.31 49.33 72.73 50.25 71.44 47.95 63.46 46.42 62.26"/><polygon class="light-logo-cls-1" points="23.63 62.26 15.75 62.26 14.67 63.73 15.3 73.67 16.65 75.06 25.06 74.44 26.16 72.94 24.99 63.65 23.63 62.26"/><polygon class="light-logo-cls-1" points="12.23 62.26 4.35 62.26 3.18 63.84 3.18 74.48 4.44 75.98 12.88 75.34 14.06 73.74 13.5 63.76 12.23 62.26"/><polygon class="light-logo-cls-1" points="89.21 101.03 79.25 103.5 78.24 104.91 81.52 111.87 83.59 112.44 94.03 109.4 95.03 107.99 91.26 101.63 89.21 101.03"/><polygon class="light-logo-cls-1" points="74.77 104.62 64.69 107.2 63.59 108.73 66.28 116.36 68.28 117.02 78.87 113.84 79.97 112.31 76.76 105.3 74.77 104.62"/><polygon class="light-logo-cls-1" points="45.38 112.27 35.07 115.06 33.74 116.83 35.15 125.91 37.01 126.74 47.9 123.3 49.23 121.52 47.23 113.13 45.38 112.27"/><polygon class="light-logo-cls-1" points="60.16 108.37 49.97 111.05 48.75 112.7 50.82 121.04 52.75 121.78 63.49 118.47 64.71 116.82 62.09 109.14 60.16 108.37"/><polygon class="light-logo-cls-1" points="30.43 116.33 20 119.22 18.55 121.13 19.27 130.97 21.04 131.9 32.08 128.32 33.54 126.41 32.2 117.28 30.43 116.33"/><polygon class="light-logo-cls-1" points="15.32 120.53 4.76 123.53 3.18 125.57 3.18 136.22 4.86 137.25 16.06 133.53 17.64 131.49 16.99 121.58 15.32 120.53"/><polygon class="light-logo-cls-1" points="83.97 91.55 74.55 93.38 73.61 94.72 76.79 101.77 78.76 102.45 88.65 100.05 89.58 98.72 85.93 92.26 83.97 91.55"/><polygon class="light-logo-cls-1" points="70.32 94.22 60.82 96.13 59.78 97.57 62.39 105.28 64.29 106.05 74.3 103.55 75.33 102.11 72.21 95.01 70.32 94.22"/><polygon class="light-logo-cls-1" points="42.66 99.89 32.98 101.95 31.74 103.63 33.11 112.75 34.86 113.69 45.09 110.99 46.34 109.31 44.4 100.86 42.66 99.89"/><polygon class="light-logo-cls-1" points="56.55 97 46.96 98.98 45.83 100.54 47.83 108.94 49.66 109.8 59.78 107.19 60.91 105.64 58.37 97.88 56.55 97"/><polygon class="light-logo-cls-1" points="28.64 102.89 18.88 105.03 17.52 106.83 18.23 116.69 19.89 117.74 30.24 114.93 31.6 113.13 30.3 103.96 28.64 102.89"/><polygon class="light-logo-cls-1" points="14.5 106 4.65 108.22 3.18 110.14 3.18 120.79 4.75 121.94 15.22 119.02 16.7 117.09 16.07 107.17 14.5 106"/><polygon class="light-logo-cls-1" points="78.89 81.93 70 83.14 69.13 84.39 72.21 91.53 74.08 92.32 83.43 90.56 84.3 89.31 80.75 82.75 78.89 81.93"/><polygon class="light-logo-cls-1" points="66.02 83.69 57.07 84.95 56.11 86.31 58.63 94.09 60.43 94.97 69.86 93.13 70.83 91.78 67.81 84.59 66.02 83.69"/><polygon class="light-logo-cls-1" points="40.02 87.42 30.97 88.78 29.81 90.36 31.14 99.52 32.78 100.58 42.37 98.6 43.54 97.02 41.66 88.51 40.02 87.42"/><polygon class="light-logo-cls-1" points="53.06 85.52 44.06 86.83 43 88.29 44.94 96.75 46.66 97.72 56.18 95.81 57.24 94.35 54.78 86.51 53.06 85.52"/><polygon class="light-logo-cls-1" points="26.91 89.4 17.8 90.8 16.54 92.5 17.21 102.39 18.77 103.55 28.45 101.49 29.72 99.79 28.46 90.58 26.91 89.4"/><polygon class="light-logo-cls-1" points="13.72 91.44 4.55 92.9 3.18 94.71 3.18 105.36 4.65 106.62 14.41 104.49 15.79 102.67 15.18 92.73 13.72 91.44"/><polygon class="light-logo-cls-1" points="73.97 72.16 65.6 72.76 64.79 73.94 67.77 81.16 69.54 82.06 78.37 80.92 79.17 79.75 75.75 73.09 73.97 72.16"/><polygon class="light-logo-cls-1" points="61.85 73.03 53.45 73.66 52.55 74.93 54.99 82.79 56.69 83.78 65.57 82.59 66.47 81.32 63.55 74.05 61.85 73.03"/><polygon class="light-logo-cls-1" points="37.48 74.88 29.02 75.55 27.95 77.03 29.23 86.23 30.77 87.41 39.75 86.12 40.83 84.64 39.02 76.08 37.48 74.88"/><polygon class="light-logo-cls-1" points="49.68 73.94 41.25 74.59 40.27 75.96 42.15 84.48 43.77 85.56 52.7 84.32 53.68 82.95 51.31 75.04 49.68 73.94"/><polygon class="light-logo-cls-1" points="25.24 75.85 16.75 76.55 15.59 78.13 16.24 88.05 17.69 89.32 26.73 87.99 27.91 86.4 26.7 77.15 25.24 75.85"/><polygon class="light-logo-cls-1" points="12.96 76.86 4.45 77.58 3.18 79.28 3.18 89.92 4.54 91.31 13.63 89.93 14.91 88.22 14.32 78.26 12.96 76.86"/><polygon class="light-logo-cls-1" points="278.06 62.26 270.18 62.26 270.16 62.28 277.94 62.43 280.29 62.42 288.17 62.28 288.19 62.26 280.41 62.26 278.06 62.26"/><polygon class="light-logo-cls-1" points="266.66 62.26 258.78 62.26 258.76 62.31 266.5 62.64 268.85 62.66 276.75 62.49 276.77 62.45 269.01 62.28 266.66 62.26"/><polygon class="light-logo-cls-1" points="243.86 62.26 235.99 62.26 235.94 62.38 243.52 63.16 245.85 63.23 253.81 63.02 253.84 62.91 246.2 62.34 243.86 62.26"/><polygon class="light-logo-cls-1" points="255.26 62.26 247.38 62.26 247.35 62.34 255.03 62.88 257.37 62.93 265.3 62.74 265.32 62.66 257.61 62.31 255.26 62.26"/><polygon class="light-logo-cls-1" points="232.46 62.26 224.59 62.26 224.52 62.41 231.99 63.45 234.31 63.57 242.28 63.34 242.34 63.18 234.78 62.38 232.46 62.26"/><polygon class="light-logo-cls-1" points="221.07 62.26 213.19 62.26 213.1 62.46 220.42 63.78 222.72 63.93 230.73 63.68 230.8 63.48 223.37 62.42 221.07 62.26"/><polygon class="light-logo-cls-1" points="323.26 62.33 315.48 62.85 315.49 62.95 323.36 63.02 325.69 62.93 333.39 62.34 333.37 62.26 325.6 62.26 323.26 62.33"/><polygon class="light-logo-cls-1" points="311.98 63.11 304.08 63.74 304.07 63.87 311.99 64.05 314.36 63.96 322.21 63.23 322.2 63.12 314.34 63.04 311.98 63.11"/><polygon class="light-logo-cls-1" points="288.89 65.14 280.75 65.98 280.71 66.19 288.63 66.68 291.04 66.59 299.19 65.59 299.21 65.4 291.3 65.07 288.89 65.14"/><polygon class="light-logo-cls-1" points="300.52 64.05 292.5 64.79 292.48 64.95 300.42 65.27 302.81 65.17 310.81 64.31 310.81 64.17 302.91 63.98 300.52 64.05"/><polygon class="light-logo-cls-1" points="277.09 66.38 268.83 67.33 268.76 67.59 276.63 68.27 279.06 68.19 287.35 67.06 287.4 66.83 279.51 66.33 277.09 66.38"/><polygon class="light-logo-cls-1" points="265.12 67.78 256.74 68.83 256.64 69.14 264.42 70.06 266.86 69.99 275.31 68.73 275.38 68.44 267.55 67.74 265.12 67.78"/><polygon class="light-logo-cls-1" points="311.95 62.31 304.11 62.74 304.11 62.82 311.96 62.91 314.3 62.84 322.08 62.33 322.08 62.26 314.3 62.26 311.95 62.31"/><polygon class="light-logo-cls-1" points="300.59 62.95 292.66 63.45 292.65 63.57 300.52 63.78 302.89 63.72 310.78 63.1 310.79 62.99 302.96 62.89 300.59 62.95"/><polygon class="light-logo-cls-1" points="277.48 64.55 269.38 65.21 269.34 65.4 277.17 65.96 279.57 65.91 287.69 65.08 287.73 64.91 279.88 64.52 277.48 64.55"/><polygon class="light-logo-cls-1" points="289.1 63.69 281.08 64.27 281.06 64.42 288.93 64.8 291.31 64.74 299.32 64.02 299.34 63.88 291.49 63.65 289.1 63.69"/><polygon class="light-logo-cls-1" points="265.75 65.52 257.56 66.25 257.49 66.49 265.25 67.26 267.66 67.22 275.9 66.3 275.95 66.08 268.15 65.5 265.75 65.52"/><polygon class="light-logo-cls-1" points="253.89 66.6 245.61 67.41 245.51 67.69 253.17 68.71 255.58 68.69 263.94 67.66 264.02 67.4 256.29 66.6 253.89 66.6"/><polygon class="light-logo-cls-1" points="300.65 62.3 292.77 62.6 292.76 62.67 300.59 62.78 302.94 62.73 310.77 62.31 310.78 62.26 303.01 62.26 300.65 62.3"/><polygon class="light-logo-cls-1" points="289.24 62.75 281.31 63.11 281.29 63.2 289.12 63.46 291.48 63.42 299.4 62.93 299.42 62.84 291.61 62.72 289.24 62.75"/><polygon class="light-logo-cls-1" points="266.18 63.87 258.13 64.33 258.09 64.5 265.84 65.13 268.21 65.12 276.3 64.48 276.34 64.33 268.56 63.88 266.18 63.87"/><polygon class="light-logo-cls-1" points="277.75 63.28 269.76 63.68 269.73 63.81 277.54 64.24 279.91 64.22 287.91 63.65 287.94 63.53 280.13 63.26 277.75 63.28"/><polygon class="light-logo-cls-1" points="254.53 64.54 246.43 65.05 246.36 65.26 254.02 66.12 256.4 66.13 264.57 65.42 264.63 65.22 256.91 64.57 254.53 64.54"/><polygon class="light-logo-cls-1" points="242.8 65.28 234.64 65.83 234.55 66.09 242.09 67.21 244.47 67.25 252.72 66.47 252.8 66.22 245.17 65.34 242.8 65.28"/><polygon class="light-logo-cls-1" points="289.35 62.28 281.46 62.44 281.45 62.49 289.25 62.62 291.6 62.59 299.47 62.3 299.49 62.26 291.71 62.26 289.35 62.28"/><polygon class="light-logo-cls-1" points="277.93 62.52 270.01 62.71 269.99 62.78 277.78 63.08 280.13 63.07 288.06 62.73 288.08 62.66 280.3 62.52 277.93 62.52"/><polygon class="light-logo-cls-1" points="254.97 63.11 247 63.34 246.95 63.49 254.62 64.2 256.98 64.23 265 63.8 265.05 63.66 257.33 63.16 254.97 63.11"/><polygon class="light-logo-cls-1" points="266.47 62.8 258.53 63.01 258.5 63.12 266.24 63.61 268.59 63.62 276.57 63.23 276.6 63.13 268.83 62.82 266.47 62.8"/><polygon class="light-logo-cls-1" points="243.43 63.45 235.44 63.71 235.37 63.9 242.94 64.85 245.28 64.91 253.36 64.43 253.43 64.26 245.78 63.53 243.43 63.45"/><polygon class="light-logo-cls-1" points="231.86 63.83 223.84 64.12 223.74 64.35 231.18 65.57 233.52 65.66 241.65 65.14 241.73 64.92 234.2 63.95 231.86 63.83"/><polygon class="light-logo-cls-1" points="208.44 62.26 200.57 62.26 200.45 62.51 207.58 64.17 209.86 64.37 217.88 64.09 217.99 63.85 210.72 62.47 208.44 62.26"/><polygon class="light-logo-cls-1" points="197.05 62.26 189.17 62.26 189.02 62.56 195.95 64.55 198.21 64.79 206.25 64.5 206.39 64.2 199.29 62.52 197.05 62.26"/><polygon class="light-logo-cls-1" points="174.25 62.26 166.37 62.26 166.15 62.67 172.6 65.39 174.79 65.74 182.89 65.4 183.09 65 176.43 62.62 174.25 62.26"/><polygon class="light-logo-cls-1" points="185.65 62.26 177.77 62.26 177.59 62.61 184.29 64.95 186.52 65.25 194.59 64.93 194.76 64.58 187.86 62.57 185.65 62.26"/><polygon class="light-logo-cls-1" points="162.85 62.26 154.97 62.26 154.71 62.73 160.88 65.85 163.04 66.26 171.16 65.9 171.4 65.43 164.99 62.68 162.85 62.26"/><polygon class="light-logo-cls-1" points="151.46 62.26 143.58 62.26 143.27 62.79 149.13 66.34 151.24 66.81 159.39 66.42 159.68 65.9 153.55 62.74 151.46 62.26"/><polygon class="light-logo-cls-1" points="251.66 69.51 243.15 70.68 243.01 71.05 250.65 72.26 253.09 72.21 261.7 70.8 261.82 70.45 254.09 69.49 251.66 69.51"/><polygon class="light-logo-cls-1" points="239.32 71.23 230.7 72.51 230.51 72.93 237.99 74.44 240.43 74.42 249.19 72.88 249.35 72.47 241.75 71.23 239.32 71.23"/><polygon class="light-logo-cls-1" points="214.13 75.13 205.27 76.62 204.99 77.18 212.03 79.38 214.46 79.42 223.52 77.6 223.78 77.06 216.55 75.2 214.13 75.13"/><polygon class="light-logo-cls-1" points="226.81 73.1 218.07 74.48 217.84 74.98 225.12 76.81 227.56 76.82 236.47 75.14 236.68 74.67 229.24 73.14 226.81 73.1"/><polygon class="light-logo-cls-1" points="201.28 77.31 192.3 78.91 191.96 79.54 198.74 82.13 201.15 82.2 210.36 80.26 210.68 79.64 203.68 77.42 201.28 77.31"/><polygon class="light-logo-cls-1" points="188.27 79.64 179.16 81.34 178.76 82.06 185.24 85.06 187.62 85.19 196.99 83.11 197.37 82.41 190.63 79.8 188.27 79.64"/><polygon class="light-logo-cls-1" points="240.6 67.92 232.23 68.81 232.1 69.16 239.61 70.48 242.01 70.49 250.49 69.35 250.62 69.03 243 67.96 240.6 67.92"/><polygon class="light-logo-cls-1" points="228.47 69.23 220.02 70.2 219.85 70.6 227.19 72.23 229.58 72.27 238.18 71.03 238.34 70.65 230.86 69.3 228.47 69.23"/><polygon class="light-logo-cls-1" points="203.85 72.19 195.23 73.31 194.96 73.84 201.86 76.17 204.22 76.28 213.05 74.83 213.3 74.33 206.21 72.33 203.85 72.19"/><polygon class="light-logo-cls-1" points="216.22 70.66 207.69 71.7 207.47 72.17 214.6 74.13 216.99 74.2 225.7 72.86 225.9 72.42 218.6 70.76 216.22 70.66"/><polygon class="light-logo-cls-1" points="191.35 73.83 182.64 75.04 182.32 75.63 188.95 78.35 191.29 78.51 200.24 76.96 200.54 76.38 193.69 74.02 191.35 73.83"/><polygon class="light-logo-cls-1" points="178.73 75.59 169.93 76.87 169.55 77.54 175.88 80.68 178.2 80.89 187.26 79.23 187.62 78.58 181.03 75.83 178.73 75.59"/><polygon class="light-logo-cls-1" points="229.71 66.18 221.5 66.79 221.37 67.1 228.75 68.54 231.11 68.61 239.45 67.75 239.57 67.45 232.07 66.28 229.71 66.18"/><polygon class="light-logo-cls-1" points="217.81 67.07 209.54 67.73 209.38 68.1 216.58 69.84 218.93 69.95 227.35 69.02 227.51 68.66 220.16 67.2 217.81 67.07"/><polygon class="light-logo-cls-1" points="193.78 69.06 185.39 69.82 185.14 70.31 191.89 72.77 194.2 72.96 202.79 71.87 203.03 71.4 196.07 69.28 193.78 69.06"/><polygon class="light-logo-cls-1" points="205.83 68.03 197.51 68.74 197.3 69.17 204.29 71.25 206.62 71.4 215.13 70.39 215.32 69.98 208.16 68.2 205.83 68.03"/><polygon class="light-logo-cls-1" points="181.63 70.17 173.2 70.97 172.9 71.53 179.38 74.38 181.66 74.62 190.32 73.46 190.61 72.92 183.91 70.43 181.63 70.17"/><polygon class="light-logo-cls-1" points="169.42 71.34 160.93 72.2 160.57 72.82 166.75 76.1 168.99 76.39 177.75 75.16 178.09 74.55 171.66 71.66 169.42 71.34"/><polygon class="light-logo-cls-1" points="218.99 64.29 210.94 64.6 210.82 64.89 218.08 66.43 220.4 66.57 228.58 65.99 228.7 65.72 221.31 64.45 218.99 64.29"/><polygon class="light-logo-cls-1" points="207.34 64.75 199.26 65.08 199.1 65.42 206.17 67.28 208.47 67.46 216.71 66.84 216.86 66.52 209.64 64.94 207.34 64.75"/><polygon class="light-logo-cls-1" points="183.91 65.75 175.78 66.13 175.54 66.58 182.14 69.17 184.39 69.44 192.73 68.73 192.96 68.29 186.15 66.04 183.91 65.75"/><polygon class="light-logo-cls-1" points="195.64 65.23 187.54 65.59 187.34 65.98 194.19 68.2 196.47 68.42 204.76 67.75 204.94 67.37 197.91 65.47 195.64 65.23"/><polygon class="light-logo-cls-1" points="172.14 66.31 163.98 66.71 163.7 67.23 170.02 70.22 172.24 70.54 180.63 69.78 180.9 69.28 174.34 66.65 172.14 66.31"/><polygon class="light-logo-cls-1" points="160.33 66.9 152.14 67.32 151.81 67.91 157.83 71.32 160.01 71.7 168.46 70.89 168.78 70.32 162.5 67.3 160.33 66.9"/><g class="light-logo-cls-2"><path class="light-logo-cls-1" d="M5.44,52.32l.45.06h.66q4.45,0,4.52-12.54c0-2.1,0-3.74.07-4.93l.13-9.15c0-2,0-3.88.05-5.74s0-3.87,0-6c0-1.93-.36-3.26-1.07-4S8.28,8.9,6.45,8.9H6.18V6.55c1.43.11,2.83.19,4.21.24s2.76.06,4.17.06c1.56,0,3.49,0,5.77-.15s3.76-.15,4.46-.15q6.9,0,10.91,3.07a9.87,9.87,0,0,1,4,8.27,10.37,10.37,0,0,1-2,6.32,19.73,19.73,0,0,1-6.49,5.14q5.89,1.14,8.82,4A10.24,10.24,0,0,1,43,41a11.87,11.87,0,0,1-4.87,9.89q-4.86,3.76-13,3.76c-1,0-2.83-.06-5.54-.17s-4.94-.17-6.7-.17c-.74,0-1.76,0-3.07.07s-2.78.11-4.41.2Zm11.87-2.17a29.26,29.26,0,0,0,3.82.85,24.36,24.36,0,0,0,3.66.29q5.49,0,8.52-2.69a9.49,9.49,0,0,0,3-7.48q0-5.09-3.38-7.56T22.54,31.1h-2.3c-.77,0-1.77.05-3,.12q0,1.41,0,4.14c0,1.83,0,3.16,0,4q0,2.09,0,4.41T17.31,50.15Zm-.07-22c.52.05,1.07.08,1.66.09h2.67q1.91,0,3.54-.06c1.08,0,2.13-.13,3.13-.24A12.33,12.33,0,0,0,31.93,24a9.64,9.64,0,0,0,1.24-4.84,8.65,8.65,0,0,0-2.71-6.73A10.71,10.71,0,0,0,23,9.94c-.69,0-1.49,0-2.4.13s-1.93.23-3.07.4q-.09,4.5-.18,10.43T17.24,28.11Z"/><path class="light-logo-cls-1" d="M49.53,54.5V52.12l.52,0,.79,0A3.11,3.11,0,0,0,53.68,51q.72-1.16.72-5.55V27.58c0-2.78-.24-4.54-.72-5.3a3.12,3.12,0,0,0-2.84-1.14H50.2V18.72c1.44.07,2.77.12,4,.15s2.34.05,3.35.05,2.15,0,3.37-.05,2.52-.08,3.91-.15v2.42H64c-1.52,0-2.54.41-3.07,1.22s-.79,2.62-.79,5.42c0,.45,0,1.23,0,2.35s0,2,0,2.75l.14,17.43q1.8.21,3.9.3c1.4.07,2.89.11,4.48.11,3.13,0,5.31-.45,6.55-1.33s2.25-2.59,3-5.11l2.11.8a41.57,41.57,0,0,0-1.33,4.44c-.36,1.54-.67,3.19-.92,4.95-2.43-.13-4.81-.24-7.12-.32S66.44,54,64.15,54c-3,0-5.65,0-8,.12S51.66,54.35,49.53,54.5Z"/><path class="light-logo-cls-1" d="M83.64,21.14V18.72c.26,0,.67.05,1.2.07,2.78.13,4.72.2,5.84.2s3.08-.07,6-.2c.58,0,1,0,1.34-.07v2.42h-.71c-1.43,0-2.38.36-2.85,1.09s-.7,2.49-.7,5.28v8.32q0,9.12,2.43,12.19t8.54,3.06c4,0,6.88-.93,8.5-2.81s2.43-5.89,2.43-12V32.67q0-1.09,0-2.88c0-1.18,0-2,0-2.41,0-2.66-.25-4.37-.77-5.12s-1.52-1.12-3-1.12h-.81V18.72c1.63.14,2.85.23,3.64.27s1.44.07,1.93.07c.8,0,1.71,0,2.73-.08s2.25-.14,3.71-.26v2.42h-.27q-3.36,0-3.42,4.69v.94l-.1,4.26c0,.72,0,1.48,0,2.3s0,2,0,3.54a37.41,37.41,0,0,1-.7,8.51A11.61,11.61,0,0,1,116.16,50a13,13,0,0,1-5.29,3.69A19.91,19.91,0,0,1,103.59,55q-8.15,0-12-3.65t-3.85-11.5c0-.56,0-2.29.06-5.18s.07-5.52.07-7.87c0-2.64-.26-4.23-.79-4.79s-1.58-.84-3.17-.84Z"/><path class="light-logo-cls-1" d="M132.12,54.5V52.09l.51,0a3.76,3.76,0,0,0,.47,0,3.13,3.13,0,0,0,3-1.36c.53-.91.79-3,.79-6.26V27c0-2.7-.23-4.36-.7-5s-1.42-.92-2.85-.92h-.5l0-2.35c1.81.11,3.87.2,6.19.25s5.12.09,8.43.09c2.7,0,5.16,0,7.36-.1s4.16-.17,5.89-.31a36.37,36.37,0,0,0,.23,4c.16,1.44.4,3.08.74,4.91l-2.22.44c-.49-2.39-1.22-4-2.19-4.69s-3.43-1.11-7.36-1.11c-1.68,0-3,0-4,0s-2,.09-3,.18c0,1.32-.08,2.79-.1,4.4s0,4.08,0,7.41l2.58.15c.81,0,1.56.05,2.28.05h1.11q4.78,0,6-.76a3.66,3.66,0,0,0,1.46-2.9l2.24.37c-.18,1.54-.3,2.72-.37,3.54s-.1,1.54-.1,2.16.06,1.52.17,3.09c0,.69.08,1.24.1,1.64l-2.18.2c-.07-1.83-.51-3-1.32-3.64s-3-.88-6.46-.88l-3.49.06-2.08.07v7.68c0,.85,0,1.74,0,2.66s0,1.92,0,3c1.14.16,2.43.27,3.86.34s3,.1,4.66.1q4.93,0,6.91-1.33c1.32-.88,2.33-2.55,3.05-5l2.21.84c-.49,1.27-.94,2.63-1.34,4.06s-.78,3-1.14,4.79q-3.18-.2-7.61-.3t-10.1-.1c-2.37,0-4.39,0-6.08.08S133.85,54.39,132.12,54.5Z"/><path class="light-logo-cls-1" d="M169.41,52.32l.52.06h.79c1.79,0,3-.61,3.64-1.83s.95-3.92.95-8.13c0-.62,0-1.78,0-3.45s0-3,0-4.06v-21c0-1.92-.35-3.24-1-4s-2-1.07-3.79-1.07h-.27V6.55c1.52.11,3,.19,4.54.24s3,.06,4.48.06c1.65,0,3.63,0,5.92-.15s3.77-.15,4.44-.15q7.35,0,11.74,3.66a11.88,11.88,0,0,1,4.39,9.62q0,7.08-4.81,11t-13.6,3.94c-.58,0-1.37,0-2.36-.1s-2.18-.17-3.54-.31v10.1q0,5.16,1.06,6.49c.7.88,2.11,1.32,4.24,1.32l.35,0,.39,0,.25,0,.15,0,0,2.21c-1.63-.08-3.27-.15-4.93-.2s-3.28-.06-4.89-.06c-.79,0-1.93,0-3.44.06l-5.15.2Zm11.94-21q1.41.19,2.55.3c.76.07,1.51.1,2.25.1q6.3,0,9.57-2.8T199,20.7A9.86,9.86,0,0,0,195.77,13c-2.15-1.93-5.05-2.89-8.72-2.89-1,0-2,0-2.87.12s-1.79.2-2.66.35c-.07,3-.11,6.07-.14,9.14S181.35,26.63,181.35,31.3Z"/><path class="light-logo-cls-1" d="M202.74,52.09a3.47,3.47,0,0,0,.42,0l.66,0q3.21,0,6.94-8.55c.47-1.08.84-1.9,1.1-2.49l4.8-10.93.91-2q3.08-6.94,3.92-9.63h5.7A58.06,58.06,0,0,0,230,26.91l.26.67,5.64,15.12c.13.38.33.93.6,1.64q2.93,7.81,6.17,7.82a2.73,2.73,0,0,0,.44,0l.4,0v2.38c-1.54-.13-3-.24-4.26-.32s-2.44-.12-3.42-.12-2.05,0-3.34.12-2.71.2-4.27.35l0-2.41.48,0a2.82,2.82,0,0,0,.42,0,3.74,3.74,0,0,0,2.16-.52A1.85,1.85,0,0,0,232,50a8.94,8.94,0,0,0-.36-1.89c-.25-.91-.59-2-1-3.27l-.77-2.38-4.44-.17c-1.31,0-2.41-.07-3.31-.07-.65,0-1.56,0-2.73.07l-4.21.17-.87,2.38A32.37,32.37,0,0,0,213.16,48a8.3,8.3,0,0,0-.42,1.95,1.8,1.8,0,0,0,.72,1.62,4.39,4.39,0,0,0,2.4.49h.8V54.5c-1.88-.13-3.38-.22-4.51-.26s-2.1-.07-2.9-.07-1.8,0-2.92.08-2.31.14-3.59.25Zm13.65-12.91,2.82.12c1.36.05,2.39.08,3.08.08.88,0,1.84,0,2.9-.05s2.2-.08,3.41-.15l-5.67-15.66Z"/><path class="light-logo-cls-1" d="M246.6,18.72a7.76,7.76,0,0,0,1.73.64,8.12,8.12,0,0,0,1.93.2H273.6a18.37,18.37,0,0,0,3-.2,12.5,12.5,0,0,0,2.4-.64v1.45c0,1.45.05,2.84.14,4.15s.22,2.6.4,3.83l-2.18.4a6.82,6.82,0,0,0-1.61-4.31A5.94,5.94,0,0,0,271.55,23h-5.77V46.76q0,3.56.78,4.47c.51.62,1.53.93,3.05.93l.9,0,.61,0V54.5c-2.37-.13-4.22-.22-5.54-.26s-2.4-.07-3.25-.07c-.67,0-1.59,0-2.75.07s-3,.13-5.57.26V52.09h1.82a7,7,0,0,0,2.34-.27,2.15,2.15,0,0,0,1.08-1,11.87,11.87,0,0,0,.53-3.59q.17-2.88.17-10.9c0-1.81,0-3.72,0-5.75s-.07-4.56-.14-7.63H254a6.39,6.39,0,0,0-4.37,1.23,8.35,8.35,0,0,0-2.06,4.47l-2.35-.47c.42-1.67.75-3.3,1-4.88A35.07,35.07,0,0,0,246.6,18.72Z"/><path class="light-logo-cls-1" d="M288.49,18.72c.38,0,.9.05,1.57.07,2.89.13,4.81.2,5.77.2.8,0,2.41,0,4.83-.17l2.11-.1v2.52H302a2.89,2.89,0,0,0-2.7,1.12c-.46.75-.69,2.6-.69,5.57v2.74l0,3.65,5.1.15c1.56,0,3,.05,4.43.05s3,0,4.64-.05,3.44-.1,5.38-.19V27.93c0-3-.22-4.83-.67-5.6a2.69,2.69,0,0,0-2.55-1.16,3.5,3.5,0,0,0-.48,0l-.49,0V18.72l2.11.1c2.42.12,4,.17,4.83.17s2.75,0,5.44-.17l1.91-.1v2.52l-.47,0a3.15,3.15,0,0,0-.44,0,2.77,2.77,0,0,0-2.66,1.21Q324,23.58,324,28V45.46q0,4.35.72,5.53a3,3,0,0,0,2.8,1.17l.77,0,.5,0V54.5c-1.52-.08-2.93-.15-4.22-.2s-2.43-.06-3.39-.06-2.11,0-3.44.06-2.76.12-4.31.2V52.12l.51,0,.74,0A3,3,0,0,0,317.46,51q.71-1.16.7-5.75V37.8h-.4q-6.3-.25-9.36-.26t-9.59.26h-.23v7.78q0,4.39.72,5.49a3.14,3.14,0,0,0,2.8,1.09l.72,0,.52,0V54.5c-1.54-.08-3-.15-4.32-.2s-2.5-.06-3.46-.06-2.06,0-3.37.06-2.72.12-4.24.2V52.12l.52,0,.79,0A2.92,2.92,0,0,0,292,51c.47-.77.71-2.5.71-5.21V27.94q0-4.39-.69-5.58a3.26,3.26,0,0,0-3.05-1.15l-.45,0Z"/></g></svg>