<svg xmlns="http://www.w3.org/2000/svg" viewBox="0 0 147.87 205.09"><defs><style>.office-cls-1,.office-cls-3{fill:#fff;}.office-cls-1,.office-cls-2,.office-cls-3,.office-cls-4{stroke:#004181;stroke-miterlimit:10;}.office-cls-1{stroke-width:0.93px;}.office-cls-2,.office-cls-4{fill:none;}.office-cls-2{stroke-width:0.68px;}.office-cls-3{stroke-width:0.79px;}</style></defs><g id="Layer_2" data-name="Layer 2"><g id="Layer_1-2" data-name="Layer 1"><rect class="office-cls-1" x="0.46" y="39.1" width="91.8" height="165.52"/><rect class="office-cls-2" x="10.37" y="89.46" width="12.17" height="12.16"/><rect class="office-cls-2" x="30.32" y="89.46" width="12.17" height="12.16"/><rect class="office-cls-2" x="50.26" y="89.46" width="12.17" height="12.16"/><rect class="office-cls-2" x="10.37" y="70.13" width="12.17" height="12.16"/><rect class="office-cls-2" x="30.32" y="70.13" width="12.17" height="12.16"/><rect class="office-cls-2" x="50.26" y="70.13" width="12.17" height="12.16"/><rect class="office-cls-2" x="10.37" y="130.05" width="12.17" height="12.16"/><rect class="office-cls-2" x="30.32" y="130.05" width="12.17" height="12.16"/><rect class="office-cls-2" x="50.26" y="130.05" width="12.17" height="12.16"/><rect class="office-cls-2" x="10.37" y="149.26" width="12.17" height="12.16"/><rect class="office-cls-2" x="30.32" y="149.26" width="12.17" height="12.16"/><rect class="office-cls-2" x="50.26" y="149.26" width="12.17" height="12.16"/><rect class="office-cls-2" x="10.37" y="169.39" width="12.17" height="12.16"/><rect class="office-cls-2" x="30.32" y="169.39" width="12.17" height="12.16"/><rect class="office-cls-2" x="50.26" y="169.39" width="12.17" height="12.16"/><rect class="office-cls-2" x="10.37" y="110.73" width="12.17" height="12.16"/><rect class="office-cls-2" x="30.32" y="110.73" width="12.17" height="12.16"/><rect class="office-cls-2" x="50.26" y="110.73" width="12.17" height="12.16"/><rect class="office-cls-2" x="10.37" y="50.03" width="12.17" height="12.16"/><rect class="office-cls-2" x="30.32" y="50.03" width="12.17" height="12.16"/><rect class="office-cls-2" x="50.26" y="50.03" width="12.17" height="12.16"/><rect class="office-cls-2" x="69.85" y="89.46" width="12.17" height="12.16"/><rect class="office-cls-2" x="69.85" y="70.13" width="12.17" height="12.16"/><rect class="office-cls-2" x="69.85" y="130.05" width="12.17" height="12.16"/><rect class="office-cls-2" x="69.85" y="149.26" width="12.17" height="12.16"/><rect class="office-cls-2" x="69.85" y="169.39" width="12.17" height="12.16"/><rect class="office-cls-2" x="69.85" y="110.73" width="12.17" height="12.16"/><rect class="office-cls-2" x="69.85" y="50.03" width="12.17" height="12.16"/><rect class="office-cls-3" x="93" y="0.4" width="54.48" height="204.15"/><rect class="office-cls-2" x="104.18" y="30.64" width="12.17" height="12.16"/><rect class="office-cls-2" x="124.13" y="30.64" width="12.17" height="12.16"/><rect class="office-cls-2" x="104.18" y="11.32" width="12.17" height="12.16"/><rect class="office-cls-2" x="124.13" y="11.32" width="12.17" height="12.16"/><rect class="office-cls-2" x="104.18" y="89.46" width="12.17" height="12.16"/><rect class="office-cls-2" x="124.13" y="89.46" width="12.17" height="12.16"/><rect class="office-cls-2" x="104.18" y="70.13" width="12.17" height="12.16"/><rect class="office-cls-2" x="124.13" y="70.13" width="12.17" height="12.16"/><rect class="office-cls-2" x="104.18" y="130.05" width="12.17" height="12.16"/><rect class="office-cls-2" x="124.13" y="130.05" width="12.17" height="12.16"/><rect class="office-cls-2" x="104.18" y="149.26" width="12.17" height="12.16"/><rect class="office-cls-2" x="124.13" y="149.26" width="12.17" height="12.16"/><rect class="office-cls-2" x="104.18" y="169.39" width="12.17" height="12.16"/><rect class="office-cls-2" x="124.13" y="169.39" width="12.17" height="12.16"/><rect class="office-cls-2" x="104.18" y="110.73" width="12.17" height="12.16"/><rect class="office-cls-2" x="124.13" y="110.73" width="12.17" height="12.16"/><rect class="office-cls-2" x="104.18" y="50.03" width="12.17" height="12.16"/><rect class="office-cls-2" x="124.13" y="50.03" width="12.17" height="12.16"/><polyline class="office-cls-4" points="37.06 204.22 37.06 188.05 56.21 188.05 56.21 204.22"/><line class="office-cls-4" x1="46.36" y1="188.05" x2="46.36" y2="204.22"/><polyline class="office-cls-4" points="110.56 204.22 110.56 188.05 129.71 188.05 129.71 204.22"/><line class="office-cls-4" x1="119.86" y1="188.05" x2="119.86" y2="204.22"/></g></g></svg>