<svg xmlns="http://www.w3.org/2000/svg" viewBox="0 0 219.78 349.11"><defs><style>.off-cls-1{opacity:0.9;}.off-cls-2{fill:#606060;}.off-cls-3,.off-cls-5{fill:#fff;}.off-cls-3,.off-cls-4,.off-cls-5,.off-cls-6{stroke:#004181;stroke-miterlimit:10;}.off-cls-3{stroke-width:0.93px;}.off-cls-4,.off-cls-6{fill:none;}.off-cls-4{stroke-width:0.68px;}.off-cls-5{stroke-width:0.79px;}.off-cls-7{font-size:22px;fill:#004181;font-family:Graphik-Medium, Graphik;font-weight:500;}</style></defs><g id="Layer_2" data-name="Layer 2"><g id="Layer_1-2" data-name="Layer 1"><g class="off-cls-1"><rect class="off-cls-2" width="219.78" height="251.78" rx="16.59"/></g><rect class="off-cls-3" x="37.32" y="66.46" width="91.8" height="165.52"/><rect class="off-cls-4" x="47.23" y="116.82" width="12.17" height="12.16"/><rect class="off-cls-4" x="67.17" y="116.82" width="12.17" height="12.16"/><rect class="off-cls-4" x="87.12" y="116.82" width="12.17" height="12.16"/><rect class="off-cls-4" x="47.23" y="97.49" width="12.17" height="12.16"/><rect class="off-cls-4" x="67.17" y="97.49" width="12.17" height="12.16"/><rect class="off-cls-4" x="87.12" y="97.49" width="12.17" height="12.16"/><rect class="off-cls-4" x="47.23" y="157.41" width="12.17" height="12.16"/><rect class="off-cls-4" x="67.17" y="157.41" width="12.17" height="12.16"/><rect class="off-cls-4" x="87.12" y="157.41" width="12.17" height="12.16"/><rect class="off-cls-4" x="47.23" y="176.62" width="12.17" height="12.16"/><rect class="off-cls-4" x="67.17" y="176.62" width="12.17" height="12.16"/><rect class="off-cls-4" x="87.12" y="176.62" width="12.17" height="12.16"/><rect class="off-cls-4" x="47.23" y="196.75" width="12.17" height="12.16"/><rect class="off-cls-4" x="67.17" y="196.75" width="12.17" height="12.16"/><rect class="off-cls-4" x="87.12" y="196.75" width="12.17" height="12.16"/><rect class="off-cls-4" x="47.23" y="138.09" width="12.17" height="12.16"/><rect class="off-cls-4" x="67.17" y="138.09" width="12.17" height="12.16"/><rect class="off-cls-4" x="87.12" y="138.09" width="12.17" height="12.16"/><rect class="off-cls-4" x="47.23" y="77.39" width="12.17" height="12.16"/><rect class="off-cls-4" x="67.17" y="77.39" width="12.17" height="12.16"/><rect class="off-cls-4" x="87.12" y="77.39" width="12.17" height="12.16"/><rect class="off-cls-4" x="106.71" y="116.82" width="12.17" height="12.16"/><rect class="off-cls-4" x="106.71" y="97.49" width="12.17" height="12.16"/><rect class="off-cls-4" x="106.71" y="157.41" width="12.17" height="12.16"/><rect class="off-cls-4" x="106.71" y="176.62" width="12.17" height="12.16"/><rect class="off-cls-4" x="106.71" y="196.75" width="12.17" height="12.16"/><rect class="off-cls-4" x="106.71" y="138.09" width="12.17" height="12.16"/><rect class="off-cls-4" x="106.71" y="77.39" width="12.17" height="12.16"/><rect class="off-cls-5" x="129.86" y="27.76" width="54.48" height="204.15"/><rect class="off-cls-4" x="141.04" y="58" width="12.17" height="12.16"/><rect class="off-cls-4" x="160.98" y="58" width="12.17" height="12.16"/><rect class="off-cls-4" x="141.04" y="38.68" width="12.17" height="12.16"/><rect class="off-cls-4" x="160.98" y="38.68" width="12.17" height="12.16"/><rect class="off-cls-4" x="141.04" y="116.82" width="12.17" height="12.16"/><rect class="off-cls-4" x="160.98" y="116.82" width="12.17" height="12.16"/><rect class="off-cls-4" x="141.04" y="97.49" width="12.17" height="12.16"/><rect class="off-cls-4" x="160.98" y="97.49" width="12.17" height="12.16"/><rect class="off-cls-4" x="141.04" y="157.41" width="12.17" height="12.16"/><rect class="off-cls-4" x="160.98" y="157.41" width="12.17" height="12.16"/><rect class="off-cls-4" x="141.04" y="176.62" width="12.17" height="12.16"/><rect class="off-cls-4" x="160.98" y="176.62" width="12.17" height="12.16"/><rect class="off-cls-4" x="141.04" y="196.75" width="12.17" height="12.16"/><rect class="off-cls-4" x="160.98" y="196.75" width="12.17" height="12.16"/><rect class="off-cls-4" x="141.04" y="138.09" width="12.17" height="12.16"/><rect class="off-cls-4" x="160.98" y="138.09" width="12.17" height="12.16"/><rect class="off-cls-4" x="141.04" y="77.39" width="12.17" height="12.16"/><rect class="off-cls-4" x="160.98" y="77.39" width="12.17" height="12.16"/><polyline class="off-cls-6" points="73.92 231.58 73.92 215.41 93.07 215.41 93.07 231.58"/><line class="off-cls-6" x1="83.22" y1="215.41" x2="83.22" y2="231.58"/><polyline class="off-cls-6" points="147.42 231.58 147.42 215.41 166.57 215.41 166.57 231.58"/><line class="off-cls-6" x1="156.72" y1="215.41" x2="156.72" y2="231.58"/><text class="off-cls-7" transform="translate(70.69 291.69)">OFFICE</text></g></g></svg>