<svg xmlns="http://www.w3.org/2000/svg" width="70" height="66" viewBox="0 0 70 66" fill="none">
  <path d="M48.2998 8.08984H21.75V14.0999H48.2998V8.08984Z" fill="white" style="fill:white;fill-opacity:1;"/>
  <path d="M48.1802 8.20996V13.97H21.8799V8.20996H48.1802ZM48.4302 7.95996H21.6299V14.22H48.4302V7.95996Z" fill="#033E80" style="fill:#033E80;fill:color(display-p3 0.0118 0.2431 0.5020);fill-opacity:1;"/>
  <path d="M51.8398 5.64014H18.21V7.46008H51.8398V5.64014Z" fill="white" style="fill:white;fill-opacity:1;"/>
  <path d="M51.7202 5.76001V7.32996H18.3398V5.76001H51.7202ZM51.9702 5.51001H18.0898V7.57996H51.9702V5.51001Z" fill="#033E80" style="fill:#033E80;fill:color(display-p3 0.0118 0.2431 0.5020);fill-opacity:1;"/>
  <path d="M67.0298 17.7798H3.02979V62.4998H67.0298V17.7798Z" fill="white" style="fill:white;fill-opacity:1;"/>
  <path d="M66.9102 17.8999V62.3699H3.16016V17.8999H66.9102ZM67.1602 17.6499H2.91016V62.6199H67.1602V17.6499Z" fill="#033E80" style="fill:#033E80;fill:color(display-p3 0.0118 0.2431 0.5020);fill-opacity:1;"/>
  <path d="M27.6602 62.4199V39.6699H42.3999V62.4199" stroke="#033E80" style="stroke:#033E80;stroke:color(display-p3 0.0118 0.2431 0.5020);stroke-opacity:1;" stroke-width="0.25" stroke-miterlimit="10"/>
  <path d="M34.8198 39.6699V62.4199" stroke="#033E80" style="stroke:#033E80;stroke:color(display-p3 0.0118 0.2431 0.5020);stroke-opacity:1;" stroke-width="0.25" stroke-miterlimit="10"/>
  <path d="M53.3301 47.7402H45.7598" stroke="#033E80" style="stroke:#033E80;stroke:color(display-p3 0.0118 0.2431 0.5020);stroke-opacity:1;" stroke-width="0.25" stroke-miterlimit="10"/>
  <path d="M53.3301 52.9702H45.7598" stroke="#033E80" style="stroke:#033E80;stroke:color(display-p3 0.0118 0.2431 0.5020);stroke-opacity:1;" stroke-width="0.25" stroke-miterlimit="10"/>
  <path d="M49.46 43.6602V57.9601" stroke="#033E80" style="stroke:#033E80;stroke:color(display-p3 0.0118 0.2431 0.5020);stroke-opacity:1;" stroke-width="0.25" stroke-miterlimit="10"/>
  <path d="M53.25 43.6702H45.6699V57.9901H53.25V43.6702Z" stroke="#033E80" style="stroke:#033E80;stroke:color(display-p3 0.0118 0.2431 0.5020);stroke-opacity:1;" stroke-width="0.25" stroke-miterlimit="10"/>
  <path d="M64.3599 47.7402H56.79" stroke="#033E80" style="stroke:#033E80;stroke:color(display-p3 0.0118 0.2431 0.5020);stroke-opacity:1;" stroke-width="0.25" stroke-miterlimit="10"/>
  <path d="M64.3599 52.9702H56.79" stroke="#033E80" style="stroke:#033E80;stroke:color(display-p3 0.0118 0.2431 0.5020);stroke-opacity:1;" stroke-width="0.25" stroke-miterlimit="10"/>
  <path d="M60.4902 43.6602V57.9601" stroke="#033E80" style="stroke:#033E80;stroke:color(display-p3 0.0118 0.2431 0.5020);stroke-opacity:1;" stroke-width="0.25" stroke-miterlimit="10"/>
  <path d="M64.2798 43.6702H56.7002V57.9901H64.2798V43.6702Z" stroke="#033E80" style="stroke:#033E80;stroke:color(display-p3 0.0118 0.2431 0.5020);stroke-opacity:1;" stroke-width="0.25" stroke-miterlimit="10"/>
  <path d="M13.73 47.7402H6.16016" stroke="#033E80" style="stroke:#033E80;stroke:color(display-p3 0.0118 0.2431 0.5020);stroke-opacity:1;" stroke-width="0.25" stroke-miterlimit="10"/>
  <path d="M13.73 52.9702H6.16016" stroke="#033E80" style="stroke:#033E80;stroke:color(display-p3 0.0118 0.2431 0.5020);stroke-opacity:1;" stroke-width="0.25" stroke-miterlimit="10"/>
  <path d="M9.85986 43.6602V57.9601" stroke="#033E80" style="stroke:#033E80;stroke:color(display-p3 0.0118 0.2431 0.5020);stroke-opacity:1;" stroke-width="0.25" stroke-miterlimit="10"/>
  <path d="M13.6499 43.6702H6.06982V57.9901H13.6499V43.6702Z" stroke="#033E80" style="stroke:#033E80;stroke:color(display-p3 0.0118 0.2431 0.5020);stroke-opacity:1;" stroke-width="0.25" stroke-miterlimit="10"/>
  <path d="M24.77 47.7402H17.2002" stroke="#033E80" style="stroke:#033E80;stroke:color(display-p3 0.0118 0.2431 0.5020);stroke-opacity:1;" stroke-width="0.25" stroke-miterlimit="10"/>
  <path d="M24.77 52.9702H17.2002" stroke="#033E80" style="stroke:#033E80;stroke:color(display-p3 0.0118 0.2431 0.5020);stroke-opacity:1;" stroke-width="0.25" stroke-miterlimit="10"/>
  <path d="M20.8999 43.6602V57.9601" stroke="#033E80" style="stroke:#033E80;stroke:color(display-p3 0.0118 0.2431 0.5020);stroke-opacity:1;" stroke-width="0.25" stroke-miterlimit="10"/>
  <path d="M24.6802 43.6702H17.1001V57.9901H24.6802V43.6702Z" stroke="#033E80" style="stroke:#033E80;stroke:color(display-p3 0.0118 0.2431 0.5020);stroke-opacity:1;" stroke-width="0.25" stroke-miterlimit="10"/>
  <path d="M53.3301 26.6001H45.7598" stroke="#033E80" style="stroke:#033E80;stroke:color(display-p3 0.0118 0.2431 0.5020);stroke-opacity:1;" stroke-width="0.25" stroke-miterlimit="10"/>
  <path d="M53.3301 31.8301H45.7598" stroke="#033E80" style="stroke:#033E80;stroke:color(display-p3 0.0118 0.2431 0.5020);stroke-opacity:1;" stroke-width="0.25" stroke-miterlimit="10"/>
  <path d="M49.46 22.51V36.8101" stroke="#033E80" style="stroke:#033E80;stroke:color(display-p3 0.0118 0.2431 0.5020);stroke-opacity:1;" stroke-width="0.25" stroke-miterlimit="10"/>
  <path d="M53.25 22.52H45.6699V36.84H53.25V22.52Z" stroke="#033E80" style="stroke:#033E80;stroke:color(display-p3 0.0118 0.2431 0.5020);stroke-opacity:1;" stroke-width="0.25" stroke-miterlimit="10"/>
  <path d="M64.3599 26.6001H56.79" stroke="#033E80" style="stroke:#033E80;stroke:color(display-p3 0.0118 0.2431 0.5020);stroke-opacity:1;" stroke-width="0.25" stroke-miterlimit="10"/>
  <path d="M64.3599 31.8301H56.79" stroke="#033E80" style="stroke:#033E80;stroke:color(display-p3 0.0118 0.2431 0.5020);stroke-opacity:1;" stroke-width="0.25" stroke-miterlimit="10"/>
  <path d="M60.4902 22.51V36.8101" stroke="#033E80" style="stroke:#033E80;stroke:color(display-p3 0.0118 0.2431 0.5020);stroke-opacity:1;" stroke-width="0.25" stroke-miterlimit="10"/>
  <path d="M64.2798 22.52H56.7002V36.84H64.2798V22.52Z" stroke="#033E80" style="stroke:#033E80;stroke:color(display-p3 0.0118 0.2431 0.5020);stroke-opacity:1;" stroke-width="0.25" stroke-miterlimit="10"/>
  <path d="M13.73 26.6001H6.16016" stroke="#033E80" style="stroke:#033E80;stroke:color(display-p3 0.0118 0.2431 0.5020);stroke-opacity:1;" stroke-width="0.25" stroke-miterlimit="10"/>
  <path d="M13.73 31.8301H6.16016" stroke="#033E80" style="stroke:#033E80;stroke:color(display-p3 0.0118 0.2431 0.5020);stroke-opacity:1;" stroke-width="0.25" stroke-miterlimit="10"/>
  <path d="M9.85986 22.51V36.8101" stroke="#033E80" style="stroke:#033E80;stroke:color(display-p3 0.0118 0.2431 0.5020);stroke-opacity:1;" stroke-width="0.25" stroke-miterlimit="10"/>
  <path d="M13.6499 22.52H6.06982V36.84H13.6499V22.52Z" stroke="#033E80" style="stroke:#033E80;stroke:color(display-p3 0.0118 0.2431 0.5020);stroke-opacity:1;" stroke-width="0.25" stroke-miterlimit="10"/>
  <path d="M24.77 26.6001H17.2002" stroke="#033E80" style="stroke:#033E80;stroke:color(display-p3 0.0118 0.2431 0.5020);stroke-opacity:1;" stroke-width="0.25" stroke-miterlimit="10"/>
  <path d="M24.77 31.8301H17.2002" stroke="#033E80" style="stroke:#033E80;stroke:color(display-p3 0.0118 0.2431 0.5020);stroke-opacity:1;" stroke-width="0.25" stroke-miterlimit="10"/>
  <path d="M20.8999 22.51V36.8101" stroke="#033E80" style="stroke:#033E80;stroke:color(display-p3 0.0118 0.2431 0.5020);stroke-opacity:1;" stroke-width="0.25" stroke-miterlimit="10"/>
  <path d="M24.6802 22.52H17.1001V36.84H24.6802V22.52Z" stroke="#033E80" style="stroke:#033E80;stroke:color(display-p3 0.0118 0.2431 0.5020);stroke-opacity:1;" stroke-width="0.25" stroke-miterlimit="10"/>
  <path d="M35.0298 37.2001C30.8598 37.2001 27.4702 33.8101 27.4702 29.6401C27.4702 25.4701 30.8598 22.0801 35.0298 22.0801C39.1998 22.0801 42.5898 25.4701 42.5898 29.6401C42.5898 33.8101 39.1998 37.2001 35.0298 37.2001Z" fill="white" style="fill:white;fill-opacity:1;"/>
  <path d="M35.0298 22.2C39.1298 22.2 42.4702 25.54 42.4702 29.64C42.4702 33.74 39.1298 37.08 35.0298 37.08C30.9298 37.08 27.5898 33.74 27.5898 29.64C27.5898 25.54 30.9298 22.2 35.0298 22.2ZM35.0298 21.95C30.7798 21.95 27.3398 25.39 27.3398 29.64C27.3398 33.89 30.7798 37.33 35.0298 37.33C39.2798 37.33 42.7202 33.89 42.7202 29.64C42.7202 25.39 39.2798 21.95 35.0298 21.95Z" fill="#033E80" style="fill:#033E80;fill:color(display-p3 0.0118 0.2431 0.5020);fill-opacity:1;"/>
  <path d="M69.5298 14.9497H0.529785V16.7698H69.5298V14.9497Z" fill="white" style="fill:white;fill-opacity:1;"/>
  <path d="M69.4102 15.0698V16.6399H0.660156V15.0698H69.4102ZM69.6602 14.8198H0.410156V16.8899H69.6602V14.8198Z" fill="#033E80" style="fill:#033E80;fill:color(display-p3 0.0118 0.2431 0.5020);fill-opacity:1;"/>
  <path d="M69.2798 62.0698H0.790039V64.6599H69.2798V62.0698Z" fill="white" style="fill:white;fill-opacity:1;"/>
  <path d="M68.8901 62.45V64.28H1.16016V62.45H68.8901ZM69.6602 61.6899H0.410156V65.05H69.6602V61.6899Z" fill="#033E80" style="fill:#033E80;fill:color(display-p3 0.0118 0.2431 0.5020);fill-opacity:1;"/>
  <path d="M36.0298 5.63V2.71997H41.0098V0.339966H36.0298V0.219971H35.4102V5.63" fill="#033E80" style="fill:#033E80;fill:color(display-p3 0.0118 0.2431 0.5020);fill-opacity:1;"/>
</svg>
