<svg xmlns="http://www.w3.org/2000/svg" viewBox="0 0 164.38 164.03"><defs><style>.school-cls-1,.school-cls-5{fill:#fff;}.school-cls-2{fill:#004181;}.school-cls-3,.school-cls-4{fill:none;}.school-cls-3{stroke:#004181;}.school-cls-3,.school-cls-4,.school-cls-5{stroke-miterlimit:10;}.school-cls-4,.school-cls-5{stroke:#fff;}.school-cls-4{stroke-width:2px;}.school-cls-5{stroke-width:0.62px;}</style></defs><g id="Layer_2" data-name="Layer 2"><g id="Layer_1-2" data-name="Layer 1"><rect class="school-cls-1" x="50.68" y="28.84" width="63.02" height="14.26"/><path class="school-cls-2" d="M113.4,29.14V42.8H51V29.14H113.4m.6-.6H50.38V43.4H114V28.54Z"/><rect class="school-cls-1" x="42.28" y="22.72" width="79.83" height="4.32"/><path class="school-cls-2" d="M121.8,23v3.71H42.58V23H121.8m.6-.6H42v4.91H122.4V22.42Z"/><rect class="school-cls-1" x="6.49" y="52.1" width="151.39" height="105.64"/><path class="school-cls-2" d="M157.33,52.65V157.18H7.05V52.65H157.33m1.11-1.11H5.94V158.29h152.5V51.54Z"/><polyline class="school-cls-3" points="64.69 157.79 64.69 103.79 99.69 103.79 99.69 157.79"/><line class="school-cls-3" x1="81.69" y1="103.79" x2="81.69" y2="157.79"/><path class="school-cls-3" d="M125.61,123h0Z"/><path class="school-cls-3" d="M125.61,135.38h0Z"/><line class="school-cls-3" x1="116.43" y1="113.27" x2="116.43" y2="147.2"/><rect class="school-cls-3" x="107.43" y="113.29" width="18" height="34"/><path class="school-cls-3" d="M151.81,123h0Z"/><path class="school-cls-3" d="M151.81,135.38h0Z"/><line class="school-cls-3" x1="142.62" y1="113.27" x2="142.62" y2="147.2"/><rect class="school-cls-3" x="133.62" y="113.29" width="18" height="34"/><path class="school-cls-3" d="M31.63,123h0Z"/><path class="school-cls-3" d="M31.63,135.38h0Z"/><line class="school-cls-3" x1="22.44" y1="113.27" x2="22.44" y2="147.2"/><rect class="school-cls-3" x="13.44" y="113.29" width="18" height="34"/><path class="school-cls-3" d="M57.82,123h0Z"/><path class="school-cls-3" d="M57.82,135.38h0Z"/><line class="school-cls-3" x1="48.64" y1="113.27" x2="48.64" y2="147.2"/><rect class="school-cls-3" x="39.64" y="113.29" width="18" height="34"/><path class="school-cls-3" d="M125.61,72.78h0Z"/><path class="school-cls-3" d="M125.61,85.19h0Z"/><line class="school-cls-3" x1="116.43" y1="63.08" x2="116.43" y2="97.02"/><rect class="school-cls-3" x="107.43" y="63.11" width="18" height="34"/><path class="school-cls-3" d="M151.81,72.78h0Z"/><path class="school-cls-3" d="M151.81,85.19h0Z"/><line class="school-cls-3" x1="142.62" y1="63.08" x2="142.62" y2="97.02"/><rect class="school-cls-3" x="133.62" y="63.11" width="18" height="34"/><path class="school-cls-3" d="M31.63,72.78h0Z"/><path class="school-cls-3" d="M31.63,85.19h0Z"/><line class="school-cls-3" x1="22.44" y1="63.08" x2="22.44" y2="97.02"/><rect class="school-cls-3" x="13.44" y="63.11" width="18" height="34"/><path class="school-cls-3" d="M57.82,72.78h0Z"/><path class="school-cls-3" d="M57.82,85.19h0Z"/><line class="school-cls-3" x1="48.64" y1="63.08" x2="48.64" y2="97.02"/><rect class="school-cls-3" x="39.64" y="63.11" width="18" height="34"/><circle class="school-cls-1" cx="82.19" cy="79.99" r="17.75"/><path class="school-cls-2" d="M82.19,62.74A17.25,17.25,0,1,1,64.94,80,17.27,17.27,0,0,1,82.19,62.74m0-1A18.25,18.25,0,1,0,100.44,80,18.25,18.25,0,0,0,82.19,61.74Z"/><rect class="school-cls-1" x="0.3" y="45.12" width="163.78" height="4.32"/><path class="school-cls-2" d="M163.78,45.42v3.72H.6V45.42H163.78m.6-.6H0v4.92H164.38V44.82Z"/><rect class="school-cls-1" x="0.38" y="156.45" width="163.61" height="7.21"/><path class="school-cls-2" d="M163.61,156.83v6.44H.76v-6.44H163.61m.77-.76H0v8H164.38v-8Z"/><line class="school-cls-4" x1="82.29" x2="82.29" y2="22.96"/><polyline class="school-cls-5" points="82.54 0.34 96.58 0.34 96.58 7.09 82.36 7.09"/></g></g></svg>