<svg xmlns="http://www.w3.org/2000/svg" viewBox="0 0 219.78 349.11"><defs><style>.schol-cls-1{opacity:0.9;}.schol-cls-2{fill:#606060;}.schol-cls-3,.schol-cls-7{fill:#fff;}.schol-cls-4,.schol-cls-8{fill:#004181;}.schol-cls-5,.schol-cls-6{fill:none;}.schol-cls-5{stroke:#004181;}.schol-cls-5,.schol-cls-6,.schol-cls-7{stroke-miterlimit:10;}.schol-cls-6,.schol-cls-7{stroke:#fff;}.schol-cls-6{stroke-width:2px;}.schol-cls-7{stroke-width:0.62px;}.schol-cls-8{font-size:22px;font-family:Graphik-Medium, Graphik;font-weight:500;}.schol-cls-9{letter-spacing:-0.07em;}.schol-cls-10{letter-spacing:-0.01em;}.schol-cls-11{letter-spacing:0em;}</style></defs><g id="Layer_2" data-name="Layer 2"><g id="Layer_1-2" data-name="Layer 1"><g class="schol-cls-1"><rect class="schol-cls-2" width="219.78" height="251.78" rx="16.59"/></g><rect class="schol-cls-3" x="78.4" y="94.09" width="63.02" height="14.26"/><path class="schol-cls-4" d="M141.12,94.39v13.66H78.71V94.39h62.41m.6-.6H78.11v14.86h63.61V93.79Z"/><rect class="schol-cls-3" x="70" y="87.97" width="79.83" height="4.32"/><path class="schol-cls-4" d="M149.53,88.27V92H70.3V88.27h79.23m.6-.6H69.7v4.91h80.43V87.67Z"/><rect class="schol-cls-3" x="34.22" y="117.35" width="151.39" height="105.64"/><path class="schol-cls-4" d="M185.05,117.9V222.43H34.77V117.9H185.05m1.11-1.11H33.66V223.54h152.5V116.79Z"/><polyline class="schol-cls-5" points="92.41 223.04 92.41 169.04 127.41 169.04 127.41 223.04"/><line class="schol-cls-5" x1="109.41" y1="169.04" x2="109.41" y2="223.04"/><path class="schol-cls-5" d="M153.34,188.22h0Z"/><path class="schol-cls-5" d="M153.34,200.63h0Z"/><line class="schol-cls-5" x1="144.15" y1="178.51" x2="144.15" y2="212.45"/><rect class="schol-cls-5" x="135.15" y="178.54" width="18" height="34"/><path class="schol-cls-5" d="M179.53,188.22h0Z"/><path class="schol-cls-5" d="M179.53,200.63h0Z"/><line class="schol-cls-5" x1="170.35" y1="178.51" x2="170.35" y2="212.45"/><rect class="schol-cls-5" x="161.35" y="178.54" width="18" height="34"/><path class="schol-cls-5" d="M59.35,188.22h0Z"/><path class="schol-cls-5" d="M59.35,200.63h0Z"/><line class="schol-cls-5" x1="50.17" y1="178.51" x2="50.17" y2="212.45"/><rect class="schol-cls-5" x="41.17" y="178.54" width="18" height="34"/><path class="schol-cls-5" d="M85.55,188.22h0Z"/><path class="schol-cls-5" d="M85.55,200.63h0Z"/><line class="schol-cls-5" x1="76.36" y1="178.51" x2="76.36" y2="212.45"/><rect class="schol-cls-5" x="67.36" y="178.54" width="18" height="34"/><path class="schol-cls-5" d="M153.34,138h0Z"/><path class="schol-cls-5" d="M153.34,150.44h0Z"/><line class="schol-cls-5" x1="144.15" y1="128.33" x2="144.15" y2="162.27"/><rect class="schol-cls-5" x="135.15" y="128.35" width="18" height="34"/><path class="schol-cls-5" d="M179.53,138h0Z"/><path class="schol-cls-5" d="M179.53,150.44h0Z"/><line class="schol-cls-5" x1="170.35" y1="128.33" x2="170.35" y2="162.27"/><rect class="schol-cls-5" x="161.35" y="128.35" width="18" height="34"/><path class="schol-cls-5" d="M59.35,138h0Z"/><path class="schol-cls-5" d="M59.35,150.44h0Z"/><line class="schol-cls-5" x1="50.17" y1="128.33" x2="50.17" y2="162.27"/><rect class="schol-cls-5" x="41.17" y="128.35" width="18" height="34"/><path class="schol-cls-5" d="M85.55,138h0Z"/><path class="schol-cls-5" d="M85.55,150.44h0Z"/><line class="schol-cls-5" x1="76.36" y1="128.33" x2="76.36" y2="162.27"/><rect class="schol-cls-5" x="67.36" y="128.35" width="18" height="34"/><circle class="schol-cls-3" cx="109.91" cy="145.24" r="17.75"/><path class="schol-cls-4" d="M109.91,128a17.25,17.25,0,1,1-17.25,17.25A17.27,17.27,0,0,1,109.91,128m0-1a18.25,18.25,0,1,0,18.25,18.25A18.25,18.25,0,0,0,109.91,127Z"/><rect class="schol-cls-3" x="28.02" y="110.37" width="163.78" height="4.32"/><path class="schol-cls-4" d="M191.5,110.67v3.72H28.32v-3.72H191.5m.6-.6H27.72V115H192.1v-4.92Z"/><rect class="schol-cls-3" x="28.11" y="221.7" width="163.61" height="7.21"/><path class="schol-cls-4" d="M191.34,222.08v6.44H28.49v-6.44H191.34m.76-.77H27.72v8H192.1v-8Z"/><line class="schol-cls-6" x1="110.01" y1="65.25" x2="110.01" y2="88.21"/><polyline class="schol-cls-7" points="110.26 65.59 124.3 65.59 124.3 72.34 110.08 72.34"/><text class="schol-cls-8" transform="translate(43.39 291.69)"><tspan class="schol-cls-9">K</tspan><tspan class="schol-cls-10" x="12.96" y="0">-</tspan><tspan x="21.1" y="0">12 </tspan><tspan class="schol-cls-11" x="48.27" y="0">S</tspan><tspan x="62.13" y="0">CHOOL</tspan></text></g></g></svg>