<svg id="sound-icon" xmlns="http://www.w3.org/2000/svg" width="80" height="80" viewBox="0 0 24 30"><path d="M17.9 6.2c-.3-.4-.3-1 .1-1.3.4-.4 1.1-.4 1.5.1C21 6.8 22 9.3 22 12s-1 5.2-2.6 7.1c-.4.5-1.1.5-1.5.1-.4-.4-.4-.9-.1-1.3 1.3-1.6 2.1-3.6 2.1-5.8s-.7-4.3-2-5.9zM16 12c0 1.1-.4 2.1-1 3-.3.4-.3 1 .1 1.3.4.4 1.1.4 1.5-.1.9-1.2 1.4-2.6 1.4-4.2s-.5-3-1.4-4.2c-.4-.5-1.1-.5-1.5-.1-.4.4-.4.9-.1 1.3.6.9 1 1.9 1 3zm-3-2.2l-.1.1c-.6.6-.9 1.3-.9 2.1s.3 1.5.9 2.1l.1.1c.6-.5 1-1.3 1-2.2s-.4-1.7-1-2.2zM9.4 5.3L6 8H3c-.6 0-1 .4-1 1v6c0 .6.4 1 1 1h3l3.4 2.7c.7.5 1.6.1 1.6-.8V6.1c0-.9-1-1.3-1.6-.8z"/></svg>