<svg xmlns="http://www.w3.org/2000/svg" viewBox="0 0 178.51 225.47"><defs><style>.university-cls-1,.university-cls-10,.university-cls-8,.university-cls-9{fill:none;}.university-cls-1,.university-cls-10,.university-cls-4,.university-cls-5,.university-cls-6,.university-cls-7,.university-cls-8,.university-cls-9{stroke:#004181;stroke-miterlimit:10;}.university-cls-1{stroke-width:0.62px;}.university-cls-2,.university-cls-4,.university-cls-5,.university-cls-6,.university-cls-7{fill:#fff;}.university-cls-3{fill:#004181;}.university-cls-4{stroke-width:0.21px;}.university-cls-5{stroke-width:0.21px;}.university-cls-6{stroke-width:0.21px;}.university-cls-7{stroke-width:0.2px;}.university-cls-9{stroke-width:0.83px;}.university-cls-10{stroke-width:1.02px;}</style></defs><g id="Layer_2" data-name="Layer 2"><g id="Layer_1-2" data-name="Layer 1"><polyline class="university-cls-1" points="71.75 205.34 71.75 184.07 106.75 184.07 106.75 205.34"/><line class="university-cls-1" x1="88.75" y1="184.07" x2="88.75" y2="205.33"/><rect class="university-cls-2" x="13.5" y="119.63" width="151.5" height="85.2"/><path class="university-cls-3" d="M164.51,120.13v84.21H14V120.13H164.51m1-1H13v86.19H165.5V119.14Z"/><polygon class="university-cls-4" points="171.44 118.24 7.06 118.24 9.16 111.23 169.34 111.23 171.44 118.24"/><rect class="university-cls-5" x="4.06" y="213.85" width="170.38" height="4.45"/><rect class="university-cls-6" x="0.11" y="220.92" width="178.29" height="4.45"/><rect class="university-cls-7" x="8.99" y="206.83" width="160.53" height="4.38"/><path class="university-cls-8" d="M36.17,137.7h0Z"/><line class="university-cls-8" x1="26.98" y1="128" x2="26.98" y2="147.92"/><rect class="university-cls-8" x="17.98" y="128.02" width="18" height="19.98"/><path class="university-cls-8" d="M67.26,137.7h0Z"/><line class="university-cls-8" x1="58.07" y1="128" x2="58.07" y2="147.92"/><rect class="university-cls-8" x="49.07" y="128.02" width="18" height="19.98"/><path class="university-cls-8" d="M98.35,137.7h0Z"/><line class="university-cls-8" x1="89.16" y1="128" x2="89.16" y2="147.92"/><rect class="university-cls-8" x="80.16" y="128.02" width="18" height="19.98"/><path class="university-cls-8" d="M129.43,137.7h0Z"/><line class="university-cls-8" x1="120.25" y1="128" x2="120.25" y2="147.92"/><rect class="university-cls-8" x="111.25" y="128.02" width="18" height="19.98"/><path class="university-cls-8" d="M160.52,137.7h0Z"/><line class="university-cls-8" x1="151.34" y1="128" x2="151.34" y2="147.92"/><rect class="university-cls-8" x="142.34" y="128.02" width="18" height="19.98"/><rect class="university-cls-2" x="66.76" y="44.98" width="44.98" height="63.53"/><path class="university-cls-3" d="M111.51,45.22v63.06H67V45.22h44.51m.47-.47H66.53v64H112v-64Z"/><rect class="university-cls-2" x="72.85" y="15.65" width="32.8" height="27.44"/><path class="university-cls-3" d="M105.52,15.78V43H73V15.78h32.54m.27-.26H72.72v27.7h33.07V15.52Z"/><polygon class="university-cls-2" points="68.46 13.24 88.71 0.14 110.03 13.24 68.46 13.24"/><path class="university-cls-3" d="M88.71.28l20.9,12.84H68.86L88.71.28m0-.28L68.06,13.36h42.39L88.71,0Z"/><circle class="university-cls-2" cx="89.25" cy="29.37" r="10.9"/><path class="university-cls-3" d="M89.25,19a10.4,10.4,0,1,1-10.4,10.4A10.41,10.41,0,0,1,89.25,19m0-1a11.4,11.4,0,1,0,11.4,11.4A11.41,11.41,0,0,0,89.25,18Z"/><line class="university-cls-8" x1="96.47" y1="22.91" x2="89.16" y2="29.37"/><line class="university-cls-8" x1="84.65" y1="24.76" x2="89.5" y2="29.71"/><line class="university-cls-9" x1="74.81" y1="55.15" x2="103.7" y2="55.15"/><line class="university-cls-10" x1="83.8" y1="98.82" x2="83.8" y2="54.71"/><line class="university-cls-10" x1="74.5" y1="98.82" x2="74.5" y2="54.71"/><line class="university-cls-10" x1="93.77" y1="98.82" x2="93.77" y2="54.71"/><line class="university-cls-10" x1="103.73" y1="98.82" x2="103.73" y2="54.71"/><line class="university-cls-9" x1="75.12" y1="65.96" x2="104" y2="65.96"/><line class="university-cls-9" x1="75.12" y1="76.76" x2="104" y2="76.76"/><line class="university-cls-9" x1="75.12" y1="87.56" x2="104" y2="87.56"/><line class="university-cls-9" x1="74.81" y1="98.36" x2="103.7" y2="98.36"/><polyline class="university-cls-8" points="71.75 205.34 71.75 168.07 106.75 168.07 106.75 205.34"/><line class="university-cls-8" x1="88.75" y1="168.07" x2="88.75" y2="205.33"/><path class="university-cls-8" d="M142.53,194.5v0Z"/><path class="university-cls-8" d="M132,194.5v0Z"/><line class="university-cls-8" x1="152.42" y1="181.15" x2="121" y2="181.15"/><rect class="university-cls-8" x="123.57" y="165.41" width="26.16" height="31.48" transform="translate(317.81 44.49) rotate(90)"/><path class="university-cls-8" d="M47.7,194.5v0Z"/><path class="university-cls-8" d="M37.12,194.5v0Z"/><line class="university-cls-8" x1="57.59" y1="181.15" x2="26.17" y2="181.15"/><rect class="university-cls-8" x="28.74" y="165.41" width="26.16" height="31.48" transform="translate(222.98 139.32) rotate(90)"/></g></g></svg>