<svg xmlns="http://www.w3.org/2000/svg" viewBox="0 0 219.78 349.11"><defs><style>.uni-cls-1{opacity:0.9;}.uni-cls-2{fill:#606060;}.uni-cls-10,.uni-cls-11,.uni-cls-12,.uni-cls-3{fill:none;}.uni-cls-10,.uni-cls-11,.uni-cls-12,.uni-cls-3,.uni-cls-6,.uni-cls-7,.uni-cls-8,.uni-cls-9{stroke:#004181;stroke-miterlimit:10;}.uni-cls-3{stroke-width:0.62px;}.uni-cls-4,.uni-cls-6,.uni-cls-7,.uni-cls-8,.uni-cls-9{fill:#fff;}.uni-cls-13,.uni-cls-5{fill:#004181;}.uni-cls-6{stroke-width:0.21px;}.uni-cls-7{stroke-width:0.21px;}.uni-cls-8{stroke-width:0.21px;}.uni-cls-9{stroke-width:0.2px;}.uni-cls-11{stroke-width:0.83px;}.uni-cls-12{stroke-width:1.02px;}.uni-cls-13{font-size:22px;font-family:Graphik-Medium, Graphik;font-weight:500;}.uni-cls-14{letter-spacing:-0.01em;}.uni-cls-15{letter-spacing:0.01em;}</style></defs><g id="Layer_2" data-name="Layer 2"><g id="Layer_1-2" data-name="Layer 1"><g class="uni-cls-1"><rect class="uni-cls-2" width="219.78" height="251.78" rx="16.59"/></g><polyline class="uni-cls-3" points="92.55 216.02 92.55 194.75 127.55 194.75 127.55 216.02"/><line class="uni-cls-3" x1="109.55" y1="194.75" x2="109.55" y2="216.02"/><rect class="uni-cls-4" x="34.29" y="130.32" width="151.5" height="85.2"/><path class="uni-cls-5" d="M185.3,130.81V215H34.79V130.81H185.3m1-1H33.8V216H186.3v-86.2Z"/><polygon class="uni-cls-6" points="192.24 128.92 27.86 128.92 29.96 121.91 190.14 121.91 192.24 128.92"/><rect class="uni-cls-7" x="24.86" y="224.54" width="170.38" height="4.45"/><rect class="uni-cls-8" x="20.9" y="231.6" width="178.29" height="4.45"/><rect class="uni-cls-9" x="29.78" y="217.51" width="160.53" height="4.38"/><path class="uni-cls-10" d="M57,148.38h0Z"/><line class="uni-cls-10" x1="47.78" y1="138.68" x2="47.78" y2="158.6"/><rect class="uni-cls-10" x="38.78" y="138.7" width="18" height="19.98"/><path class="uni-cls-10" d="M88.05,148.38h0Z"/><line class="uni-cls-10" x1="78.87" y1="138.68" x2="78.87" y2="158.6"/><rect class="uni-cls-10" x="69.87" y="138.7" width="18" height="19.98"/><path class="uni-cls-10" d="M119.14,148.38h0Z"/><line class="uni-cls-10" x1="109.95" y1="138.68" x2="109.95" y2="158.6"/><rect class="uni-cls-10" x="100.95" y="138.7" width="18" height="19.98"/><path class="uni-cls-10" d="M150.23,148.38h0Z"/><line class="uni-cls-10" x1="141.04" y1="138.68" x2="141.04" y2="158.6"/><rect class="uni-cls-10" x="132.04" y="138.7" width="18" height="19.98"/><path class="uni-cls-10" d="M181.32,148.38h0Z"/><line class="uni-cls-10" x1="172.13" y1="138.68" x2="172.13" y2="158.6"/><rect class="uni-cls-10" x="163.13" y="138.7" width="18" height="19.98"/><rect class="uni-cls-4" x="87.56" y="55.67" width="44.98" height="63.53"/><path class="uni-cls-5" d="M132.3,55.9V119H87.79V55.9H132.3m.47-.47H87.32v64h45.45v-64Z"/><rect class="uni-cls-4" x="93.65" y="26.33" width="32.8" height="27.44"/><path class="uni-cls-5" d="M126.32,26.46V53.64H93.78V26.46h32.54m.26-.26H93.51V53.9h33.07V26.2Z"/><polygon class="uni-cls-4" points="89.25 23.92 109.5 10.82 130.82 23.92 89.25 23.92"/><path class="uni-cls-5" d="M109.5,11l20.9,12.85H89.65L109.5,11m0-.28L88.85,24h42.39L109.5,10.68Z"/><circle class="uni-cls-4" cx="110.05" cy="40.05" r="10.9"/><path class="uni-cls-5" d="M110.05,29.65a10.4,10.4,0,1,1-10.4,10.4,10.42,10.42,0,0,1,10.4-10.4m0-1a11.4,11.4,0,1,0,11.4,11.4,11.4,11.4,0,0,0-11.4-11.4Z"/><line class="uni-cls-10" x1="117.26" y1="33.59" x2="109.95" y2="40.05"/><line class="uni-cls-10" x1="105.44" y1="35.45" x2="110.29" y2="40.39"/><line class="uni-cls-11" x1="95.6" y1="65.84" x2="124.49" y2="65.84"/><line class="uni-cls-12" x1="104.6" y1="109.51" x2="104.6" y2="65.39"/><line class="uni-cls-12" x1="95.3" y1="109.51" x2="95.3" y2="65.39"/><line class="uni-cls-12" x1="114.56" y1="109.51" x2="114.56" y2="65.39"/><line class="uni-cls-12" x1="124.53" y1="109.51" x2="124.53" y2="65.39"/><line class="uni-cls-11" x1="95.91" y1="76.64" x2="124.8" y2="76.64"/><line class="uni-cls-11" x1="95.91" y1="87.44" x2="124.8" y2="87.44"/><line class="uni-cls-11" x1="95.91" y1="98.24" x2="124.8" y2="98.24"/><line class="uni-cls-11" x1="95.6" y1="109.04" x2="124.49" y2="109.04"/><polyline class="uni-cls-10" points="92.55 216.02 92.55 178.75 127.55 178.75 127.55 216.02"/><line class="uni-cls-10" x1="109.55" y1="178.75" x2="109.55" y2="216.02"/><path class="uni-cls-10" d="M163.33,205.18v0Z"/><path class="uni-cls-10" d="M152.74,205.18v0Z"/><line class="uni-cls-10" x1="173.22" y1="191.83" x2="141.79" y2="191.83"/><rect class="uni-cls-10" x="144.37" y="176.09" width="26.16" height="31.48" transform="translate(349.28 34.38) rotate(90)"/><path class="uni-cls-10" d="M68.5,205.18v0Z"/><path class="uni-cls-10" d="M57.91,205.18v0Z"/><line class="uni-cls-10" x1="78.39" y1="191.83" x2="46.96" y2="191.83"/><rect class="uni-cls-10" x="49.54" y="176.09" width="26.16" height="31.48" transform="translate(254.45 129.21) rotate(90)"/><text class="uni-cls-13" transform="translate(45.53 291.69)">UNIVE<tspan class="uni-cls-14" x="66.92" y="0">R</tspan><tspan x="81.11" y="0">SI</tspan><tspan class="uni-cls-15" x="101.84" y="0">T</tspan><tspan x="114.88" y="0">Y</tspan></text></g></g></svg>