<svg id="government_icon" xmlns="http://www.w3.org/2000/svg" viewBox="0 0 164.59 167.19">
  <defs>
    <style>
      .gov-blue-fill{fill:#004181}
      .gov-outline{fill:none;stroke:#004181;stroke-miterlimit:10}
      .gov-white-fill-blue-stroke{fill:#fff;stroke:#004181;stroke-miterlimit:10;stroke-width:.13px}
      .gov-white-fill{fill:#fff}
      .gov-thin-stroke{stroke-width:.21px}
      .gov-medium-stroke{stroke-width:.96px}
    </style>
  </defs>
  <g id="government_main">
    <g id="government_building">
      <path class="gov-white-fill" d="M6.69 7.9h151.19v147.64H6.69z"/>
      <path class="gov-blue-fill" d="M157.24 8.56v146.32H7.36V8.56h149.88m1.31-1.32H6.05v148.94h152.5V7.24Z"/>
      <path class="gov-white-fill-blue-stroke gov-thin-stroke" d="M.1.1h164.38v4.92H.1z"/>
      <path class="gov-outline" d="M15.27 67.66h23.07v26.29H15.27zM15.27 75.83h23.07M30.87 93.75V68.01M23.45 93.75V67.8M15.27 29.4h23.07v26.29H15.27zM30.87 55.49V19.95M23.45 55.49V19.74M15.3 28.91c0-5.46 5.15-9.89 11.49-9.89s11.49 4.43 11.49 9.89M15.27 120.85h23.07v26.29H15.27zM30.87 146.96v-35.53M23.45 146.96v-35.74M15.27 129.86h23.07M15.27 138.35h23.07M15.3 120.36c0-5.46 5.15-9.88 11.49-9.88s11.49 4.42 11.49 9.88M52.25 67.66h23.07v26.29H52.25zM52.25 75.83h23.08M67.86 93.75V68.01M60.45 93.75V67.8M52.25 29.4h23.07v26.29H52.25zM67.86 55.49V19.95M60.45 55.49V19.74M52.29 28.91c0-5.46 5.14-9.89 11.49-9.89s11.49 4.43 11.49 9.89M89.26 67.66h23.07v26.29H89.26zM89.26 75.83h23.07M104.86 93.75V68.01M97.44 93.75V67.8M89.26 29.4h23.07v26.29H89.26zM104.86 55.49V19.95M97.44 55.49V19.74M89.29 28.91c0-5.46 5.15-9.89 11.49-9.89s11.49 4.43 11.49 9.89M126.24 120.85h23.07v26.29h-23.07zM141.85 146.96v-35.53M134.44 146.96v-35.74M126.24 129.86h23.09M126.24 138.35h23.09M126.29 120.36c0-5.46 5.14-9.88 11.49-9.88s11.49 4.42 11.49 9.88M126.24 67.66h23.07v26.29h-23.07zM126.24 75.83h23.09M141.85 93.75V68.01M134.44 93.75V67.8M126.24 29.4h23.07v26.29h-23.07zM141.85 55.49V19.95M134.44 55.49V19.74M126.29 28.91c0-5.46 5.14-9.89 11.49-9.89s11.49 4.43 11.49 9.89"/>
      <path class="gov-white-fill-blue-stroke" d="M46.4 162.68h71.8v4.45H46.4zM48.47 156.91h67.65v4.38H48.47z"/>
      <path class="gov-outline gov-medium-stroke" d="M48.59 109.49h67.42v46.6H48.59z"/>
      <path class="gov-blue-fill" d="M68.61 109.22h2.28v46.46h-2.28zM92.78 109.22h2.28v46.46h-2.28z"/>
    </g>
  </g>
</svg>
